<svg width="38" height="32" viewBox="0 0 38 32" fill="none" xmlns="http://www.w3.org/2000/svg">
<rect y="12" width="32" height="4" fill="white"/>
<rect width="38" height="4" fill="white"/>
<path d="M0.312 31V23.224H1.832L3.352 26.872C3.46933 27.192 3.58667 27.512 3.704 27.832C3.82133 28.1413 3.93867 28.4507 4.056 28.76H4.12C4.23733 28.4507 4.35467 28.1413 4.472 27.832C4.6 27.512 4.71733 27.192 4.824 26.872L6.312 23.224H7.816V31H6.616V27.512C6.616 27.3413 6.62133 27.144 6.632 26.92C6.64267 26.6853 6.65333 26.4507 6.664 26.216C6.68533 25.9707 6.70133 25.7307 6.712 25.496C6.73333 25.2507 6.75467 25.0267 6.776 24.824H6.712C6.59467 25.1333 6.472 25.448 6.344 25.768C6.22667 26.0773 6.10933 26.376 5.992 26.664L4.52 30.264H3.64L2.136 26.664C2.01867 26.376 1.896 26.0773 1.768 25.768C1.65067 25.448 1.53333 25.1333 1.416 24.824H1.352C1.36267 25.0267 1.37333 25.2507 1.384 25.496C1.40533 25.7307 1.42133 25.9707 1.432 26.216C1.45333 26.4507 1.46933 26.6853 1.48 26.92C1.49067 27.144 1.496 27.3413 1.496 27.512V31H0.312ZM13.789 31.192C13.2663 31.192 12.7757 31.1013 12.317 30.92C11.869 30.728 11.4743 30.4613 11.133 30.12C10.8023 29.768 10.541 29.3413 10.349 28.84C10.157 28.3387 10.061 27.768 10.061 27.128C10.061 26.488 10.157 25.9173 10.349 25.416C10.5517 24.904 10.813 24.472 11.133 24.12C11.4637 23.768 11.837 23.5013 12.253 23.32C12.669 23.128 13.101 23.032 13.549 23.032C14.0397 23.032 14.477 23.1173 14.861 23.288C15.2557 23.4587 15.581 23.704 15.837 24.024C16.1037 24.344 16.3063 24.728 16.445 25.176C16.5837 25.624 16.653 26.1253 16.653 26.68C16.653 26.8187 16.6477 26.9573 16.637 27.096C16.637 27.224 16.6263 27.336 16.605 27.432H11.357C11.4103 28.264 11.6663 28.9253 12.125 29.416C12.5943 29.896 13.2023 30.136 13.949 30.136C14.3223 30.136 14.6637 30.0827 14.973 29.976C15.293 29.8587 15.597 29.7093 15.885 29.528L16.349 30.392C16.0077 30.6053 15.629 30.792 15.213 30.952C14.797 31.112 14.3223 31.192 13.789 31.192ZM11.341 26.488H15.501C15.501 25.6987 15.3303 25.1013 14.989 24.696C14.6583 24.28 14.189 24.072 13.581 24.072C13.3037 24.072 13.037 24.1253 12.781 24.232C12.5357 24.3387 12.3117 24.4987 12.109 24.712C11.9063 24.9147 11.7357 25.1653 11.597 25.464C11.469 25.7627 11.3837 26.104 11.341 26.488ZM18.7745 31V23.224H20.0865V26.376H23.8305V23.224H25.1425V31H23.8305V27.544H20.0865V31H18.7745ZM34.3589 31.192C33.9002 31.192 33.4735 31.112 33.0789 30.952C32.6842 30.792 32.3375 30.5573 32.0389 30.248C31.7402 29.9387 31.4949 29.56 31.3029 29.112C31.1109 28.664 30.9935 28.1573 30.9509 27.592H29.2709V31H27.9589V23.224H29.2709V26.424H30.9669C31.0309 25.8907 31.1589 25.416 31.3509 25C31.5535 24.5733 31.8042 24.216 32.1029 23.928C32.4015 23.64 32.7429 23.4213 33.1269 23.272C33.5109 23.112 33.9215 23.032 34.3589 23.032C34.8175 23.032 35.2495 23.1227 35.6549 23.304C36.0709 23.4853 36.4282 23.752 36.7269 24.104C37.0362 24.456 37.2762 24.888 37.4469 25.4C37.6282 25.9013 37.7189 26.4773 37.7189 27.128C37.7189 27.768 37.6282 28.344 37.4469 28.856C37.2762 29.3573 37.0362 29.784 36.7269 30.136C36.4282 30.4773 36.0709 30.7387 35.6549 30.92C35.2495 31.1013 34.8175 31.192 34.3589 31.192ZM34.2949 30.104C34.6149 30.104 34.9029 30.0347 35.1589 29.896C35.4149 29.7467 35.6282 29.544 35.7989 29.288C35.9802 29.0213 36.1189 28.7067 36.2149 28.344C36.3109 27.9813 36.3589 27.576 36.3589 27.128C36.3589 26.232 36.1722 25.5067 35.7989 24.952C35.4362 24.3973 34.9349 24.12 34.2949 24.12C33.9749 24.12 33.6869 24.1947 33.4309 24.344C33.1749 24.4827 32.9509 24.6853 32.7589 24.952C32.5775 25.2187 32.4335 25.5387 32.3269 25.912C32.2309 26.2747 32.1829 26.68 32.1829 27.128C32.1829 27.576 32.2309 27.9813 32.3269 28.344C32.4335 28.7067 32.5775 29.0213 32.7589 29.288C32.9509 29.544 33.1749 29.7467 33.4309 29.896C33.6869 30.0347 33.9749 30.104 34.2949 30.104Z" fill="white"/>
</svg>
