<svg width="352.514648" height="483.000000" viewBox="0 0 352.515 483" fill="none" xmlns="http://www.w3.org/2000/svg" xmlns:xlink="http://www.w3.org/1999/xlink">
	<desc>
			Created with Pixso.
	</desc>
	<defs/>
	<path id="Path 2" d="M343.08 17.89L325.9 24L285.65 19.7L243.62 44L264.29 51.45L245.4 52.09L235.6 50.09L218.8 40.59L224.2 55.67L225.7 72.09L210.43 51.45L151.5 42L153.89 77L138.06 48.59L108.69 48.59L95.52 66.89L108.69 34.3L91.2 19.7L79.59 48.59L76.65 13.54L62.9 0.89L19.4 9.29L3.4 56.96L34 104.9L91.2 104.9L47.4 117.8L45.4 127.2L61.6 138.41L63.8 145.39L50.65 139.3L34 138.41L2.2 163.35L0.3 203.1L36 197.3L26.1 222.45L47.4 260.29L76.3 233.55L83.95 203.7L87.9 203.1L95.02 230.7L115.95 187.6L112.25 161.2L127 175.7L170.75 137.7L161.1 163.35L188.6 162.5L225.26 124.3L233 179.7L249.3 167.5L249.3 174.35L263.45 216.4L297.91 187.6L293.6 154.8L285.65 146.8L262.95 139.3L299.2 141.3L292.54 102.2L288 88.29L305.45 104.9L345.5 55.89L345.5 26.1L343.08 17.89Z" fill="#FFFFFF" fill-opacity="1.000000" fill-rule="evenodd"/>
	<path id="Path 2" d="M325.9 24L285.65 19.7L243.62 44L264.29 51.45L245.4 52.09L235.6 50.09L218.8 40.59L224.2 55.67L225.7 72.09L210.43 51.45L151.5 42L153.89 77L138.06 48.59L108.69 48.59L95.52 66.89L108.69 34.3L91.2 19.7L79.59 48.59L76.65 13.54L62.9 0.89L19.4 9.29L3.4 56.96L34 104.9L91.2 104.9L47.4 117.8L45.4 127.2L61.6 138.41L63.8 145.39L50.65 139.3L34 138.41L2.2 163.35L0.3 203.1L36 197.3L26.1 222.45L47.4 260.29L76.3 233.55L83.95 203.7L87.9 203.1L95.02 230.7L115.95 187.6L112.25 161.2L127 175.7L170.75 137.7L161.1 163.35L188.6 162.5L225.26 124.3L233 179.7L249.3 167.5L249.3 174.35L263.45 216.4L297.91 187.6L293.6 154.8L285.65 146.8L262.95 139.3L299.2 141.3L292.54 102.2L288 88.29L305.45 104.9L345.5 55.89L345.5 26.1L343.08 17.89L325.9 24Z" stroke="#979797" stroke-opacity="0" stroke-width="0.000000"/>
	<path id="Shape" d="M18.4001 7.69995C21.2002 11.2998 24.0001 14.8999 26.6001 18.5999C29.3002 22.3999 31.9001 26.2998 35.0001 30.7998C32.5001 22.2 30.3002 14.3999 28.0001 6.5C29.1001 6.2998 29.8002 6.19995 31.1001 6C35.5001 19 39.8002 32 44.2002 45C44.0001 43.3999 43.6001 41.8999 43.3002 40.3999C41.1001 29.2998 38.8002 18.2998 36.7002 7.19995C36.6278 6.6936 37.0786 6.08276 37.5227 5.48071C37.6927 5.25049 37.8618 5.02124 38.0001 4.7998C38.7002 5.3999 39.9001 5.7998 40.1001 6.5C41.5001 11.5 42.8002 16.5 44.0001 21.5C47.1001 33.7 50.5001 45.8999 50.9001 58.3999C52.1001 58.7998 53.0001 59.0999 54.0001 59.5C54.0001 59.7 54.0001 60 53.9001 60.2C49.2002 60.5999 44.6001 60.8999 39.9001 61.2998C40.2002 61.7998 40.5001 62.2998 40.8002 62.7C38.0001 61.7 35.3002 61.2998 32.6001 61.0999C22.8002 60.5 12.9001 60.0999 3.40015 59.5999C3.80017 60.2 4.40015 61.3999 5.2002 62.2998C5.80017 63 6.80017 63.7 7.6001 63.7C15.4001 63.8999 23.2002 63.8999 30.9001 64.2C37.1001 64.3999 43.3002 64.8999 49.4001 65.3999C51.5001 65.5999 53.5001 66 55.6001 66.3999C55.6001 66.5999 55.5001 66.8999 55.5001 67.0999C39.7002 68.5999 23.9001 68.3999 7.7002 67C8.30017 67.7 8.6001 68 8.80017 68.2998C16.3002 80.2998 23.8002 92.2 31.2002 104.2C32.0001 105.5 32.7002 105.9 34.0001 104.9C35.5001 103.6 37.0001 102.3 38.6001 101.1C42.6001 98 46.7002 95 50.7002 91.8999C53.4001 89.8999 56.0001 87.7998 58.6001 85.7C53.7002 88.0999 49.0001 90.7 44.2002 93.0999C40.2002 95.2 36.1001 97.2 32.0001 99.0999C31.603 99.2986 31.0745 99.2341 30.5304 99.168C30.2526 99.1343 29.9706 99.0999 29.7002 99.0999C30.1001 98.5 30.3002 97.7 30.8002 97.2998C32.0001 96.3999 33.3002 95.7 34.7002 95C45.9001 89 57.2002 83.2998 68.5001 77.5999C68.9916 77.3191 69.6801 77.3833 70.358 77.4465C70.646 77.4731 70.9319 77.5 71.2002 77.5C71.3002 77.8999 71.4001 78.2 71.6001 78.5999L35.2002 105.9C35.9633 105.796 36.7626 105.788 37.5353 105.781C38.9902 105.766 40.3511 105.753 41.2002 105.1C47.5001 100 53.4001 94.5 59.6001 89.2998C64.7002 84.8999 69.9001 80.5999 75.3002 76.0999C71.3002 72.8999 67.1001 69.7 63.0001 66.5C63.1001 66.2998 63.2002 66.0999 63.4001 65.8999C64.5001 66.3999 65.5001 66.8999 66.6001 67.5C69.8002 69.2 73.1001 70.7998 76.3002 72.5L76.3002 72.5999C76.6001 72.8999 76.9001 73.2998 77.3002 73.5C83.2002 77.2998 89.2002 80.8999 94.9001 85C99.8 88.5 105 90.0999 110.4 90.2C112.3 80 114.2 69.8999 116.2 59.3999C114.3 62.3999 112.5 65.0999 110.9 67.7998C110.4 68.7 109.8 69.7 109.8 70.7C109.8 75.0999 110 79.5 110.1 84L110.1 89.2998C109.8 89.2998 109.5 89.2998 109.2 89.3999C108.6 84.2 108 79 107.2 73C106 74.7 104.7 75.7 104.6 76.8999C104.469 78.1421 104.681 79.4268 104.926 80.9221C105.056 81.7141 105.196 82.5649 105.3 83.5C104.4 81.5 103.7 80.0999 103.1 78.7C102.2 79.7 101.4 80.7 100.6 81.7C100.3 81.5999 100 81.5999 99.8 81.5C102.7 78.0999 102.7 74.7998 100.3 71.5999L92.8002 80.2998C92.5001 80.0999 92.2002 79.8999 92.0001 79.7C96.0001 67.7998 103.5 58 111.3 48.0999C109.8 47.8999 108.8 47.7 107.7 47.5C104.2 54.5999 100.9 61.7 95.5001 67.7C96.7002 63.5 98.0002 59.3999 99.9001 55.5C103.2 48.7998 106.8 42.2998 110.3 35.7998C111.4 33.7998 112.1 31.7998 109.1 30.5C107.9 30 106.9 29.0999 105.7 28.2998C104.5 32.7 103.3 36.8999 102.1 41.0999C100.8 45.3999 99.5002 49.5999 98.2002 53.8999C96.9001 57.8999 95.4001 61.8999 94.0001 65.8999C93.6001 65.7998 93.2002 65.5999 92.8002 65.5C96.5001 52.7998 100.3 40 104.1 27.2C102.8 26.3999 101.5 25.5999 99.9001 24.5999C98.8 32 97.8 39.0999 96.6001 46.2C95.2002 53 93.6001 60 91.0001 66.7C90.3002 51.5 93.0001 36.7998 96.5001 22C94.5001 20.7 92.5001 19.3999 90.3002 17.8999C89.9001 19.3999 89.7002 20.3999 89.4001 21.3999C89.8002 21.7998 90.6001 22.2 90.6001 22.7C90.6001 27.5 90.5001 32.2998 90.2002 37C89.8002 42.8999 89.2002 48.7998 88.7002 54.7C88.4001 57.8999 87.9001 61.2 87.5001 64.3999L86.8002 64.3999C86.8002 62.5332 86.778 60.6665 86.7557 58.7998C86.7113 55.0667 86.6669 51.3333 86.8002 47.5999C87.0001 42.7 87.5001 37.7998 87.9001 32.8999C88.2002 29.5 88.5001 26.2 88.8002 22.8999C86.4001 29.8999 84.0001 36.8999 81.5001 43.8999C82.0001 44.7998 83.0001 45.5999 83.1001 46.5C84.1001 55.3999 84.6001 64.2998 82.4001 73.2998C81.9001 70.2 81.2002 67.2 81.0001 64.0999C80.6001 58.5 80.6001 52.8999 80.4001 47.3999C80.1001 46.7 79.6001 45.8999 79.5001 45.0999C79.2002 42.2998 79.1001 39.3999 78.9001 36.5999C75.9001 41.7998 73.0001 47.0999 69.8002 52.2C67.9001 55.2 65.5001 57.8999 63.3002 60.7998C63.0001 60.7 62.8002 60.5 62.5001 60.3999C63.5001 58 64.1001 55.5 65.4001 53.2998C69.2002 47.2 73.2002 41.2998 77.1001 35.2998C77.4001 34.7998 78.2002 34.5 78.8002 34.2C78.7002 32.3999 78.7002 30.7 78.6001 28.2C72.1001 38.8999 66.2002 49.2998 57.8002 57.7998C59.2002 54.2 60.7002 50.5999 62.7002 47.2998C67.2002 40.0999 71.8002 32.8999 76.5001 25.7998C78.0001 23.5 78.7002 21.2998 77.9001 18.5C76.1001 21.8999 74.5001 25.2 72.6001 28.2998C68.7002 34.5999 64.7002 40.7 60.8002 46.8999C59.5001 48.8999 58.4001 51 57.2002 53C57.2002 53.0999 56.8002 52.5999 56.4001 52C56.0001 52.5999 55.7002 53 54.9001 54C55.1001 51.2998 55.3002 49.2 55.5001 46.7998C54.3002 47.2998 53.8002 47.5 53.1001 47.7C53.1964 47.1221 53.334 46.5649 53.4663 46.0286C53.7465 44.8933 54.0039 43.8506 53.8002 42.8999C51.5001 32.2 49.0001 21.5999 46.6001 10.8999C46.0001 8.59985 45.8002 6 45.5001 3.3999C45.7002 3.2998 46.0001 3.19995 46.3002 3C46.8002 3.5 47.7002 4 47.8002 4.59985C49.0001 8.69995 50.0001 12.8999 51.0001 17C52.2002 22.2 53.4001 27.5 54.6001 32.7998C55.3002 31.5 55.6001 30.2998 55.5001 29.0999C55.2002 22 54.6001 14.8999 54.5001 7.7998C54.4335 6.2666 54.8113 4.73315 55.1891 3.19995C55.3779 2.43335 55.5668 1.6665 55.7002 0.899902C43.7002 2.7998 31.6001 4.69995 19.6001 6.59985C19.2002 6.8999 18.8002 7.2998 18.4001 7.69995ZM78.7002 42C78.1001 43.7 77.5001 45.5 77.0001 47.2L76.9001 47.2998C76.9078 47.3076 76.9155 47.3159 76.9232 47.3247C76.9489 47.2832 76.9745 47.2417 77.0001 47.2L78.3002 45.8999C78.1001 55.0999 77.9001 63.7 76.2002 72.2C75.9001 71.5 75.6001 70.8999 75.6001 70.2998C76.0001 62.7 76.6001 55.2 77.1001 47.7C77.1001 47.6077 77.0149 47.4302 76.9232 47.3247C76.1489 48.5769 75.3777 49.7417 74.7002 51C72.2002 55.2 69.8002 59.5 66.9001 63.5C69.2002 55.5 73.7002 48.5999 78.7002 42ZM56.5001 69.8999C59.0001 69.7 61.5001 69.0999 64.0001 68.7C64.0001 68.3999 63.9001 68.2 63.9001 67.8999C56.6001 68.2998 49.3002 68.5999 42.2002 69.2C32.8002 70 23.5001 71 14.2002 71.8999C13.7002 71.8999 13.2002 72.5 12.7002 72.7998C13.3002 73.2998 13.9001 74.0999 14.5001 74.0999C17.3002 74 20.2002 73.7 23.0001 73.3999C34.1001 72.2998 45.3002 71.0999 56.5001 69.8999ZM52.8002 75.2998C42.2002 77.5 31.5001 79.3999 21.0001 81.7C18.4001 82.2998 17.9001 81.0999 16.9001 78.7C31.6001 76.2998 45.9001 74 60.3002 71.7C60.4001 72.0999 60.5001 72.5999 60.6001 73C58.0001 73.7 55.5001 74.7 52.8002 75.2998ZM22.4001 87.7998C23.3002 88.5 24.4001 89 25.2002 88.7998C40.1001 84.5999 54.6001 79.5 68.4001 72.3999C52.6001 75.7998 37.6001 81.7 22.4001 87.7998Z" clip-rule="evenodd" fill="#003AA1" fill-opacity="1.000000" fill-rule="evenodd"/>
	<path id="Shape" d="M91.3999 150.5C97.2 145.9 103.1 141.4 108.9 136.7C114.5 132.1 119.9 127.3 125.5 122.5C125.9 122.1 126.5 122.1 126.7 122C127.7 135.7 128.7 149.4 129.7 162.9C125.9 152.8 122 142.5 118.1 132.1C117.8 132.1 117.5 132.2 117.2 132.3C117.7 134.3 117.9 136.3 118.6 138.2C122.5 149.7 126.5 161.2 130.7 172.7C131.3 174.3 131.2 175.2 129.9 176.1C129 176.8 128.2 177.5 127.2 178.2C123.6 174.7 120.8 171 120.3 165.5C119.6 158.9 118 152.4 116.9 145.8C116.9 145.558 116.965 145.251 117.042 144.984C117.337 145.556 117.709 146.133 117.9 146.8C120.9 156.3 123.7 165.8 126.7 175.3C126.9 175.9 127.5 176.3 127.9 176.8C128.2 176.7 128.4 176.5 128.6 176.4C126 164.4 122 152.8 116.7 141.7C116.789 142.589 116.878 143.557 116.967 144.533L116.2 143C116 143 115.8 143.1 115.6 143.1C116.5 151 117.4 159 118.3 167.1C115.3 164.9 113.8 162.4 113.7 158.5C113.5 151.9 112.3 145.2 111.5 138.6C111.4 137.9 110.9 137.2 110.6 136.5C110.3 136.5 110 136.6 109.7 136.6C110 142.8 110.4 148.9 110.7 155C106.8 152.1 107.7 147 105.6 143.1C105.7 144.7 105.8 146.2 105.9 148.1C104.8 146.7 104 145.6 103.1 144.5C103.8 152.5 107.6 159.1 111.8 166C112.1 165.1 112.2 164.7 112.4 164.2L112.9 164.2C113.9 170.6 114.8 177.1 115.8 183.5C115.2 182.5 114.5 181.5 114 180.4C109.2 170.8 103.5 161.9 96.6 153.6C101.3 165.4 108.2 175.9 115 186.8L116.2 184.8C116.2 185.172 116.219 185.556 116.237 185.944C116.293 187.118 116.351 188.322 115.9 189.3C111.2 198.9 106.2 208.4 101.3 218.1C98.3 206.1 95.3999 194.3 92.3999 182.5C92.1 182.6 91.7 182.7 91.3999 182.8C92.8999 189.6 94.2 196.3 95.7999 203C96.8999 207.8 98.2 212.6 99.5999 217.4C100.5 220.4 99.3 222.6 97.5 225.3C97 223 96.6 221 96.2 219C94.3999 210.9 92.6 202.9 90.7999 194.8C90.6 194 90.3999 193.1 90.3999 192.2L89.2 165.5C89.1 164.5 88.7999 163.4 88.6 162.4L87.6 162.4C87.2 169 86.7 175.5 86.5 182.1C86.3999 188.8 86.5 195.6 86.2999 202.3C84.7 193.8 83 185.2 81.3999 176.7C80.8999 176.8 80.5 176.8 80.1 176.9C81 186 81.7999 195.2 82.7 204.3C82.6 204.3 82.6 204.4 82.5 204.4C81.5 200.4 80.7 196.3 79.5 192.4C78.2999 188.5 76.7999 184.7 75.3999 180.8L74.5 181.1C75.6 186.9 76.5 192.8 77.7999 198.5C79.1 204.2 80.8999 209.8 82.2999 215.5C82.6 217 82.2 218.8 81.6 220.3C79 209.9 76.3999 199.4 73.7999 189C73.5 189.1 73.1 189.1 72.7999 189.2C73.2999 192.6 73.8999 196.1 74.5 199.6C74.3999 199.6 74.2 199.7 74.1 199.7C73.1 196.7 72.5 193.5 71 190.8C68.6 186.4 69.7999 183.2 72.2999 179.3C76.8999 171.9 80.6 163.8 85.1 156.3C86.5 154 89.2 152.3 91.3999 150.5ZM116.967 144.533C116.978 144.656 116.989 144.778 117 144.9C117.014 144.928 117.028 144.956 117.042 144.984C117.061 144.92 117.081 144.858 117.1 144.8L116.967 144.533ZM128.4 151.1C126.3 145.2 124.3 139.2 122.2 133.3C121.9 133.5 121.5 133.6 121.2 133.7C123.2 139.6 125.3 145.6 127.3 151.5C127.7 151.3 128 151.2 128.4 151.1ZM100.2 151.6C105 159.1 111.1 165.8 113.8 174.5C113.5 174.7 113.1 174.9 112.8 175.1C108.3 167.4 103.9 159.8 99.3999 152.1C99.7 151.9 100 151.8 100.2 151.6ZM112.2 192.5C106.8 179.1 99.7 166.7 91.7 154.8C91.3999 154.9 91.1 155.1 90.7999 155.2C97.5 168.1 104.3 181 111 193.9L111.9 193.9C111.929 193.781 111.985 193.646 112.044 193.502C112.184 193.162 112.341 192.781 112.2 192.5ZM92.8999 169.2C94.5 184.1 98.7 198.2 103.4 212.4C104.1 210.8 104.8 209 104.5 207.5Q99.8499 190.7 94.8999 173.9C94.3999 172.3 93.6 170.8 92.8999 169.2ZM107.4 205C106.9 205.1 106.4 205.1 105.9 205.2C102.7 194.6 99.5999 184.1 96.3999 173.5C96.7 173.4 97.0999 173.3 97.3999 173.1C99 176.8 100.7 180.4 102.1 184.1C104 189.4 105.8 194.7 107.4 200C107.736 201.074 107.621 202.238 107.509 203.371C107.454 203.926 107.4 204.474 107.4 205Z" clip-rule="evenodd" fill="#003AA1" fill-opacity="1.000000" fill-rule="evenodd"/>
	<path id="Path" d="M152.6 57C159.6 69.7 166.7 82.4 173.6 95.2C174.4 96.7 175.3 97.3 176.9 97.2C180.8 97.1 184.8 97.2 188.7 97.2C192.4 97.1 196.1 96.9 199.8 96.8C206.1 96.6 212.5 96.6 218.8 96.4C221.5 96.3 224.3 96 227.3 95.8C226.9 94.7 226.7 93.8 226.3 93C224.1 89.1 221.6 85.3 219.8 81.2C215.2 71.4 211 61.5 206.5 51.6C206.2 50.8 205.3 50.3 204.6 49.7C204.4 49.9 204.2 50.1 204 50.3C209.7 65.1 217.6 79 222.1 94.3C219.6 90.6 217.1 86.8 215.1 82.8C209.9 72.4 205.6 61.8 202.4 50.6C202.3 50.1 201.6 49.8 201.3 49.4C201.2 49.5 201.1 49.6 200.9 49.7C205 64.5 209.2 79.3 213.3 94.1C212.9 94.2 212.5 94.3 212.1 94.5C210.3 89.8 208 85.3 206.7 80.5C204 70.8 201.7 61.1 199.4 51.3C199 49.5 198.3 48.5 196.1 48.8C199.5 64.2 204.6 79.3 205.4 95.2C198.5 80.3 194.9 64.5 193 48.2C192.3 48.1 191.8 48 191.2 47.9C190.8 47.9 190.5 47.9 190.3 47.9C192.9 63.3 198.5 78.1 198.6 93.8C191.6 79.2 189.4 63.5 188.3 47.4C187.6 47.3 186.8 47.3 185.8 47.2C187 54.5 188.3 61.4 189.4 68.3C190.4 75.2 191.3 82.2 192.2 89.2C191.9 89.2 191.5 89.3 191.2 89.3C186 75.6 184.6 61.2 183.4 46.7C182.5 46.6 181.6 46.5 180.5 46.3C182 58.8 184 71 183.2 83.4C180.1 71.1 179.3 58.6 178.8 46C177.9 45.9 176.9 45.8 175.5 45.6C176.6 53.7 177.8 61.5 178.8 69.3C179.7 77.2 180.4 85.1 181.2 93C180.9 93 180.5 93.1 180.2 93.1C174.7 77.6 173.5 61.4 173 45.1C171.3 44.9 169.8 44.7 168.2 44.5C170.3 58.1 173.7 71.1 172.7 84.7C166.9 71.8 165.4 58.1 165.4 44C163.7 43.8 162.2 43.6 160.7 43.4C162.7 54.4 164.7 65.2 166.6 75.9C166.1 76 165.6 76.1 165.1 76.2C162.89 65.2 160.6 54.2 158.3 43C157.39 42.9 156.1 42.7 154.5 42.5C157 50.8 159.3 58.8 161.7 66.8C160.89 66.7 160.5 66.4 160.39 66C157.8 58.5 155.3 51.1 152.6 43.6C152.3 42.9 151.6 42.3 151 41.6C150.8 41.8 150.5 41.9 150.3 42.1C150.7 45.9 151.1 49.7 151.5 53.4C151.7 54.9 152 56 152.6 57Z" fill="#003AA1" fill-opacity="1.000000" fill-rule="nonzero"/>
	<path id="Shape" d="M215.6 100.7C222.9 100.5 230.3 100.3 237.6 100.1C233.4 107.7 229.2 115.3 224.9 122.6C224.2 117.4 223.5 112 222.8 106.5L221.7 106.5C221.4 109.2 220.7 111.8 220.7 114.5C220.7 118.5 221.3 122.6 221.4 126.6C221.472 127.957 221.288 129.314 221.104 130.672C221.031 131.214 220.957 131.757 220.9 132.3C220.7 132.3 220.4 132.2 220.2 132.2C219.6 126 219 119.7 218.4 113.5L217.2 113.5C216.9 117.7 216.5 122 216.4 126.3C216.353 127.862 216.485 129.401 216.615 130.929C216.761 132.629 216.906 134.314 216.8 136C216.7 137.4 215.1 138.8 213.7 139.9C213.8 133.1 214 126.4 214.1 119.6C213.6 119.6 213.1 119.5 212.6 119.5C211.9 122.7 211.1 125.8 210.7 129C210.2 133 210.3 137.1 209.8 141.1C209.7 142.7 208.8 144.2 208.2 145.8C207.9 145.8 207.6 145.7 207.3 145.6C207.2 141.8 207.2 137.9 207.1 134C206.8 133.9 206.5 133.9 206.2 133.9C206.033 135.2 205.8 136.5 205.567 137.8C205.1 140.4 204.634 143 204.7 145.6C204.799 149.051 202.954 150.654 200.698 152.615L200.6 152.7C201.2 146.9 201.9 141.2 202.5 135.6C202.1 135.6 201.7 135.5 201.3 135.4C199.5 142.2 197.6 149 196.1 155.9C195.8 157 195.6 157.7 194.9 158.5C192.2 161.8 189 163.6 184.4 163.3C180.473 163.082 176.546 163.287 172.618 163.492L172.618 163.492C171.146 163.569 169.673 163.646 168.2 163.7C173 157.8 177.9 151.8 182.7 145.8C182.4 145.6 182.2 145.4 182 145.2L173.6 153.6L173.4 153.4C174.1 152.4 174.7 151.4 175.5 150.2C171.5 154.1 167.8 157.7 164.2 161.5C163.6 162.2 163.5 163.2 163.1 164.1C161.6 164.2 160.1 164.3 158.4 164.4C159.3 160.2 162 157.8 165.4 155.9C172.3 152.1 178.4 147.2 184.1 141.7C185.2 140.6 186.4 139.7 187.5 138.7C187.3 138.3 187 138 186.8 137.7C179.5 142.1 172.3 146.5 165.1 150.9C165.8 148.4 167.1 146.5 170 145.2C174.9 143.1 179.2 139.8 183.9 137.4C186 136.3 188.7 136.2 191 135.4C195.3 133.9 199.6 132.3 204.5 130.5C199.3 129 174.6 135.2 172.4 138.5C174.4 138.4 176.1 138.4 178.1 138.3C174.8 140.1 171.8 141.8 168.7 143.5C168.948 142.405 169.507 141.421 170.066 140.44C171.087 138.645 172.105 136.857 171.2 134.4C182.2 132.4 193.3 131.4 203 125.4C203 125.1 202.9 124.7 202.8 124.3C197.5 124.8 192.2 125.3 186.2 125.8C196.5 122.8 205.9 119.2 214.2 113C212.9 113.2 211.6 113.3 209.4 113.6L220.1 102.9L219.3 102.1C215.9 105.4 212.2 108.5 209 112C206.8 114.4 204.1 115 200.9 115.7L210.4 106.2C210.2 105.9 209.9 105.7 209.7 105.4C205.7 108.7 201.6 111.9 197.9 115.4C195.5 117.8 192.7 118.9 189.5 119.7C193.8 114.7 197.9 109.9 202 105L201.3 104.3C199.6 105.7 198 107.1 196.3 108.5C194.6 109.9 192.8 111.3 191.2 112.9C189.6 114.5 188.2 116.3 186.7 118.1C188.7 114.2 190.6 110.4 192.6 106.5C192.3 106.4 192.1 106.3 191.9 106.2C186.7 109.7 183.8 115.2 180.1 120.1C182.7 114.6 185.3 109.2 187.9 103.8C188.3 103.1 188.4 102.2 188.6 101.4C197.6 101.2 206.6 100.9 215.6 100.7ZM188.6 101.4L188.5 101.4L188.6 101.3L188.6 101.4ZM197.8 140.3C196.9 143 196.2 145.7 195.2 148.3C193.5 152.4 191.7 156.5 189.5 160.3C188.9 161.4 186.8 161.7 185 162.5C186 159.9 186.7 158 187.5 156.1C186.9 157 186 157.7 185.7 158.7C184.9 161.5 183.1 162.4 179.8 162.2C183.5 156.8 187 151.6 190.5 146.5C190.7 146.6 190.9 146.7 191.1 146.9C189.9 150 188.7 153.2 187.5 156.3C190.7 150.8 193.9 145.4 197 139.9C197.3 140 197.5 140.1 197.8 140.3ZM172.6 162.3C176.3 162.9 176.4 162.9 178.1 160.7C179.8 158.4 181.5 156 183.1 153.5C185.2 149.8 187.2 146 189.3 142.3L188.4 141.7C183.2 148.5 178 155.3 172.6 162.3Z" clip-rule="evenodd" fill="#003AA1" fill-opacity="1.000000" fill-rule="evenodd"/>
	<path id="Shape" d="M280 149.8C283.8 151.6 287.6 153.6 291.6 155.1C294.4 156.2 295.9 157.7 295.5 161C286.2 157.7 277.5 153.2 269.6 146.9C271.9 147.5 274.2 148 276.5 148.6C274.7 147.7 272.9 146.7 271.1 145.8C271.2 145.6 271.2 145.3 271.3 145.1C277.7 146.4 284.2 147.8 290.6 149.1C289 147.5 287.4 145.7 285.5 145.3C277.6 143.7 269.5 142.8 261.9 139.3C261.6 141.8 261.3 144.1 261.1 146.4L260.3 146.4C260.2 144.6 260.1 142.9 260 141.1C259.7 141 259.5 140.9 259.2 140.8C252.6 150.7 243.5 158.2 234.7 166C240.7 161.8 246.7 157.5 253.3 152.9C253 154 253 154.3 252.9 154.4C246.3 159.5 239.7 164.7 233 169.7C231.5 170.8 230.6 171.9 231.7 173.6C236.6 170.2 241.3 166.6 246.2 163.5C249.8 161.2 252.9 158.9 254.3 154.6C254.8 153.2 255.8 152 256.6 150.7C257.3 149.5 258.2 148.4 259.2 146.9C259.3 147.7 259.4 148 259.4 148.3C257.1 155.8 254.4 163.1 250.6 170C250.349 170.445 250.042 170.889 249.729 171.342C248.423 173.23 247.022 175.257 249.2 178C252.3 169 255.5 160.3 261.5 152.7C261.567 156.07 260.863 159.349 260.151 162.66C259.807 164.261 259.461 165.87 259.2 167.5C260.3 165.3 261.5 163.2 262.9 160.5C262.935 160.658 262.967 160.798 262.996 160.922C263.129 161.502 263.182 161.735 263.1 161.9C260.4 170.3 258.1 178.8 254.8 186.9C253.3 190.5 253.8 193.2 255.1 196.2C256.4 190.6 257.8 185.1 259.1 179.5C259.5 179.6 259.8 179.6 260.2 179.7C259.5 185.2 258.9 190.8 258 196.3C257.945 196.632 257.887 196.962 257.829 197.291C257.262 200.527 256.721 203.614 258.9 206.7C260.3 195.8 260.5 184.8 263.3 174.2C264 185.4 263.1 196.5 261.5 207.5C261.43 207.975 261.338 208.456 261.245 208.942C260.809 211.22 260.352 213.61 262 216C262.1 214.6 262.2 213.5 262.2 212.3L262.7 212.3L263 215.6C263.7 203.8 263.5 192 265.7 180.4C267.4 192.5 266.7 204.6 265.6 216.9C266.9 215.9 268.1 215.3 269.1 214.4C269.6 213.9 270.1 213 270.1 212.4C269.9 210.5 269.3 208.6 269.2 206.6C268.8 201.4 268.5 196.1 268.1 190.9C268.4 190.9 268.7 190.8 269 190.8C270.1 197.6 271.2 204.3 272.4 211.5C273.7 210.4 274.9 209.6 275.8 208.5C276.3 207.9 276.5 206.7 276.3 205.9C274.3 199.7 272.2 193.6 270.2 187.4C268.5 182.3 267.8 177.1 267.5 171.8C267.5 171.6 267.8 171.4 267.9 171.1C275.2 179.8 279.6 190 284.3 199.9L281.7 202.5C278.7 197.2 275.8 192 272.9 186.8C272.8 186.9 272.7 186.9 272.6 187C274.5 193.4 276.5 199.8 278.6 206.8C280.3 205.1 281.7 203.6 283.2 202.3C288.1 198.1 293.1 193.9 298 189.6C299.5 188.3 299.3 185.4 297.9 184.1C296.3 182.7 294.5 181.4 293 180C288.5 175.6 284.1 171.1 279.6 166.7C279.6 166.6 279.7 166.5 279.7 166.5C285.8 171 291.9 175.5 298.3 180.3C298.1 178.5 297.8 177.1 297.6 175.6C295.2 174.4 292.7 173.5 290.4 172.1C284.1 168.2 277.7 164.3 271.6 160.1C268.7 158.2 266.3 155.6 263.9 153C276.2 158 286.7 165.8 297.3 173.6L296.7 163.4C296.5 160.5 296.3 157.6 295.8 154.8C295.6 153.7 294.7 152.6 294.1 151.5C294 151.6 293.8 151.7 293.7 151.7C293.8 152.3 294 152.9 294.1 153.7C289.2 152.2 284.6 151 280 149.8ZM295.8 167.5L296.6 166.7C295.9 165.9 295.4 164.7 294.5 164.2Q284 158.35 273.5 152.8C272 152 270.4 151.7 268.8 151.1C268.7 151.4 268.5 151.7 268.4 152C277.5 157.2 286.7 162.3 295.8 167.5ZM293.6 191.3L291.2 193.7C288.5 190.4 286 187.3 283.5 184.2C283.4 184.3 283.3 184.3 283.2 184.4L289.5 195.8C288.1 196.7 287.4 196.9 286.5 195.2C282.3 187.5 277.8 179.9 273.3 172.5C271.1 168.9 268.4 165.5 265.9 162.1C265.2 161.1 264.6 160.1 264.3 158.9C276.3 167.5 285.1 179.2 293.6 191.3ZM297.3 187.7C289.8 179.4 282.4 171 274.9 162.7C274.6 162.9 274.3 163.2 274 163.4C281.3 171.8 288.7 180.3 296.1 188.7C296.5 188.4 296.9 188 297.3 187.7Z" clip-rule="evenodd" fill="#003AA1" fill-opacity="1.000000" fill-rule="evenodd"/>
	<path id="Shape" d="M295.8 85.8C294.7 79.7002 293.3 73.6001 292.1 67.5C292.073 67.3662 292.061 67.1963 292.061 67.0137C292.061 66.5144 292.154 65.9197 292.3 65.7002C297.7 61.5 303.2 57.3 308.6 53.1001C311 51.2002 313.2 49.2002 315.3 47.5C316.2 60.7002 317 73.8 317.9 86.9001L318.8 87.2002C319.4 86.1001 320.4 85.1001 320.4 84C320.461 81.7695 320.498 79.5391 320.498 77.3103C320.498 68.6475 319.95 60.0105 318.2 51.5C318.1 51 318 50.5 317.8 50C317.444 49.1575 317.255 48.4199 317.255 47.7534C317.255 46.363 318.075 45.2815 319.9 44.2002C322.9 42.5 325.5 39.8 328.3 37.5C331.7 34.8 335.1 32.1001 339 29.1001C339.595 33.1411 340.879 36.9287 342.149 40.6785C343.836 45.6604 345.501 50.5757 345.501 55.9294C345.501 56.0195 345.501 56.1096 345.5 56.2002C345.5 57.1001 345.3 58.1001 344.8 58.7002C340.6 63.5 336.3 68.3 332.1 73.1001C326.3 79.8 320.6 86.6001 314.9 93.3C314.1 94.2002 313.2 95 312.4 95.8C309.1 85.2002 304.9 74.9001 298.7 65.5C300.8 78.5 303 91.5 305.3 105.3C302.4 103.3 300.8 101.9 300.8 98.7002C300.811 98.1223 300.816 97.5452 300.816 96.9688C300.816 86.6665 299.136 76.5437 296.2 66.6001C296.125 67.9578 296.09 69.3125 296.09 70.6658C296.09 77.3552 296.929 84.011 297.792 90.8494C298.142 93.6313 298.497 96.4434 298.8 99.3C295.6 96.5 292.7 93.9001 289.8 91.4001C289.9 91.2002 290 91.1001 290.1 90.9001L291.6 91.8C291.9 91.7002 292.1 91.6001 292.3 91.5C290.2 84.9001 288.2 78.4001 286.1 71.8L285.2 72.1001C286.2 76 287.3 79.9001 288.4 84C285.9 80.9001 283.5 77.9001 281 74.8C284.2 72.3 287.5 69.7002 291.2 66.9001C291.3 77 292.8 86.5 295.3 95.8C295.3 96 295.9 96 296.7 96.2002C296.4 92.6001 296.4 89.1001 295.8 85.8ZM330.6 72.4001C330.5 63.1001 330.5 54.4001 330.4 45.7002C330.8 45.7002 331.2 45.6001 331.5 45.6001C332 48.4001 332.6 51.1001 332.9 53.9001C333.3 58.3 333.4 62.7002 333.7 67C333.723 67.2517 333.735 67.4968 333.735 67.7358C333.735 69.5864 332.991 71.0718 330.6 72.4001ZM326.2 77.7002C325.8 67.7002 325.5 58.3 325.1 48.8C325.5 48.7002 325.8 48.7002 326.2 48.6001C326.7 50.5 327.5 52.4001 327.8 54.4001C328.6 59.9001 329.3 65.5 329.8 71.1001C329.854 71.7603 329.888 72.3025 329.888 72.7644C329.888 74.7434 329.256 75.2495 326.789 77.2273C326.603 77.3762 326.407 77.5332 326.2 77.7002ZM335.4 66.7002C334.7 56.5 334.1 46.3 333.4 36.1001C333.7 36.1001 334 36 334.4 36C334.7 37 335.1 38.1001 335.3 39.1001C336.5 46.9001 337.7 54.7002 338.6 62.6001C338.612 62.6799 338.618 62.7612 338.618 62.8433C338.618 63.7307 337.932 64.7371 337.265 65.7158C336.99 66.1187 336.719 66.5168 336.5 66.9001C336.1 66.8 335.7 66.7002 335.4 66.7002ZM337.8 31.4001C338.7 34.7002 339.8 38 340.6 41.4001C341.7 46.1001 342.6 50.7002 343.5 55.5C343.548 55.7886 343.567 56.0889 343.567 56.3965C343.567 57.0056 343.492 57.6438 343.417 58.2786C343.373 58.6558 343.328 59.032 343.3 59.4001C342.9 59.4001 342.4 59.5 342 59.5C340.3 50.2002 338.7 40.9001 337 31.7002C337.3 31.5 337.5 31.5 337.8 31.4001ZM322.8 81.6001C322 69.5 321.1 57.5 320.3 45.4001C320.6 45.4001 320.9 45.4001 321.2 45.3C322.5 57.4001 323.6 69.4001 323.8 81.6001L322.8 81.6001ZM316.4 90.1001C316.1 90.2002 315.9 90.2002 315.6 90.3C313.2 78.8 310.8 67.4001 308.4 55.9001C311.028 58.5276 316.473 82.905 316.473 89.1218C316.473 89.5298 316.449 89.8599 316.4 90.1001ZM303.7 61.3C306.5 68.5 309.4 75.7002 312 83C313 85.7002 313.6 88.6001 314.3 91.5C314.338 91.6338 314.354 91.7747 314.354 91.9202C314.354 92.3831 314.189 92.8914 314.039 93.3557C313.989 93.5098 313.94 93.6589 313.9 93.8C313.5 93.7002 313.2 93.7002 312.8 93.7002C309.3 83.1001 305.8 72.4001 302.2 61.8C302.8 61.6001 303.3 61.4001 303.7 61.3Z" clip-rule="evenodd" fill="#003AA1" fill-opacity="1.000000" fill-rule="evenodd"/>
	<path id="Shape" d="M67.6001 241.2C69.2001 239.6 70.5 238.5 71.5 237.2C72.1001 236.4 72.6001 235.3 72.5 234.3C71.4 224.8 70 215.4 68.9 205.9C68.8197 205.237 68.7191 204.562 68.6178 203.882C68.2151 201.177 67.801 198.397 68.6001 196C69.2902 193.867 68.9963 192.049 68.6814 190.101C68.4944 188.944 68.3 187.741 68.3 186.4C67.4 187.5 66.9 188.1 66.5 188.7C65.1001 190.9 63.8 193.4 62.1001 195.4C61.3 196.4 59.6001 196.6 58.4 197.3C49.6001 202.4 40.1001 205.8 30.4 208.8C30.5 206.4 31.8 205.4 33.9 204.6C42.8 201.2 51.6001 197.7 60.5 194.2C61.1001 193.9 61.8 193.3 62.1001 192.7C64.2001 188 66.1001 183.3 68.2001 178.4C67.7001 178.6 67.2001 178.7 66.8 178.9C62.5 180.7 58.2001 182.9 53.7001 184.2C50.2001 185.2 48.2001 187.5 45.6001 190.2C51.8 188 57.4 186 63.1001 184C63.1001 184.8 63 185.1 62.8 185.2C56.6001 187.7 50.4 190.5 44 192.7C41.1001 193.7 39.5 195.7 37.6001 197.7C40.2001 196.9 42.7001 196 45.2001 195.1C47.8 194.2 50.4 193.3 53 192.5C55.4 191.7 57.9 191 60.3 190.2C60.4 190.6 60.5 190.9 60.7001 191.3C51.7001 194.8 42.7001 198.4 33.7001 201.9C33.6001 201.7 33.4 201.4 33.3 201.2C33.7001 200.2 34.1001 199.2 34.5 197.9C33.7001 198.1 33.2001 198.2 32.8 198.4C32.9 198.1 33 197.7 33.2001 197.5C40.1001 190.8 47 183.9 54.1001 177.4C59.4 172.6 65.2001 168.4 70.7001 164C70.9 164.2 71.1001 164.5 71.3 164.7C67.1001 168.2 62.9 171.8 58.7001 175.3C58.9 175.6 59 175.8 59.2001 176.1C62.5 174.7 65.9 173.4 69.2001 172L69.5 172.9C66.2001 174.4 63 176.2 59.6001 177.2C56.3 178.2 54.8 180.8 52.4 182.9C52.9 183.2 53.1001 183.3 53.2001 183.3C58.2001 181.4 63.1001 179.5 68.1001 177.6C68.6001 177.4 69.1001 176.8 69.4 176.3C73 169.7 76.5 163.1 80 156.6C70.4 160.3 60.7001 164 51 167.7C50.9 167.5 50.8 167.2 50.7001 167C50.9 166.8 51 166.5 51.2001 166.4C59.5 162.7 67.9 159 76.2001 155.2C79.5 153.7 82.6001 151.8 86.3 149.9C79.2001 147.9 72.9 146.2 66.7001 144.3C60.9 142.5 55.2001 140.4 49.4 138.4C52.5 140.8 55.6001 143.1 58.7001 145.5C62.2001 148.2 65.7001 151 69.2001 153.7C69.8 154.1 70.4 154.6 70.6001 155.5C68.2001 154 65.8 152.6 63.5 151C58.7001 147.6 54 144.2 49.3 140.7C48.6001 140.2 48.2001 139.2 47.6001 138.4C45.9 138.2 44.2001 138.1 42.5 137.9C40.9 137.7 39.3 137.6 37.7001 137.4C37.7001 137.7 37.8 137.9 37.8 138.2C44.2001 143.2 50.7001 148.3 57.1001 153.3C56.9 153.6 56.7001 153.9 56.4 154.1C50.1001 149.4 43.7001 144.7 37.6001 139.8C33.7001 136.7 32.4 136.6 30.2001 140.1C40 145.4 50.2001 150 58.7001 157.5C47.5 153.7 37.5 147.6 27.2001 141.5C25.6044 142.908 24.0088 144.316 22.4957 145.724C22.4639 145.716 22.4319 145.708 22.4 145.7L21.6763 146.424C19.9865 147.565 18.314 148.653 16.8 149.9C12.5 153.3 8.6001 157.2 4 160.1C0.5 162.3 -0.0999756 164.9 0.700073 168.4C3.1001 168.1 5.40002 167.5 7.80005 167.4C20.9 166.8 34 166.3 47.2001 165.8C47.8 165.8 48.5 165.9 49.2001 166.6C47.9 166.9 46.7001 167.2 45.4 167.5C42.8 168.2 40.1001 168.9 37.5 169.6L4.80005 178C3.87024 178.199 2.89624 178.134 1.90759 178.067C1.40759 178.034 0.903809 178 0.400024 178C0.400024 179.6 0.300049 181.2 0.300049 183C1 182.8 1.5 182.7 1.90002 182.6C12.4 179.3 23 176 33.5 172.8C37.6001 171.5 42.1001 171 45.3 167.7C45 168.4 44.7001 169.1 44.5 169.7C45 169.7 45.5 169.8 45.9 169.8C43.9 171 42.1001 172.1 40.2001 173.1L40.5 173.7C47.5 171.4 54.4 169.1 61.4 166.9L61.7001 167.5C60.7001 168.1 59.6001 168.6 58.7001 169.2C56.2001 171 53.4 172.6 51.3 174.8C47.4 178.8 44 183.2 40.2001 187.3C36.4 191.3 32.5 195.1 28.6001 199C28.7001 199.2 28.8 199.3 28.8 199.5C30.1001 199.1 31.4 198.7 32.7001 198.4C32.5 199.4 32.4 200.5 32 201.4C29.4 208 26.7001 214.6 23.9 221.1C23.2001 222.8 23.2001 224.1 24.2001 225.5C24.9 226.5 25.6001 227.5 26.2001 228.3C32.4 224.7 38.5 221.3 44.5 217.7C45.8 216.9 46.7001 215.3 47.8 214.1C47.6001 214 47.5 213.9 47.3 213.8C40.2001 218.1 33.2001 222.4 26.1001 226.7L25.2001 226.1C25.6001 225 25.5 223.3 26.3 222.8C31.7001 219.1 37.2001 215.4 42.8 212C47.4 209.1 52.2001 206.5 56.9 203.8C57.1482 203.635 57.5331 203.743 57.8851 203.842C57.9587 203.862 58.0309 203.883 58.1001 203.9C58.2001 203.9 58.3 204.3 58.3 204.6C58.3336 206.009 58.3896 207.419 58.4456 208.824C58.5564 211.607 58.6665 214.376 58.6001 217.1C58.5 224.9 58.2001 232.7 57.9 240.5C57.8 244 57.4 247.5 57.1001 251.3C59.9 250 60.1001 247.9 60.2001 245.7C60.5 234.1 60.7001 222.6 61 211C61.1001 208.8 61.5 206.6 61.7001 204.3C63.8 218.4 63.4 232.5 61.8 246.8C65.9 243.8 66.6001 242.7 66.3 240.4C66.1001 239 66 237.6 65.9 236.1C65.6001 230.1 65.3 224 65.2001 218C65.1335 214.207 65.1555 210.415 65.1777 206.593C65.1888 204.67 65.2001 202.741 65.2001 200.8L66 200.8C66.5 214 67 227.3 67.6001 241.2ZM21.6763 146.424L21.1001 147C26.9 149.5 32.4 152 38 154.2C43.6001 156.4 49.3 158.2 55.5 160.5C54.9 159.5 54.9 159.2 54.7001 159.1C46.4 155.2 38 151.4 29.6001 147.7C27.4293 146.713 24.869 146.311 22.4957 145.724C22.3969 145.816 22.2982 145.908 22.2001 146L22.3 146C22.092 146.142 21.884 146.283 21.6763 146.424ZM6.20007 159.1C6.30005 159.5 6.30005 159.9 6.40002 160.3C21.6001 161.3 36.8 162.3 52.4 163.2C51.8 162.8 51.5 162.5 51.1001 162.3C40.8 157 29.7001 154.1 18.8 150.6C18.0101 150.313 17.0656 150.644 16.1515 150.965C15.7926 151.091 15.4384 151.215 15.1001 151.3L15.1001 152.7C22.1001 155.3 29.2001 157.8 36.2001 160.4C27 159.8 17.9 159.1 8.80005 158.5C8.21094 158.434 7.66455 158.626 7.1051 158.823C6.80981 158.926 6.51086 159.031 6.20007 159.1ZM26.1001 216.8C26.4 217.2 26.6001 217.7 26.9 218.1C39.2001 211.4 51.5 204.7 63.8 197.9C63.6001 197.6 63.5 197.3 63.3 197C50.6001 203 38.3 209.9 26.1001 216.8Z" clip-rule="evenodd" fill="#003AA1" fill-opacity="1.000000" fill-rule="evenodd"/>
	<path id="Path" d="M134.3 172.1C134.1 172.3 133.89 172.5 133.7 172.7C134 172.5 134.2 172.3 134.3 172.1Z" fill="#003AA1" fill-opacity="1.000000" fill-rule="nonzero"/>
	<path id="Shape" d="M129.1 123.6C129.9 125.2 130 127.2 130.3 129C132.7 141.5 133.7 154.2 134.1 166.9C134.133 167.528 134.243 168.179 134.349 168.811C134.565 170.091 134.769 171.297 134.3 172.1C142.5 164.5 151.5 156 161.1 147.1C160 147.4 159.6 147.5 159.1 147.7C159 132.6 158.8 117.6 158.7 102.5C158.7 102.5 158.5 102.6 158.2 102.7C158.037 102.7 157.863 102.711 157.686 102.721C157.319 102.744 156.937 102.767 156.6 102.7C150.2 101.9 145.3 104.5 141 109.2C138.2 112.3 134.6 114.7 131.4 117.4C131.311 117.474 131.221 117.549 131.131 117.623C129.401 119.053 127.579 120.559 129.1 123.6ZM142.4 113C144.3 118.7 146.4 124.3 148 130C149.6 135.8 150.8 141.7 152.2 147.5L152.6 147.5C151.8 134.4 151.1 121.3 150.3 108.1C150.7 108.1 151 108 151.4 108C152.5 117 153.6 126.1 154.8 135.4C155.5 128.6 156.1 122.2 156.7 115.7L157.3 115.7C157.4 117.7 157.7 119.6 157.7 121.6C157.8 127.3 157.8 132.9 157.7 138.6C157.7 141.4 157.5 144.2 157.3 147C157.1 149.7 154.5 152.9 150.9 154.8C147.1 141 143.1 127.4 141.6 113.3C141.8 113.2 142.1 113.1 142.4 113ZM148.4 155.8C145.8 145.4 143.3 135.1 140.6 124.8C139.8 121.7 138.4 118.8 137.3 115.9C138.9 130.4 143.3 144.2 147 158.1C147.3 158.1 147.7 158.2 148 158.2C148.048 158.009 148.107 157.811 148.167 157.612C148.357 156.98 148.552 156.333 148.4 155.8ZM137.9 131.2C137.1 126.6 135.8 122 134.8 117.4C134.5 117.4 134.2 117.5 133.9 117.5C136 133.3 138.2 149.1 140.3 164.9C140.6 165 140.9 165 141.2 165.1C141.31 164.716 141.449 164.325 141.59 163.93C141.964 162.885 142.345 161.816 142.2 160.8C140.9 150.9 139.5 141 137.9 131.2ZM135.5 170.2C137.4 167.4 136.4 145.4 134.3 142C134.7 151.2 135.1 160.3 135.5 170.2ZM143.5 161.2C143.4 157.6 143.3 154.6 143.3 151.4C145.2 154.4 145.5 159.2 143.5 161.2Z" clip-rule="evenodd" fill="#003AA1" fill-opacity="1.000000" fill-rule="evenodd"/>
	<path id="Shape" d="M265.5 92.4001C277 97.8 286.6 106 296.4 113.8C293.9 108.8 288.5 107 284.6 103.6C280.4 100 276.2 96.4001 272.1 92.8C272.3 92.6001 272.4 92.4001 272.6 92.2C280.8 96.7 288.2 102.3 295.6 108.1C295.7 105.2 295.1 104.1 292.9 102.7C292.2 102.2 291.4 101.7 290.7 101.1C287.5 98.5 284.5 95.7 281.2 93.2C277.5 90.5 274.3 87.2 271.9 83C280.1 86.6001 286.3 92.2 292.7 97.8C288.3 91.1001 280.7 87 278 79C280.3 80.7 282.6 82.3 284.6 83.8C283.2 81.4001 281.7 78.7 280 75.8C274.4 80.1001 268.9 84.3 263.4 88.7C262.8 89.1001 262.6 90.3 262.6 91.1001C262.8 95 263.3 98.8 263.3 102.6C263.1 114.4 262.7 126.1 262.3 137.7C267.1 138.4 272 139.1 276.9 139.7C274.8 138.9 272.8 137.9 270.6 137.2C268.7 136.6 266.8 136.4 264.9 136.1C264.9 135.9 265 135.6 265 135.4C266.2 135.5 267.3 135.5 269.1 135.6C267.7 134.6 266.7 133.9 265.8 133.2C265.9 133 265.9 132.9 266 132.7C268.4 133.7 270.8 134.7 273.8 135.9C270.5 132.9 267.6 130.3 264.7 127.6C271.8 130.3 277.5 135 283.4 139.8C281.5 139.9 279.8 140 278.2 140C281.048 140.38 283.986 140.76 286.843 141.054C286.963 141.135 287.082 141.217 287.2 141.3C287.149 141.225 287.097 141.149 287.045 141.074C287.13 141.083 287.215 141.092 287.3 141.1C289 141.3 290.7 141.6 292.4 141.8C283.3 133.2 273.2 126.1 265.2 116.8C265.3 116.6 265.5 116.4 265.6 116.2C267.7 117.6 269.9 119 272.1 120.5C271.6 119.7 271.3 119.1 270.6 118C271.9 118.4 272.7 118.6 274.3 119.1C271.2 117 268.7 115.3 266.2 113.6C277.6 116.6 287.6 122.4 297.8 127.9C298.353 125.598 296.785 124.992 295.362 124.441C295.24 124.394 295.119 124.347 295 124.3C290.9 122.5 286.6 120.9 282.6 118.8C277.5 116.1 272.6 113 267.6 110C267.7 109.7 267.9 109.5 268 109.2C278.3 111.5 287.4 116.9 297 120.9C291.6 117.7 286.2 114.7 280.7 111.8C275.2 109 269.7 106.2 264.2 103.5C264.4 103.2 264.5 102.9 264.7 102.6C276.3 105.9 286.8 111.6 296.9 118C286.5 109.6 274.4 103 265.5 92.4001ZM287.045 141.074C281.751 133.401 274.13 128.343 267 122.5C267.9 124.1 268.8 125.6 270.1 126.8C273.8 130.3 277.4 133.8 281.2 137.1C282.894 138.605 284.941 139.757 286.843 141.054C286.911 141.061 286.978 141.068 287.045 141.074Z" clip-rule="evenodd" fill="#003AA1" fill-opacity="1.000000" fill-rule="evenodd"/>
	<path id="Path" d="M85.6 91C76.6 96.2 67.5 101.3 58.1 106.7C60.9 106.9 63.2 107.1 65.5 107.2C66.1 107.2 66.69 107.1 67.3 106.8C73.9 103 80.5 99.1 87.2 95.5C89.9 94 92.9 93.2 95.8 92.1C96 92.5 96.2 92.89 96.5 93.39C90.4 97.6 84.2 101.7 79 105.3C85 103.4 92 101.1 99 98.89C99.1 99.1 99.2 99.39 99.3 99.6C97.89 100.5 96.6 101.3 94.6 102.6C101.9 99.89 108.3 97.5 114.8 95.2C114.9 95.5 115 95.7 115.1 96C104.3 102.9 92.5 107.8 80.5 112.7C82.6 113.1 84.9 113.6 86.6 112.8C96.8 108.4 106.9 103.8 116.9 99.2C119.4 98 121.9 96.8 124.4 95.6C123.8 95.6 123.2 95.8 122.6 95.7C117.4 94.7 112.3 93.7 107.2 92.8C102.7 91.89 98.2 91.39 94.2 88.39C88.5 84.1 82.2 80.6 76.5 77C66.1 87.7 54.9 97 43.5 106.2C50.1 103 55.5 98.1 61.4 93.8C67.3 89.5 73.5 85.39 79.5 81.19C79.69 81.39 79.9 81.69 80 81.89C73.5 87 67 92.2 61 97.1C68.1 93.2 75.6 89.1 83.2 84.89C83.5 85.3 83.7 85.7 84 86.2C73.9 92.89 63.7 99.7 53.6 106.4C53.6 106.5 53.7 106.5 53.7 106.6C64.19 101.1 74.69 95.7 85.2 90.2C85.3 90.5 85.4 90.8 85.6 91Z" fill="#003AA1" fill-opacity="1.000000" fill-rule="nonzero"/>
	<path id="Path" d="M153.89 96.5C152.5 87.6 151.1 79 149.7 70.2C149.1 77.7 149.39 85.2 146.3 92C146 92 145.7 92 145.39 92C145.2 86 145.1 79.9 144.89 73.5C144.39 76 143.89 78 143.39 80.1C142.89 82.1 142.5 84.1 141.89 86C141.39 87.9 140.7 89.8 140.1 91.7C139.7 91.6 139.39 91.5 139 91.4C141 82.7 142.8 74 144.89 65.4C146.1 60.6 146 59.1 143.2 56.6C140.5 66.8 137.7 77 134.89 87.2C134.6 87.1 134.2 87.1 133.89 87C134.3 84.5 134.39 82 135 79.6C137 71.5 139.1 63.4 141.3 55.3C142.2 51.8 139.1 47.4 135.7 47.7C134.8 61.9 134 76.1 130.89 90.1C130 75.9 131.89 61.9 134 48C131.89 48 130 48 128.3 48C128.8 62.8 129.2 77.9 129.7 93.3C137.6 94.4 145.8 95.5 153.89 96.5Z" fill="#003AA1" fill-opacity="1.000000" fill-rule="nonzero"/>
	<path id="Path" d="M263.7 52.2C270 55.2 276.4 58.09 282.5 61.59C284.79 62.89 286.1 62.5 287.79 61.2C293.4 56.7 299.1 52.2 304.29 48.09C292.4 41.2 280.29 34.2 268.29 27.2C276.4 34.3 284.2 41.7 290.9 50.7C290.1 50.59 289.7 50.7 289.4 50.5C285.1 47 280.7 43.7 276.5 40C272.9 36.8 269.7 33.2 266.2 29.89C265.7 29.39 264.7 29.5 263.9 29.39C263.79 29.7 263.7 30 263.6 30.39C271.6 37.59 280.4 44.09 286.7 53C286.5 53.2 286.4 53.5 286.2 53.7C282.79 51.5 279.4 49.2 276 47C275.9 47.09 275.79 47.09 275.79 47.2C278.29 49.7 280.7 52.09 283.2 54.59C283.1 54.8 282.9 54.89 282.79 55.09C272.5 49.7 263.29 42.59 254.8 34.59C253.2 35.5 251.7 36.39 250 37.5C261.29 44.7 272.7 50.8 282.79 59.3C282.2 59.5 282.1 59.59 282 59.5C271.7 55 262.1 49.39 253.1 42.7C247.5 38.5 247.7 38.3 242.3 41.7C242.2 41.8 242.2 42 242.1 42.2C249.2 45.39 256.5 48.7 263.7 52.2Z" fill="#003AA1" fill-opacity="1.000000" fill-rule="nonzero"/>
	<path id="Path" d="M229.7 75.89C237.2 80.19 244.9 84.09 252.8 88.29C256.6 85.39 260.7 82.09 264.6 79C258.5 72.89 252.7 67.09 246.8 61.2C246.7 61.29 246.7 61.29 246.6 61.39C248.1 63.59 249.6 65.79 251.2 68C251 68.19 250.8 68.39 250.7 68.59C241.7 59.5 229.3 55.59 219.7 47.39C219.4 47.79 219.1 48.09 218.8 48.5C219.8 49.79 220.7 51.29 221.9 52.29C223.5 53.59 225.6 54.39 227.3 55.59C233.9 60.09 240.5 64.59 247 69.19C248.6 70.29 250 71.69 251.5 72.89C251.4 73.09 251.2 73.29 251.1 73.59C246.1 70.69 240.9 68 236 65C231 61.89 226.3 58.59 221.4 55.29C221.5 56.7 221.9 58 222.7 58.5C231.3 64 239.9 69.39 248.5 74.89C251.3 76.69 253.9 78.89 256.6 80.89C256.5 81.09 256.29 81.29 256.2 81.5C244.7 76.39 233.9 69.89 223.3 62.59C223.5 65.5 224.4 67.29 227 68.39C232.4 70.89 237.7 73.59 242.9 76.39C246 78 249 80 252 81.69C251.8 82 251.6 82.39 251.5 82.7C243 78.59 234.6 74.5 226.1 70.5C226.9 72.59 228 74.89 229.7 75.89Z" fill="#003AA1" fill-opacity="1.000000" fill-rule="nonzero"/>
	<path id="Path" d="M238.6 113C240.9 109.5 243.6 106.3 246.1 103C246.4 103.2 246.7 103.4 247 103.6C242 112.2 237 120.8 232.1 129.1C234.2 128.5 236.2 127.1 237.4 124.4C239.1 120.5 241.2 116.8 243.2 113C244.1 111.4 245.1 109.8 246.1 108.2C247 106.7 248 105.3 249 103.8C249.3 103.9 249.5 104.1 249.8 104.2C246.8 111 243.8 117.9 240.8 124.7C242.1 123.9 243.1 122.8 243.7 121.6C247 114.5 250.1 107.4 253.5 100.3C254.4 98.39 255.8 96.7 257 95C255.3 104.8 250.8 113.3 246.9 122.1C247.9 121.5 248.7 120.8 249.2 119.9C250.2 117.9 251 115.8 251.9 113.8C253.3 110.6 254.8 107.4 256.29 104.2C256.5 104.3 256.79 104.4 257 104.5C254.9 109.8 252.7 115.1 250.4 120.6C253.5 119.6 256.29 118.7 259.2 117.7C259.29 109.2 259.5 100.7 259.6 91.7C258.6 92.39 258.1 92.7 257.6 93C253.2 96 249.4 99.89 243.6 100.1C241.7 100.1 239.8 100.1 237.9 100.1C237.9 100.7 238.1 101.4 237.9 101.9C235.5 110.4 232 118.4 227.6 126C225.9 128.89 225 131.39 225.8 134.6C225.9 135 226 135.39 226 135.7C226.4 134.2 226.5 132.39 227.2 131.2C230.7 125.1 234.6 119 238.6 113Z" fill="#003AA1" fill-opacity="1.000000" fill-rule="nonzero"/>
	<path id="Path" d="M123.1 97.5C115 101.7 106.9 105.8 98.7 109.8C95.3 111.4 91.8 112.7 87.9 114.3C91.2 115.7 93.6 115.7 96.4 114.3C104.7 110.1 113.2 106.3 121.6 102.4C122.5 102 123.4 101.7 124.2 101.4C124.3 101.6 124.4 101.9 124.5 102.1C115.3 107 106.1 111.9 96.8 116.8C98 117.2 99.2 117.3 100.1 116.8C108 112.9 115.9 108.7 123.8 104.8C127.1 103.2 130.7 101.9 134.2 100.5C134.39 100.9 134.5 101.2 134.7 101.6C123.9 107.2 113.2 112.9 102.4 118.5C104.1 119.2 105.7 119.6 107.9 118.5C115.5 114.9 123.2 111.5 131.1 108.4C136.2 106.4 140.8 104 144 98.7C142.8 98.5 142 98.39 141.1 98.29C135.5 97.29 129.89 96.39 124.3 95.39C124 96.2 123.7 97.2 123.1 97.5Z" fill="#003AA1" fill-opacity="1.000000" fill-rule="nonzero"/>
	<path id="Path" d="M13.2 29.4C15.2 31 17.2 32.7 19.1 34.5C26.2 41.2 33.2 48 40.2 54.8C41 55.6 41.5 57.1 42.4 57.4C44.8 58 47.3 58.1 50.1 58.4C48.3 54.2 46.7 50.6 45.1 46.9C44.9 47 44.7 47.1 44.5 47.2C44.4 48.1 44.4 49 44.3 49.9C43.6 49.7 43.4 49.4 43.3 49.1C41.3 45.2 39.7 41.1 37.3 37.5C32.5 30.2 27.3 23.3 22.2 16.2C20.9 14.3 19.5 12.4 18.1 10.6C17.79 10.7 17.6 10.7 17.29 10.8C17.1 12.6 16.29 14.6 16.9 16C17.6 17.79 19.4 19.2 20.7 20.8C22.8 23.2 25 25.4 26.9 27.9C28.4 29.9 29.6 32.1 31 34.3C30.7 34.5 30.5 34.8 30.2 35C25.2 30 20.2 25 15.1 19.9C14.7 20.2 14.3 20.5 14 20.8C14.4 21.5 14.7 22.4 15.2 23C19.6 27.5 24.2 31.7 28.4 36.3C31.7 39.9 34.5 43.8 37.5 47.6C37.3 47.8 37.09 47.9 37 48.1C27.9 41.7 20.2 33.8 13 25.3C11.6 27 11.6 28.2 13.2 29.4Z" fill="#003AA1" fill-opacity="1.000000" fill-rule="nonzero"/>
	<path id="Path" d="M51.6 238.7C52 234.9 52.4 231.1 52.9 226.5C49.9 235.7 47.2 244.1 44.4 252.5C44 252.4 43.7 252.4 43.3 252.3C44.8 247.2 46.2 242.1 47.9 237C49.5 231.9 51.5 227 53 221.8C54.4 216.9 55.4 211.9 56.6 207C56.3 206.9 56 206.9 55.7 206.8C52.6 221.3 47.5 235 41.2 248.7C40.59 247.9 40.09 247.6 40.2 247.4C44.7 234.3 49.3 221.3 53.7 208.8C53.5 209 52.4 209.7 52 210.6C48.5 217.5 45.2 224.6 41.5 231.5C39.8 234.6 37.59 237.5 35.59 240.5C35.2 240.3 34.9 240.1 34.5 239.9C35.4 235.6 37.9 231.9 39.59 227.9C36.59 230.2 33.59 232.5 30.5 234.9C35.9 243 41.6 251.6 47.3 260.2C47.6 260.2 47.9 260.2 48.1 260.29C48.6 259 49.3 257.7 49.4 256.29C50.4 250.4 51 244.5 51.6 238.7Z" fill="#003AA1" fill-opacity="1.000000" fill-rule="nonzero"/>
	<path id="Path" d="M260.29 68.4C255.2 63.1 250.4 57.5 245.4 52.1C244.7 51.3 243.8 50.8 243 50.1C243 50.2 242.9 50.2 242.9 50.3C250.7 59.4 258.4 68.5 266.29 77.8C272.2 73.2 278.29 68.4 284 63.9C276.5 60.3 268.9 56.8 261.4 53.2C260.7 52.8 259.1 52.8 259.7 51.2C258.29 51.2 257 51.1 254.9 51C261.6 56 266.4 61.5 271.2 67.2C267.29 64.8 263.7 62.1 260.2 59.2C258.29 57.6 256.4 55.8 255 53.7C253.3 51 251.2 50.1 247.9 50.9C251.6 54.6 255.2 58 258.6 61.6C261.9 65.2 264.79 69.2 267.9 73C267.6 73.3 267.4 73.5 267.1 73.8C264.9 72 262.29 70.5 260.29 68.4Z" fill="#003AA1" fill-opacity="1.000000" fill-rule="nonzero"/>
	<path id="Path" d="M161.2 102.1C161.5 116.9 161.89 131.39 162.2 145.89C162.39 145.89 162.6 146 162.8 146C163.3 141.8 163.8 137.7 164.3 133.5C164.5 133.5 164.7 133.5 164.9 133.5C165.1 136.5 165.3 139.6 165.6 142.7C166.9 141.39 168 140.3 169.2 139.1C168.2 138.8 167.4 138.5 166 138C167.3 137.39 168.1 137.1 169 136.7C168.3 135.39 167.8 134.2 167.1 132.8C167.3 132.2 168.1 131.2 168 130.3C167.8 126.5 167.1 122.7 167 119C166.9 114.6 167.1 110.2 167.2 105.7C167.5 105.7 167.9 105.6 168.2 105.6C168.8 107.7 169.3 109.9 169.9 112C172.6 109 175.1 106.1 177.7 103.2C178 103.4 178.2 103.7 178.5 103.9C175.7 107.7 172.9 111.4 170.2 115.2C170.4 115.4 170.6 115.5 170.8 115.7C171.5 114.8 172.3 113.8 173 112.9C174.9 110.6 176.8 108.3 178.8 106.2C180.4 104.5 182.3 102.9 184 101.3C183.2 101.5 182.5 101.8 181.7 101.8C174.6 101.9 167.5 102 161.2 102.1Z" fill="#003AA1" fill-opacity="1.000000" fill-rule="nonzero"/>
	<path id="Path" d="M306.9 46C309.2 44.3 312.2 42 315.29 39.7C305.5 34.5 297.9 27.3 290.7 19.4C291.6 19.1 292.2 18.9 292.9 18.7C288.4 17.5 283.9 16.79 280.1 20.7C290.4 27.7 300.7 34.7 311 41.6C310.9 41.8 310.9 42.1 310.79 42.3C309.1 42 307.29 42 305.79 41.3C295.29 36.1 284.9 30.8 274.5 25.5C274.2 25.4 274.29 24.5 274.29 24L274.4 23.9C274.4 23.9 274.29 23.9 274.29 23.8L274.29 23.9C273.29 24.3 272.4 24.8 271.5 25.2C283.2 32.1 294.79 38.9 306.9 46Z" fill="#003AA1" fill-opacity="1.000000" fill-rule="nonzero"/>
	<path id="Path" d="M293 18.59C292.9 18.59 292.9 18.59 292.79 18.7C292.9 18.7 292.9 18.7 293 18.7L293 18.59Z" fill="#003AA1" fill-opacity="1.000000" fill-rule="nonzero"/>
	<path id="Path" d="M117.9 122.4C120.3 120.4 122.9 118.6 125.2 116.5C127.4 114.5 129.5 112.3 130.6 111.1C124.6 114 117.5 117.4 110.1 120.9C112.2 121.9 114 122.6 116.2 123.6C111.6 123.4 107.7 123.2 103.8 122.9C103.6 122.9 103.2 122.8 103.1 122.7C101.2 120.2 98.3 120.9 95.7 120.4C95.8 120.5 95.9 120.5 96 120.6L96 120.8C94.5 121.2 93.1 121.5 91.1 122C96 123.5 100.3 124.8 104.6 126.1C104.5 126.4 104.5 126.6 104.4 126.9C100.9 126.3 97.5 125.8 94 125.2C90.5 124.6 87 123.5 83.5 123.5C80.1 123.5 76.6 124.5 73.2 125.1C73.2 125.4 73.2 125.6 73.2 125.9C82.1 127 91 128.1 99.4 129.1C98.6 129.3 97.3 129.5 95.3 129.89C98.8 130.8 101.6 131.6 104.4 132.1C105.3 132.3 106.5 132 107.2 131.5C110.7 128.6 114.2 125.5 117.9 122.4Z" fill="#003AA1" fill-opacity="1.000000" fill-rule="nonzero"/>
	<path id="Path" d="" fill="#003AA1" fill-opacity="1.000000" fill-rule="nonzero"/>
	<path id="Path" d="M120.1 63.7C117.5 72.59 114.8 81.59 112.2 90.59C117.2 91.29 122.4 92.09 127 92.7C126.4 83.5 125.6 74.59 125.4 65.59C125.3 60.29 126.1 54.89 126.4 49.5C126.4 48.79 126 48.09 125.8 47.39C125.6 47.5 125.3 47.5 125.1 47.59C123.7 68.19 119.9 81.39 117.7 85.39C118.5 78.19 119.3 70.89 120.1 63.7Z" fill="#003AA1" fill-opacity="1.000000" fill-rule="nonzero"/>
	<path id="Path" d="M151.5 70.3C152.89 79.5 154.2 88.1 155.6 97.4C161.3 97 167.3 96.6 172.5 96.3C166 85.4 159.2 73.8 152.3 62.3C152.5 63.8 152.39 65.5 153.1 66.8C156 72 159.3 76.9 162 82.2C164.2 86.3 165.8 90.6 167.6 94.8C167.3 94.9 167 95.1 166.7 95.2C159.2 88.7 155.5 79.8 151.5 70.3Z" fill="#003AA1" fill-opacity="1.000000" fill-rule="nonzero"/>
	<path id="Path" d="" fill="#003AA1" fill-opacity="1.000000" fill-rule="nonzero"/>
	<path id="Path" d="M66.3 135.39C76.6 136.39 86.9 137.5 97.2 138.39C98.2 138.5 99.39 138.2 100.1 137.7C101.7 136.5 103.1 135.1 104.6 133.7C101.6 133.3 98.8 132.8 95.9 132.5C91.6 132 87.4 131.3 83.1 131.39C77 131.5 71 132.39 64.9 132.8C60.6 133.1 56.4 133.3 52.1 133.6C52 133.8 52 133.89 51.9 134.1C53 134.5 54 134.89 55.1 135.3C54.8 135.1 54.6 134.8 54.1 134.39C58.5 134.7 62.4 135 66.3 135.39Z" fill="#003AA1" fill-opacity="1.000000" fill-rule="nonzero"/>
	<path id="Path" d="M40.6 177.3C38.3 178.3 35.6 179 33.7 180.6C29.3 184.3 25.2 188.4 21 192.4C17.4 195.7 13.7 199 10.1 202.4C10.2 202.6 10.3 202.9 10.4 203.1C11.9 202.6 13.6 202.5 14.8 201.6C17.4 199.6 19.79 197.2 22.3 195C27.9 190.2 33.4 185.4 39 180.6C40.1 179.7 41.4 179.1 42.5 178.3C42.6 178.5 42.8 178.7 42.9 178.9C35.3 186.1 27.6 193.2 20 200.4C20.2 200.7 20.29 201 20.5 201.3C22.3 200.3 24.4 199.6 25.7 198.3C31.5 192.6 36.9 186.5 42.6 180.8C45.1 178.2 48 176 50.7 173.6C47.1 174.4 43.8 175.9 40.6 177.3Z" fill="#003AA1" fill-opacity="1.000000" fill-rule="nonzero"/>
	<path id="Path" d="M259.1 130C249.6 138.39 239 144.39 227.7 149.7C227.9 150.6 228.1 151.5 228.4 152.5C234.6 147.8 240.8 143.6 248 141C242.5 145.7 236.8 150.1 230.7 154C228.6 155.39 228.7 156.5 229.2 158.6C238.5 150.3 247.1 141.8 257.9 135.1C257.5 136.1 257.5 136.6 257.2 137C249.6 144.7 242.1 152.5 233.3 158.89C231.7 160 228.1 160.89 230.6 165.2C235.3 160.5 239.7 155.8 244.3 151.5C248.5 147.6 253.1 144.2 257.5 140.5C258.29 139.8 259.4 138.7 259.5 137.8C259.7 135.2 259.29 132.7 259.1 130Z" fill="#003AA1" fill-opacity="1.000000" fill-rule="nonzero"/>
	<path id="Path" d="M63.5 140.39C66.3 141 69 141.8 71.69 142.7C76 144.2 80.19 145.8 84.5 147.3C85.5 147.7 87.1 148.2 87.7 147.7C90.7 145.5 93.4 143.1 96.1 140.8C88 140.2 79.8 139.7 71.8 138.8C66.3 138.1 60.5 138.6 55.5 135.39C57.6 137.8 60.2 139.6 63.5 140.39Z" fill="#003AA1" fill-opacity="1.000000" fill-rule="nonzero"/>
	<path id="Path" d="M55.3 135.3C55.3 135.39 55.4 135.39 55.4 135.39C55.4 135.3 55.4 135.3 55.3 135.3Z" fill="#003AA1" fill-opacity="1.000000" fill-rule="nonzero"/>
	<path id="Path" d="M259.4 118.8C253.3 122.2 247.7 125.3 242.2 128.39C244.5 128.2 246.6 127.7 248.8 127.3C250.7 127 252.6 126.9 254.5 126.8C245.9 133.39 237.2 139.5 226.9 143.3C227 144.2 227.3 145.7 227.4 146.8C237.9 140.7 248.3 134.5 258.4 128.7C258.7 125.6 259 122.3 259.4 118.8Z" fill="#003AA1" fill-opacity="1.000000" fill-rule="nonzero"/>
	<path id="Path" d="M25.9 182.9C17.6 187.6 9.3 192.3 1 197.1C0.59 197.4 0.19 198.1 0.09 198.6C0 200.7 0 202.7 0 204.7C3.69 204.7 6.4 203.4 8.69 200.8C11.4 197.7 14.4 195 17.29 192.1C18.79 190.6 20.29 189.2 21.8 187.8C23.6 186.2 25.4 184.6 27.2 183C26.6 182.8 26.2 182.8 25.9 182.9Z" fill="#003AA1" fill-opacity="1.000000" fill-rule="nonzero"/>
	<path id="Path" d="M323.9 33.5C328 29.89 332.3 26.59 336.5 23.09C338.4 21.59 340.1 19.89 341.9 18.29C341.8 18.2 341.7 18 341.7 17.89C338.9 19 336.2 20 333.4 21.09C333.8 21.79 334.1 22.29 334.3 22.59C332.5 22.5 330.9 22.39 328.6 22.29C329.4 23.5 329.7 24 330 24.5C327.1 24 324.5 23.39 321.79 22.89C321.7 23.09 321.6 23.29 321.5 23.5C323.4 25.39 325.29 27.29 327.2 29.2C327 29.39 326.9 29.59 326.7 29.89C324.6 28.59 322.4 27.5 320.29 26.09C317.1 23.89 314.5 20.59 309.9 21.5C313.5 25.5 317 29.39 320.6 33.29C321.7 34.5 322.5 34.7 323.9 33.5Z" fill="#003AA1" fill-opacity="1.000000" fill-rule="nonzero"/>
	<path id="Path" d="M77.69 121.8C73 120.5 68.1 119.5 63.5 117.6C58 115.3 52.8 115.1 47.4 117.8C47.2 117.9 47 117.9 46.9 118C46.4 118.4 46 118.8 45.5 119.3C46 119.6 46.4 120.1 46.9 120.3C57.2 122.4 67.19 125.6 77.69 121.8Z" fill="#003AA1" fill-opacity="1.000000" fill-rule="nonzero"/>
	<path id="Path" d="M88.4 118.2C83 116.7 78 113.5 72.8 113.9C71.8 113 71.19 112.2 70.4 111.9C65.69 110.2 62.1 113.7 58 114.5C61.4 115.5 64.8 116.3 68.3 116.9C77.3 118.4 85.9 122.5 95.3 120.4C93 119.8 90.6 119.3 88.3 118.7C88.3 118.6 88.4 118.2 88.4 118.2Z" fill="#003AA1" fill-opacity="1.000000" fill-rule="nonzero"/>
	<path id="Path" d="M95.5 120.4C95.4 120.3 95.4 120.3 95.3 120.4C95.3 120.4 95.4 120.4 95.5 120.4Z" fill="#003AA1" fill-opacity="1.000000" fill-rule="nonzero"/>
	<path id="Path" d="M237.4 95.2C244.3 95.4 247.2 94.2 250 89.9C243.7 87 237.4 84.1 231.1 81.1C233.2 85.9 235.3 90.6 237.4 95.2Z" fill="#003AA1" fill-opacity="1.000000" fill-rule="nonzero"/>
	<path id="Path" d="M31.6 53.9C33.6 55.5 35.4 58.5 38.6 57C29.4 48.3 20.2 39.5 10.9 30.6C10.3 32.3 9.7 34 9.1 35.7C10.2 36.3 11.1 36.7 11.8 37.3C18.4 42.9 24.9 48.5 31.6 53.9Z" fill="#003AA1" fill-opacity="1.000000" fill-rule="nonzero"/>
	<path id="Path" d="M5.7 45.5C4.4 49.39 3.1 53.1 2.2 55.89C9.2 56 16.1 56.2 23 56.3C17.29 52.8 11.6 49.2 5.7 45.5Z" fill="#003AA1" fill-opacity="1.000000" fill-rule="nonzero"/>
	<path id="Path" d="M0 189.1C7.19 186.4 14.2 184.1 21 181.2C27.1 178.5 34 177.5 38.8 172.7C26.2 176.6 13.2 180.6 0.4 184.6C0.3 185.8 0.19 187.3 0 189.1Z" fill="#003AA1" fill-opacity="1.000000" fill-rule="nonzero"/>
	<path id="Path" d="M30.7 56.5C23.3 50.29 15.9 44.2 8.4 37.89C7.8 39.59 7.3 41.2 6.9 42.2C11.5 45.59 15.8 48.79 20.29 51.79C23.4 54 25.6 58.39 30.7 56.5Z" fill="#003AA1" fill-opacity="1.000000" fill-rule="nonzero"/>
	<path id="Path" d="M57.1 20.7C57.2 22.8 56.9 24.89 56.8 27C57.1 27 57.5 27 57.8 27.1C59.5 18.1 61.2 9.1 62.9 0C60.4 0.3 58.1 0.6 55.8 0.89C56 1.39 56.3 1.8 56.3 2.3C56.6 8.5 56.9 14.6 57.1 20.7Z" fill="#003AA1" fill-opacity="1.000000" fill-rule="nonzero"/>
	<path id="Path" d="M235.6 95.5C233 90.09 230.6 85 228.1 80.09C227.3 78.59 225.9 77.5 224.8 76.19C224.6 76.39 224.4 76.59 224.2 76.8C225.6 83.09 226.9 89.39 228.3 95.8C230.8 95.7 233.3 95.59 235.6 95.5Z" fill="#003AA1" fill-opacity="1.000000" fill-rule="nonzero"/>
	<path id="Path" d="M71.4 7C69 4.59 67 2.5 64.6 0.19C63.4 7.3 62.3 14 61.1 21.2C64.8 16.09 68.1 11.5 71.4 7Z" fill="#003AA1" fill-opacity="1.000000" fill-rule="nonzero"/>
	<path id="Path" d="M225.8 74.19C225.5 73.5 225.3 72.9 225 72.4C220.7 65.69 216.2 59.2 212.1 52.4C210.9 50.4 209.6 50.4 207.8 50.7C211.5 57.8 215.1 64.8 218.7 71.69C218.9 71.6 219.1 71.5 219.3 71.4C218.5 68.3 217.7 65.1 217 62C217.2 61.9 217.5 61.8 217.7 61.7C219.6 65.5 221.6 69.3 223.5 73.1C223.3 73.19 223.1 73.3 222.9 73.4C223.8 73.69 224.7 73.9 225.8 74.19Z" fill="#003AA1" fill-opacity="1.000000" fill-rule="nonzero"/>
	<path id="Path" d="M26.6 169.7C26 169.3 25.4 169.2 24.9 169.3C17.9 169.5 10.9 169.8 3.8 170C2.8 170 1.8 169.6 0.7 169.4C0.5 171.8 0.4 174.2 0.2 176.7C3.6 175.7 6.9 174.5 10.3 173.6C15.7 172.2 21.2 171 26.6 169.7Z" fill="#003AA1" fill-opacity="1.000000" fill-rule="nonzero"/>
	<path id="Path" d="M60.6 130.39C62.7 130.2 64.8 129.89 67 129.7C69 129.5 71.1 129.39 73.6 129.3C63.5 124.5 53.8 128.6 44.1 129.1C45.8 130 47.5 131.5 49.2 131.5C53 131.5 56.8 130.8 60.6 130.39Z" fill="#003AA1" fill-opacity="1.000000" fill-rule="nonzero"/>
	<path id="Path" d="M56.6 34.8C56.2 35.3 55.3 35.8 55.3 36.3C55.3 37.5 55.8 38.6 56.1 39.9C59.3 34.9 62.4 30 65.6 25.3C68.8 20.5 72.1 15.8 75.4 11C74.8 10.4 74.2 9.8 73.7 9.3C69.1 16.2 64.6 23.1 60.1 29.9C59 31.5 57.8 33.2 56.6 34.8Z" fill="#003AA1" fill-opacity="1.000000" fill-rule="nonzero"/>
	<path id="Path" d="M111 54.5C108.4 57.3 108.2 60.3 109.4 63.8C113.1 58.4 116.7 53.3 120.4 48C116.8 47 114.4 47.6 113.1 50.8C112.6 52.1 112 53.4 111 54.5Z" fill="#003AA1" fill-opacity="1.000000" fill-rule="nonzero"/>
	<path id="Path" d="M219.1 44.7C224.3 48.2 229.8 51.2 234.9 54.3C230.3 48.1 225.7 41.6 216.5 39.6C217.5 41.5 217.8 43.8 219.1 44.7Z" fill="#003AA1" fill-opacity="1.000000" fill-rule="nonzero"/>
	<path id="Path" d="M89.2 209.9C88.5 208.2 88.1 207.1 87.6 206C87.4 206.1 87.1 206.2 86.9 206.2C89.4 214.4 91.8 222.5 94.3 230.7C94.7 230.6 95.1 230.6 95.5 230.5C94.7 221.4 91.3 212.7 89.9 203.7C89.8 205.5 89.5 207.4 89.2 209.9Z" fill="#003AA1" fill-opacity="1.000000" fill-rule="nonzero"/>
	<path id="Path" d="M318.2 37.6C316.2 36.1 314.5 35 312.9 33.6C309.2 30.4 305.1 27.5 302.2 23.7C299.7 20.4 297.2 18.4 293.2 18.6C300.79 25.2 308.4 31.9 316.2 38.7C316.4 38.6 317.1 38.2 318.2 37.6Z" fill="#003AA1" fill-opacity="1.000000" fill-rule="nonzero"/>
	<path id="Path" d="M293 18.59C293 18.7 293.1 18.7 293.1 18.7C293.1 18.59 293.1 18.59 293 18.59Z" fill="#003AA1" fill-opacity="1.000000" fill-rule="nonzero"/>
	<path id="Path" d="M77.1 225.4C76.5 224.1 76.3 222.7 75.9 221.3C74.8 217.4 73.6 213.6 72.5 209.8C72.4 209.8 72.3 209.9 72.2 209.9C73 218.2 73.8 226.5 74.7 235.1C76.3 231.9 78.8 229.3 77.1 225.4Z" fill="#003AA1" fill-opacity="1.000000" fill-rule="nonzero"/>
	<path id="Path" d="M317.4 35.5C318.7 36.8 319.7 37 321 35.5C320.7 35.1 320.5 34.8 320.2 34.5C315.9 30.6 311.1 27.1 307.29 22.8C305.29 20.6 303.4 20.1 300.7 20.5C302 21.5 303.4 22.4 304.7 23.5C308.9 27.4 313.2 31.4 317.4 35.5Z" fill="#003AA1" fill-opacity="1.000000" fill-rule="nonzero"/>
	<path id="Path" d="M183.5 103.7C179.7 108.6 175.9 113.6 171.9 118.3C170.7 119.8 170.4 120.9 171.2 122.2C175.5 116.8 179.8 111.4 184.2 106.1C185.5 104.5 187.1 103 188.6 101.4C187.1 101.4 185.6 101.3 184.1 101.2C183.9 102.1 183.9 103.1 183.5 103.7Z" fill="#003AA1" fill-opacity="1.000000" fill-rule="nonzero"/>
	<path id="Path" d="M27.6 230.1C28.1 230.9 28.8 231.9 29.4 232.9C34.5 228.6 39.5 224.3 44.4 220C44.2 219.8 44 219.5 43.8 219.3C38.5 222.9 33 226.5 27.6 230.1Z" fill="#003AA1" fill-opacity="1.000000" fill-rule="nonzero"/>
	<path id="Path" d="M57.8 125.1C53.2 123.8 49.3 122.6 45.2 121.4C44.6 123.3 44.1 125.1 43.5 127.2C48.3 126.6 52.6 125.9 57.8 125.1Z" fill="#003AA1" fill-opacity="1.000000" fill-rule="nonzero"/>
	<path id="Path" d="M103.1 66.79C100.4 69.5 101.8 71.89 103 74.59C105.7 70.29 108.3 66.29 106.8 60.89C105.6 63 104.7 65.29 103.1 66.79Z" fill="#003AA1" fill-opacity="1.000000" fill-rule="nonzero"/>
	<path id="Path" d="M281.1 23.8C277.79 21.2 277.7 21.2 274.29 23.89C279.5 26.2 284.6 28.5 289.79 30.8C287.1 28.1 284 26 281.1 23.8Z" fill="#003AA1" fill-opacity="1.000000" fill-rule="nonzero"/>
	<path id="Path" d="M241.3 171.4C238.8 173.3 236.1 175 233.6 176.9C232.7 177.5 231.1 178.2 232.7 179.7C236.7 176.8 240.7 173.9 244.7 171C246.9 169.4 249 167.6 249.3 164.6C246.6 166.9 244.1 169.3 241.3 171.4Z" fill="#003AA1" fill-opacity="1.000000" fill-rule="nonzero"/>
	<path id="Path" d="M13.5 187.6C10 188.8 6.5 189.9 2.9 191.1C-0.31 192.2 -0.41 192.3 0.5 196C5 193.3 9.4 190.7 13.8 188C13.7 187.9 13.6 187.7 13.5 187.6Z" fill="#003AA1" fill-opacity="1.000000" fill-rule="nonzero"/>
	<path id="Path" d="M295.1 141.1C296.4 142.5 297.79 142.89 300.29 142.2C296.7 137.39 291.29 135.89 286.9 132.8C289.6 135.6 292.4 138.3 295.1 141.1Z" fill="#003AA1" fill-opacity="1.000000" fill-rule="nonzero"/>
	<path id="Path" d="M303.5 80.39C303.9 84 304.6 87.59 305.1 91.2C305.6 94.79 306 98.39 306.4 102.1C306.7 102.1 307.1 102.1 307.4 102.2C307.2 98.39 306.7 94.59 306.79 90.79C306.9 86.79 304.7 83.79 303.5 80.39Z" fill="#003AA1" fill-opacity="1.000000" fill-rule="nonzero"/>
	<path id="Path" d="M225.8 135.89C225.8 135.8 225.8 135.8 225.8 135.7C225.7 135.8 225.7 135.89 225.8 135.89C225.8 136 225.8 136 225.8 136C225.8 136 225.8 136 225.8 135.89Z" fill="#003AA1" fill-opacity="1.000000" fill-rule="nonzero"/>
	<path id="Path" d="M238.8 134.1C235.4 134.7 232.2 135.6 229.1 136.8C227.7 137.3 226.6 137.3 225.8 136.1C226.1 137.8 226.3 139.5 226.6 141.3C230.9 138.7 234.9 136.39 238.8 134.1Z" fill="#003AA1" fill-opacity="1.000000" fill-rule="nonzero"/>
	<path id="Path" d="M340.4 29.1C341.5 31.8 342.6 34.39 344 37.7C344 32.6 342.2 28 345.8 24C344.1 25.2 342.3 26.39 340.7 27.7C340.4 27.89 340.3 28.7 340.4 29.1Z" fill="#003AA1" fill-opacity="1.000000" fill-rule="nonzero"/>
	<path id="Path" d="M288 127.1C291.5 129.7 295.1 132.39 299.2 135.5C298.7 133.6 298.79 131.7 298 131.3C294.9 129.5 291.6 128.2 288.29 126.7C288.2 126.8 288.1 127 288 127.1Z" fill="#003AA1" fill-opacity="1.000000" fill-rule="nonzero"/>
	<path id="Path" d="M268.29 40.4C265.4 37.5 262.6 34.7 259.7 31.8C259.1 32.1 258.5 32.4 257.6 32.9C261.2 35.5 264.7 38.1 268.2 40.6C268.2 40.5 268.2 40.5 268.29 40.4Z" fill="#003AA1" fill-opacity="1.000000" fill-rule="nonzero"/>
	<path id="Path" d="M76.3 209.8C77.3 215.1 78.1 219.9 79 224.8C80.5 222.7 79 214.7 76.3 209.8Z" fill="#003AA1" fill-opacity="1.000000" fill-rule="nonzero"/>
	<path id="Path" d="M307.29 90.3C307.79 93.8 308.29 96.8 308.7 100C311.1 97.6 310.6 94.3 307.29 90.3Z" fill="#003AA1" fill-opacity="1.000000" fill-rule="nonzero"/>
	<path id="Path" d="M178.6 117.2C176.2 120.2 173.8 123.3 171.1 126.7C176.5 125.4 176.6 120.5 178.6 117.2Z" fill="#003AA1" fill-opacity="1.000000" fill-rule="nonzero"/>
	<path id="Path" d="M251.9 186C253 182.8 254.1 179.7 255.2 176.5C254.1 179.7 250.4 181.9 251.9 186Z" fill="#003AA1" fill-opacity="1.000000" fill-rule="nonzero"/>
	<path id="Path" d="M53.5 246.1C53.1 249.2 52.7 252.3 52.3 255.9C55.3 252.6 53.3 249.2 53.5 246.1Z" fill="#003AA1" fill-opacity="1.000000" fill-rule="nonzero"/>
	<path id="Path" d="M82.9 107.5C80 108.5 77.1 109.5 74.2 110.6C74.3 111 74.4 111.3 74.5 111.7C77.4 110.5 80.2 109.3 83.1 108C83.1 107.9 83 107.7 82.9 107.5Z" fill="#003AA1" fill-opacity="1.000000" fill-rule="nonzero"/>
	<path id="Path" d="M236 49C238 51.29 240 53.5 242 55.79C242.1 55.7 242.3 55.59 242.4 55.5C240.5 53.09 238.6 50.79 236.7 48.39C236.5 48.59 236.3 48.79 236 49Z" fill="#003AA1" fill-opacity="1.000000" fill-rule="nonzero"/>
	<path id="Path" d="M77.7 13C76.2 15.5 74.9 17.6 73.7 19.7C75.1 17.7 78.4 16.89 77.7 13Z" fill="#003AA1" fill-opacity="1.000000" fill-rule="nonzero"/>
	<path id="Path" d="M73.6 19.59C73.5 19.79 73.3 20 73.3 20.2C73.4 20 73.5 19.79 73.6 19.59Z" fill="#003AA1" fill-opacity="1.000000" fill-rule="nonzero"/>
	<path id="Path" d="M170.9 133C265 133 341.3 209.3 341.3 303.4C341.3 397.5 265 473.8 170.9 473.8C76.8 473.8 0.5 397.6 0.5 303.4C0.5 209.2 76.8 133 170.9 133Z" fill="#00B2F0" fill-opacity="1.000000" fill-rule="evenodd"/>
	<mask id="mask5_773" mask-type="alpha" maskUnits="userSpaceOnUse" x="0.500000" y="133.000000" width="340.800049" height="340.800049">
		<circle id="SVGID_1_" cx="170.899902" cy="303.399902" r="170.399994" fill="#000000" fill-opacity="1.000000"/>
	</mask>
	<g mask="url(#mask5_773)">
		<circle id="Oval" cx="170.100098" cy="314.399902" r="158.000000" fill="#0096D2" fill-opacity="1.000000"/>
		<path id="Path" d="M213.2 322.4C213.2 322.4 231.9 282 240.9 268.7C249.9 255.4 259.6 246.9 265.2 245.5C270.79 244 278.6 250.7 283 254.9C287.4 259.1 301.7 260.6 315.4 268.79C329.1 277 334.6 289 352 293.29C362.4 295.9 364 306.79 358.5 313.5C353 320.2 354.6 349.8 342.3 376.6C330.7 401.9 307.1 402.8 303.7 419.5C300.9 433.8 262.29 412.1 240.9 398.3C219.5 384.5 197.8 393.2 194 371.3C192 359.7 201.7 344.7 213.2 322.4Z" fill="#F3A8A3" fill-opacity="1.000000" fill-rule="nonzero"/>
		<path id="Path" d="M305.79 402.2C305.79 402.2 308.5 395 315.29 377.5C318.9 368.3 329 361.2 329 361.2L333 343.8L347.1 313.5C347.1 313.5 344.2 328.3 340 343.8C338.1 350.8 329 361.2 329 361.2C329 361.2 328.1 366 322.79 375.9C316.6 387.6 310.7 388.5 305.79 402.2Z" fill="#E17C74" fill-opacity="1.000000" fill-rule="nonzero"/>
		<path id="Path" d="M124.5 398.3C74.5 400.9 68.4 368.1 67 350.7C65.6 333.3 71.8 318.6 75.8 310.6C79.8 302.6 73 287.29 73.7 277.4C74.4 267.5 79.3 259.79 84.6 252.7C89.9 245.7 76.2 234.4 89 216.1C97.1 204.6 100.7 206.6 104.2 199.6C107.7 192.6 110.4 185.9 119.8 179.3C129.2 172.7 140.1 169.6 150.2 168.7C157.5 194 183.9 292 183.9 292C183.9 292 186.1 302.79 184.8 311.6C183.5 320.4 167.4 329 175.1 340.4C182.8 352 155.89 396.6 124.5 398.3Z" fill="#573E65" fill-opacity="1.000000" fill-rule="nonzero"/>
		<path id="Path" d="M107.9 241.9C107.9 241.9 118.8 260.1 131 274.6C143.2 289.1 165 300.5 165 300.5C165 300.5 173.3 292.4 177.6 297.5C181.9 302.6 179.6 302.6 168 310C156.39 317.5 144.89 327.1 141.6 339.3C138.3 351.5 123.1 374.3 123.1 374.3L93 373.3C93 373.3 86.7 348.5 92 338C97.3 327.5 107.5 317.2 101.2 306.29C94.9 295.4 93.6 291.4 93.9 279.2C94.4 267 107.9 241.9 107.9 241.9Z" fill="#501D6A" fill-opacity="1.000000" fill-rule="nonzero"/>
		<path id="Path" d="M176.1 172.4C159.89 165.5 146.89 169.1 138.7 170.2C129.2 171.5 104.8 185.4 111.8 215.1C118.8 244.8 159.1 250.8 179.8 242.8C185.7 254 195 271.2 195 271.2C195 271.2 207.7 264.4 222.2 259.7C241.6 253.4 236.7 227.7 224.2 220.8C217.1 216.9 213.6 215.7 207 204.3C200.5 192.8 189.6 178.1 176.1 172.4Z" fill="#501D6A" fill-opacity="1.000000" fill-rule="nonzero"/>
		<path id="Path" d="M163.3 231.4C157.39 231.8 150.6 231.3 143.3 229.6C128.2 226 118.5 212.7 118.4 212.6C118.2 212.4 117.9 212.3 117.7 212.5C117.5 212.7 117.4 213 117.6 213.2C117.7 213.3 127.7 226.9 143.1 230.6C151.5 232.6 159.2 233 165.7 232.3C164.9 231.9 164.1 231.6 163.3 231.4Z" fill="#C088AE" fill-opacity="1.000000" fill-rule="nonzero"/>
		<path id="Path" d="M212.9 259.6C205.2 255.2 204.5 248.1 203.7 239.9C203.5 237.8 203.3 235.7 203 233.5C202.3 228.6 199.5 225.1 195.2 223.4C191 221.8 186.2 222.4 183.1 225C182.4 225.6 181.5 226.2 180.6 226.7C181 226.9 181.3 227.1 181.5 227.3C182.3 226.8 183.1 226.3 183.7 225.8C186.5 223.5 191 222.9 194.8 224.4C197.1 225.3 201 227.6 201.9 233.7C202.2 235.8 202.4 238 202.6 240C203.4 248.5 204.2 255.9 212.4 260.5C212.5 260.5 212.6 260.6 212.6 260.6C212.8 260.6 212.9 260.5 213 260.29C213.2 260.1 213.1 259.79 212.9 259.6Z" fill="#C088AE" fill-opacity="1.000000" fill-rule="nonzero"/>
		<path id="Path" d="M166.6 226.8C164.1 226.8 161.2 226.6 157.89 226.2C142.39 224.4 132.5 215.6 132.39 215.5C132.2 215.3 132.2 215 132.39 214.8C132.6 214.6 132.89 214.6 133.1 214.8C133.2 214.9 143 223.5 158.2 225.2C173.5 227 179 224 183.5 221.6C187.3 219.6 190.3 218 197.3 220C197.6 220.1 197.7 220.4 197.6 220.6C197.5 220.9 197.2 221 197 220.9C190.3 219 187.6 220.4 183.9 222.4C180.2 224.4 175.9 226.8 166.6 226.8Z" fill="#C088AE" fill-opacity="1.000000" fill-rule="nonzero"/>
		<path id="Path" d="M200.5 437.6C188.1 439.5 177.3 442.3 168 445.3C138.5 455 124.9 467.7 124.9 467.7C124.9 467.7 127.5 469.2 133.39 470.9C145.2 474.3 170.2 478.4 214.4 472.8C280.7 464.4 290.29 440 290.29 440C290.29 440 252.7 429.5 200.5 437.6Z" fill="#F3A8A3" fill-opacity="1.000000" fill-rule="nonzero"/>
		<path id="Path" d="M149.1 312.2C150.7 313.4 154 314.6 160.7 313.5C177.3 310.79 183.2 311.9 188.5 318.7C191.7 322.7 199.3 327.2 205.5 323.79C214.1 319.2 236.3 316.4 246.7 325.79C256.4 334.5 265.6 336.7 270.2 335.1C271.7 334.5 273.29 333.7 275 332.9C279.9 330.4 286 327.29 291.7 331.5C292.29 331.9 292.9 332.4 293.4 332.8C298.5 336.7 302.9 340.1 310 338.7C311.7 338.4 312.9 337.6 313.79 336.8C310.79 316.1 302.79 296.2 286.29 285.4C262.4 269.79 236.5 256.5 199.5 270.6C175.8 279.7 159.2 298.1 148.1 311.1L148 311.2C148.39 311.6 148.7 311.9 149.1 312.2Z" fill="#EE2828" fill-opacity="1.000000" fill-rule="nonzero"/>
		<path id="Path" d="M307 345C299.6 345 294.5 341.1 289.9 337.6C289.29 337.2 288.79 336.7 288.2 336.3C285.6 334.4 282.5 335.8 277.79 338.2C276 339.1 274.2 340.1 272.29 340.7C264.5 343.5 253 339.4 242.8 330.2C239.2 326.9 232.9 325.29 225.1 325.5C217.8 325.7 211.3 327.5 208.3 329.1C199.8 333.7 189.2 329.3 183.8 322.4C180.6 318.29 177.6 316.79 161.6 319.5C154.5 320.7 149 319.79 145.3 317C145 316.79 144.7 316.5 144.5 316.29C134.3 332 123.8 361.6 123.4 363.7L128.3 385.6L205.3 396L219.8 347.7C219.8 347.7 264.5 349.8 256.79 369.7C249.1 389.6 239.7 410.8 230 421.4C220.2 432 225.8 456.8 246.9 452.8C267.9 448.7 298 423.2 307.7 402.7C312.7 392.1 316.9 368 314.6 343.6C313.6 344.1 312.4 344.5 311.1 344.8C309.7 344.8 308.29 345 307 345Z" fill="#EE2828" fill-opacity="1.000000" fill-rule="nonzero"/>
		<path id="Path" d="M310.1 338.6C303 340 298.6 336.6 293.5 332.7C292.9 332.3 292.29 331.8 291.79 331.4C286.1 327.2 280 330.3 275.1 332.8C273.4 333.7 271.79 334.5 270.29 335C265.79 336.6 256.5 334.4 246.8 325.7C236.4 316.29 214.2 319 205.6 323.7C199.4 327.1 191.8 322.6 188.6 318.6C183.3 311.79 177.3 310.7 160.8 313.4C154.1 314.5 150.8 313.29 149.2 312.1C148.8 311.79 148.5 311.5 148.2 311.2C147 312.6 145.8 314.29 144.6 316.1C144.89 316.29 145.1 316.6 145.39 316.79C149.1 319.7 154.6 320.5 161.7 319.29C177.7 316.7 180.7 318.2 183.9 322.2C189.3 329.1 199.9 333.5 208.4 328.9C211.4 327.29 217.9 325.5 225.2 325.29C233 325.1 239.3 326.79 242.9 330C253 339.2 264.6 343.3 272.4 340.5C274.29 339.8 276.1 338.9 277.9 338C282.7 335.5 285.79 334.1 288.29 336.1C288.9 336.5 289.4 336.9 290 337.4C294.6 340.9 299.7 344.8 307.1 344.8C308.4 344.8 309.79 344.7 311.29 344.4C312.6 344.2 313.79 343.7 314.79 343.2C314.6 341 314.29 338.8 314 336.5C313 337.5 311.79 338.3 310.1 338.6Z" fill="#E17C74" fill-opacity="1.000000" fill-rule="nonzero"/>
		<path id="Path" d="M210.2 282.2C207.4 291.4 195.1 295.79 182.6 292.1C170.1 288.4 162.3 277.9 165 268.7C167.7 259.5 177.4 240.2 189.8 244C202.4 247.7 213 273 210.2 282.2Z" fill="#F7A499" fill-opacity="1.000000" fill-rule="nonzero"/>
		<path id="Path" d="M181.6 268.6C181.6 262.29 179 249.4 170.1 247C164.4 245.4 158.6 241 155.2 238.1C138.39 237.1 124.1 233 114.1 222.1C114.1 222.1 115.9 230.9 112.1 237.5C108.4 244.1 108.6 254 112.8 261.29C117 268.6 120.9 272.29 123.8 274.1C126.7 275.9 127.3 275.6 128.89 279.79C130.39 284 130.89 291.9 141.89 296.79C152.89 301.6 161.5 302.29 165.5 303C169.5 303.7 173.4 301.2 177.2 298.4C180 296.2 186.2 288.5 190.9 279.1C185.3 278.5 181.6 272.6 181.6 268.6Z" fill="#F9BFAF" fill-opacity="1.000000" fill-rule="nonzero"/>
		<path id="Path" d="M196.5 248.5C196.5 248.5 195.9 248.4 195 248.2C195.5 248 196 247.8 196.3 247.4C199.9 243.6 199.8 240.8 200 235.1C200.2 229.4 196.3 223.4 192.5 223.7C188.8 223.9 185.5 225.9 184.4 234.7C183.9 238.9 183.8 242 184.1 244C181.6 242.4 179.7 240.3 179.8 237.7C171.3 238.3 163 238.5 155.3 238C158.7 240.9 164.5 245.3 170.2 246.9C179.1 249.4 181.7 262.29 181.7 268.5C181.7 272.5 185.5 278.29 190.9 278.79C192.4 275.79 193.8 272.7 194.8 269.5C199.1 256.5 196.5 248.5 196.5 248.5Z" fill="#F7A499" fill-opacity="1.000000" fill-rule="nonzero"/>
		<path id="Path" d="M188.1 246.4C187 246.1 186.5 243.7 187.1 238.1C187.7 232.5 189.5 231.2 191.5 231.1C193.5 231 195.7 234.7 195.6 238.4C195.5 242 195.5 243.8 193.6 246.2C192.4 247.7 189.1 246.7 188.1 246.4Z" fill="#B17A8F" fill-opacity="1.000000" fill-rule="nonzero"/>
		<path id="Path" d="M143.2 251.2C143.2 251.2 144.1 246.4 153.5 245.7C163 245 164.5 251.2 164.5 251.2C164.5 251.2 159.39 246.1 152.2 247.9C144.89 249.6 143.2 251.2 143.2 251.2Z" fill="#573E65" fill-opacity="1.000000" fill-rule="nonzero"/>
		<path id="Path" d="M119.8 271C119.7 271.9 118.5 265.9 119.1 262.6C119.8 259.29 121.3 257.1 122.2 258.6C123.1 260.2 120.5 266.4 119.8 271Z" fill="#573E65" fill-opacity="1.000000" fill-rule="nonzero"/>
		<ellipse id="Oval" rx="2.600070" ry="4.100110" transform="matrix(0.410689 -0.911776 0.911776 0.410689 162.18 265.878)" fill="#274A50" fill-opacity="1.000000"/>
		<ellipse id="Oval" rx="2.500067" ry="3.500094" transform="matrix(0.410689 -0.911776 0.911776 0.410689 135.678 277.129)" fill="#274A50" fill-opacity="1.000000"/>
		<path id="Path" d="M169 265.7C168.8 265.7 168.6 265.6 168.5 265.4C167.7 263.29 165.9 262.29 164.4 261.79C162.1 261.1 159.7 261.29 158.7 262C156.7 263.4 156.3 265.29 156.3 265.29C156.2 265.6 156 265.7 155.7 265.7C155.39 265.6 155.3 265.4 155.3 265.1C155.3 265 155.8 262.7 158.1 261.2C159.5 260.2 162.3 260.1 164.7 260.9C167 261.6 168.7 263.1 169.4 265.1C169.5 265.4 169.4 265.6 169.1 265.7C169.2 265.7 169.1 265.7 169 265.7Z" fill="#501D6A" fill-opacity="1.000000" fill-rule="nonzero"/>
		<path id="Path" d="M130.89 278.7C130.7 278.7 130.5 278.6 130.39 278.4C130.39 278.29 129.3 275.7 131.5 273.6C133.7 271.5 138.39 273.5 138.6 273.7C138.8 273.9 138.89 274.2 138.7 274.4C138.5 274.6 138.2 274.7 138 274.5C136.8 273.7 133.5 273 132.2 274.29C130.5 275.9 131.3 277.9 131.3 278C131.39 278.29 131.3 278.5 131 278.7C131 278.7 131 278.7 130.89 278.7Z" fill="#501D6A" fill-opacity="1.000000" fill-rule="nonzero"/>
		<path id="Path" d="M151 291.9C151 291.9 156 291.9 158.1 290.1C160.2 288.29 161.2 287.79 163.39 287.5C165.5 287.2 166.2 284.2 166.2 284.2C166.2 284.2 167.5 287.2 165.2 290.6C162.89 294 160.2 295.29 151 291.9Z" fill="#FFFFFF" fill-opacity="1.000000" fill-rule="nonzero"/>
		<path id="Path" d="M164.9 293.6C169.1 291.4 166.8 284.9 166.8 284.9C166.8 284.9 165.9 292.2 161.8 293.2C156.7 294.5 151.2 292.2 151.2 292.2C151.2 292.2 158.2 297.2 164.9 293.6Z" fill="#EE2828" fill-opacity="1.000000" fill-rule="nonzero"/>
		<path id="Path" d="M143.39 274.29C143.39 274.29 146.3 277.79 146 282.4C145.7 287 149.3 287.5 153.89 282.4C158.5 277.29 150.2 272.1 145.8 267.6C141.39 263.29 136.8 264.79 143.39 274.29Z" fill="#F7A499" fill-opacity="1.000000" fill-rule="nonzero"/>
		<ellipse id="Oval" rx="7.599901" ry="4.699939" transform="matrix(0.837911 -0.545807 0.545807 0.837911 170.09 271.514)" fill="#F7A499" fill-opacity="1.000000"/>
		<ellipse id="Oval" rx="6.199778" ry="3.799864" transform="matrix(0.985235 -0.171206 0.171206 0.985235 137.197 284.389)" fill="#F7A499" fill-opacity="1.000000"/>
		<rect id="Rectangle" x="35.200073" y="301.399902" width="6.400000" height="67.000000" fill="#512024" fill-opacity="1.000000"/>
		<rect id="Rectangle" x="16.300049" y="241.899902" width="44.000000" height="67.000000" fill="#FDF5CE" fill-opacity="1.000000"/>
		<rect id="Rectangle" x="21.800049" y="241.899902" width="9.500000" height="67.000000" fill="#FF950D" fill-opacity="1.000000"/>
		<path id="Path" d="M180.8 410.7C180.8 410 186.1 391.8 190.7 372.4C195.3 353 197.3 348.6 206.3 343.3C215.3 338 221.7 333.4 242 332.3C262.29 331.2 282.9 342.9 276.7 359.6C270.5 376.3 264.2 392.8 252.6 402.5C240.9 412.2 239.6 413.9 216.7 415.5C206.1 416.2 179.3 418.1 179.3 418.1L180.8 410.7Z" fill="#FDF5CE" fill-opacity="1.000000" fill-rule="nonzero"/>
		<path id="Path" d="M229.1 336.8C229.1 336.8 226.6 342 230.9 346.8C241.1 347.4 250.6 340.2 252.6 336.8C247.1 334.2 247.1 326.79 248.3 321.1C231.3 330.6 229.1 336.8 229.1 336.8Z" fill="#FA8D6F" fill-opacity="1.000000" fill-rule="nonzero"/>
		<path id="Path" d="M266.5 334.2C276.6 314.9 279.79 277 258.29 262C236.8 247 219.6 256.4 219.6 256.4C219.6 256.4 220.2 250.2 224.8 248C219 248.4 215.6 255.1 215.6 255.1L209.8 249.1C209.8 249.1 213.2 254.9 211.7 257.1C201.4 259.9 172.4 288.9 183.3 310C194.3 331.1 208 335.8 199.4 352.8C190.8 369.8 188.4 380.5 191.4 399.4C195 410 204.7 418.3 204.7 418.3C204.7 418.3 200 401.1 207.5 377.3C214.4 355.5 222.8 343.6 222.8 343.6L247.9 324.5L243.8 342.1C243.8 342.1 234.1 369.8 231.1 383.8C228.1 397.8 230.3 415.2 230.3 415.2L232.5 413.5C238.8 408.6 243.1 401.5 244.3 393.6C245 388.9 246.8 382.2 250.7 372.9C256 360.3 260.29 346.1 266.5 334.2Z" fill="#512024" fill-opacity="1.000000" fill-rule="nonzero"/>
		<path id="Path" d="M256.2 307.5C255.9 307.5 255.7 307.2 255.7 307C256.2 299.4 250.9 298.29 241.3 296.4C235.6 295.29 228.5 293.79 220.5 290.6C212.7 287.4 207.7 283.1 205.6 277.7C203.2 271.5 205.6 266.29 205.7 266.1C205.8 265.9 206.1 265.7 206.4 265.9C206.6 266 206.8 266.29 206.6 266.6C206.6 266.6 204.3 271.7 206.5 277.4C208.5 282.5 213.3 286.6 220.8 289.7C228.7 292.9 235.8 294.4 241.4 295.5C250.9 297.4 257.1 298.7 256.6 307.2C256.7 307.29 256.5 307.5 256.2 307.5Z" fill="#FD6B5E" fill-opacity="1.000000" fill-rule="nonzero"/>
		<path id="Path" d="M256.9 298.5C260.6 302.6 262.5 312.7 257.79 328.8C257.6 330.3 257.5 331.7 257.4 333.2C261.79 320 263.9 304.9 257.6 297.9C253.7 293.6 247.5 292.4 240.9 291.1C237.3 290.4 233.6 289.7 230.3 288.5C221.4 285.1 218.4 281.2 218.4 281.2C218.2 281 217.9 280.9 217.7 281.1C217.5 281.29 217.4 281.6 217.6 281.79C217.7 282 220.7 286 229.9 289.5C233.3 290.79 237 291.5 240.6 292.2C247.2 293.29 253.3 294.4 256.9 298.5Z" fill="#FD6B5E" fill-opacity="1.000000" fill-rule="nonzero"/>
		<path id="Path" d="M133.3 369.3C135.7 349.7 126.1 346.5 126.1 346.5C126.1 346.5 133.8 324.1 113.9 307C110.5 304.6 109.5 303.2 109.5 303.2C109.5 303.2 111.8 300.9 108.1 291C104.8 282.2 100.1 275.4 93.5 271.2C93.5 271.29 93.5 271.4 93.4 271.5C92.8 276.4 94.5 283.79 95.4 290.29C96.2 296.79 102.7 304.1 102.7 304.1C102.7 304.1 98.5 300.7 96.2 298.29C93.9 295.79 91.1 287.2 88.3 284.1C85.5 281 84.3 286.4 85.5 296.1C86.6 305.9 90.6 309.5 90.6 309.5C90.6 309.5 80.7 321.1 78.7 335.3C76.7 349.5 88 354.7 88 354.7C88 354.7 82.1 359.5 80.1 370.8C78.1 382.1 87.7 391.4 88.6 392C94.1 395.3 97.8 398.4 112.9 398.2C118.3 394.7 131.3 384.7 133.3 369.3Z" fill="#FFD6D9" fill-opacity="1.000000" fill-rule="nonzero"/>
		<path id="Path" d="M148.7 378.7C157.2 360.4 137.7 342.3 137.7 342.3C137.7 342.3 142.8 330.4 133.2 317.2C123.6 303.9 111.5 303 111.5 303C111.5 303 111.5 297.7 111.5 291.79C111.5 285.9 104.7 276 101.3 271.6C98 267.29 94.1 266.7 93.4 271.29C100 275.5 104.7 282.2 108 291.1C111.8 301.1 109.4 303.29 109.4 303.29C109.4 303.29 110.4 304.6 113.8 307.1C133.7 324.2 126 346.6 126 346.6C126 346.6 135.6 349.8 133.2 369.4C131.3 384.9 118.2 394.8 112.8 398.3C113.1 398.3 113.3 398.3 113.6 398.3C129.5 397.9 140.2 397 148.7 378.7Z" fill="#D08687" fill-opacity="1.000000" fill-rule="nonzero"/>
		<path id="Path" d="M104.5 302.4C104.5 302.4 102.1 300.7 101.3 296.1C100.5 291.5 99 284.29 99 284.29C99 284.29 103.5 287.9 105.2 291.5C106.9 295.1 107.3 300.2 104.5 302.4Z" fill="#E33394" fill-opacity="1.000000" fill-rule="nonzero"/>
		<path id="Path" d="M94.7 306.5C94.7 306.5 92.1 304.4 91.9 301.79C91.7 299.1 91.3 295.29 91.3 295.29C91.3 295.29 94.7 298.4 95.4 301.79C96.2 305.1 94.7 306.5 94.7 306.5Z" fill="#E33394" fill-opacity="1.000000" fill-rule="nonzero"/>
		<path id="Path" d="M99.8 340.9C99.8 342.5 96.89 343.8 96.89 343.8C96.89 343.8 94 342.5 94 340.9C94 339.3 95.3 338 96.89 338C98.5 338 99.8 339.3 99.8 340.9Z" fill="#E33394" fill-opacity="1.000000" fill-rule="nonzero"/>
		<circle id="Oval" cx="88.300049" cy="336.299805" r="2.400000" fill="#501D6A" fill-opacity="1.000000"/>
		<circle id="Oval" cx="111.000000" cy="333.799805" r="2.900000" fill="#501D6A" fill-opacity="1.000000"/>
		<path id="Path" d="M104.7 344.4C104.5 344.3 104.2 344.3 104 344.6C104 344.6 102.8 346.5 101.1 346.9C100.4 347.1 99.6 346.9 98.89 346.4C98.3 346 97.6 345.3 97.39 343.8C97.39 343.5 97.1 343.3 96.8 343.4C96.5 343.4 96.3 343.6 96.2 343.8C96 345.5 95.5 346.5 94.8 346.8C94.1 347 93.3 346.4 93 346.2C92.8 346 92.5 346 92.3 346.2C92.1 346.4 92.1 346.7 92.3 346.9C92.3 346.9 93.3 347.9 94.5 347.9C94.7 347.9 94.9 347.9 95.1 347.8C95.9 347.5 96.4 346.8 96.8 345.6C97.1 346.3 97.6 346.9 98.2 347.3C98.89 347.8 99.7 348 100.4 348C100.7 348 100.9 348 101.1 347.9C103.2 347.4 104.6 345.2 104.6 345.2C105 344.8 105 344.5 104.7 344.4Z" fill="#501D6A" fill-opacity="1.000000" fill-rule="nonzero"/>
		<circle id="Oval" cx="87.900024" cy="337.400146" r="1.100000" fill="#FFFFFF" fill-opacity="1.000000"/>
		<circle id="Oval" cx="109.500244" cy="334.800049" r="1.100000" fill="#FFFFFF" fill-opacity="1.000000"/>
		<path id="Path" d="M231.4 332.2C231.4 332.2 223.5 328.2 224.8 321.1C226.1 314 224.1 307.5 220.9 305.5C218.1 303.7 212.9 298.79 211.6 297.5C204.1 294.9 197.5 292.9 194.3 282.2C194.1 292.79 186 291.79 190.3 305C194.6 318.2 197.3 312.4 197.7 319.9C198.1 327.29 200.6 342 217.8 342.6C221.9 342.7 225.8 342.1 229.4 341C232.6 338.4 231.4 332.2 231.4 332.2Z" fill="#F9BFAF" fill-opacity="1.000000" fill-rule="nonzero"/>
		<path id="Path" d="M248.3 320.7C255.1 314.5 254.8 310.1 253.8 305.6C252.5 299.7 242.9 300 242.5 306.6C239.7 298 224.2 301.9 211.6 297.5C212.9 298.79 218.1 303.79 220.9 305.5C224.1 307.5 226.1 313.9 224.8 321.1C223.5 328.2 231.4 332.2 231.4 332.2C231.4 332.2 232.5 338.3 229.3 340.9C240.7 337.3 248.6 328.2 248.3 320.7Z" fill="#FA8D6F" fill-opacity="1.000000" fill-rule="nonzero"/>
		<ellipse id="Oval" cx="247.800049" cy="310.100098" rx="3.700000" ry="6.100000" fill="#FD6B5E" fill-opacity="1.000000"/>
		<ellipse id="Oval" rx="2.300092" ry="3.400136" transform="matrix(0.909464 -0.415783 0.415783 0.909464 218.218 311.409)" fill="#512024" fill-opacity="1.000000"/>
		<ellipse id="Oval" rx="2.100084" ry="3.100124" transform="matrix(0.909464 -0.415783 0.415783 0.909464 201.104 314.42)" fill="#512024" fill-opacity="1.000000"/>
		<path id="Path" d="M212.2 332.3C208.6 332.3 206.7 329.7 206.7 329.6C206.5 329.4 206.6 329.1 206.8 328.9C207 328.7 207.3 328.8 207.5 329C207.6 329.1 209.7 332 213.9 331C218.1 330 220 325.5 220 325.4C220.1 325.1 220.4 325 220.6 325.1C220.9 325.2 221 325.5 220.9 325.7C220.8 325.9 218.9 330.7 214.1 331.9C213.5 332.2 212.8 332.3 212.2 332.3Z" fill="#FA8D6F" fill-opacity="1.000000" fill-rule="nonzero"/>
		<path id="Path" d="M207 317.2C207 317.2 205.9 318.2 203.8 320.4C201.7 322.6 202.6 325 205.1 326.1C207.7 327.2 217.3 325 207 317.2Z" fill="#FA8D6F" fill-opacity="1.000000" fill-rule="nonzero"/>
		<ellipse id="Oval" cx="228.399902" cy="317.199951" rx="6.400000" ry="5.800000" fill="#FD6B5E" fill-opacity="1.000000"/>
		<path id="Path" d="M220.8 309.4C220.6 309.4 220.5 309.29 220.4 309.2C219.7 308.2 218.9 307.7 218 307.5C216.5 307.29 215.2 308.29 215.2 308.4C215 308.6 214.7 308.5 214.5 308.29C214.3 308.1 214.4 307.79 214.6 307.6C214.7 307.5 216.2 306.29 218.1 306.5C219.3 306.6 220.4 307.29 221.2 308.6C221.4 308.79 221.3 309.1 221.1 309.29C221 309.29 220.9 309.4 220.8 309.4Z" fill="#512024" fill-opacity="1.000000" fill-rule="nonzero"/>
		<path id="Path" d="M222.9 302.29C222.8 302.29 222.7 302.29 222.6 302.2C219.8 300.4 210.8 299.6 210.7 299.6C210.4 299.6 210.2 299.29 210.2 299.1C210.2 298.79 210.5 298.6 210.7 298.6C211.1 298.6 220 299.4 223 301.29C223.2 301.4 223.3 301.79 223.2 302C223.2 302.2 223 302.29 222.9 302.29Z" fill="#512024" fill-opacity="1.000000" fill-rule="nonzero"/>
		<path id="Path" d="M192.3 307.5L192.2 307.5C191.9 307.4 191.8 307.1 191.9 306.9L193.1 302.6C193.2 302.29 193.5 302.2 193.7 302.29C194 302.4 194.1 302.7 194 302.9L192.8 307.2C192.7 307.4 192.5 307.5 192.3 307.5Z" fill="#512024" fill-opacity="1.000000" fill-rule="nonzero"/>
		<path id="Path" d="M197.1 314.1C196.9 314.1 196.6 313.9 196.6 313.7C196.6 313.7 196.3 310.4 200 309.79C200.3 309.79 200.5 309.9 200.6 310.2C200.6 310.5 200.5 310.7 200.2 310.79C197.5 311.29 197.6 313.4 197.6 313.6C197.6 313.79 197.4 314 197.1 314.1Z" fill="#512024" fill-opacity="1.000000" fill-rule="nonzero"/>
		<path id="Path" d="M10.6 342.6C10.8 342.1 8.8 337.9 8.8 337.9L19.1 339.2L18.2 332.2L31 337.4L29.7 328.7C29.7 328.7 48.4 330.2 59 341.4C69.6 352.6 71.4 366.7 71.4 366.7C71.4 366.7 72.1 364.2 78.5 364.8C84.9 365.4 84.9 369.2 84.9 369.2C84.9 369.2 94.1 351.5 123.4 344.4C152.7 337.4 178.9 336.7 178.9 336.7L177.1 345.4L185.3 346.1L178.8 410.6L107.2 410.6L44.9 389.5L10.6 342.6Z" fill="#F6E6E7" fill-opacity="1.000000" fill-rule="nonzero"/>
		<path id="Path" d="M214.5 424.9L206.4 352.5C206.4 352.5 194.3 350.1 144.3 356C105.6 360.6 91.7 368.1 87.4 371.3L106.8 422.1L124.3 427.6L214.5 424.9Z" fill="#809CD0" fill-opacity="1.000000" fill-rule="nonzero"/>
		<path id="Path" d="M68.1 371.2C68.1 371.2 67.7 368.7 67.4 367.1C54.2 349.9 6.6 340.9 6.6 340.9C29.5 366.2 40.5 396.6 40.5 396.6L88.6 415.5L69.1 370.2C68.4 370.8 68.1 371.2 68.1 371.2Z" fill="#809CD0" fill-opacity="1.000000" fill-rule="nonzero"/>
		<path id="Shape" d="M114.7 423.4C114.5 423.4 114.3 423.3 114.2 423.1L96.6001 375.4C96.5001 375.2 96.6001 374.9 96.8 374.8C97.3 374.5 108.7 367.1 142.8 362.6C177.751 357.966 195.177 359.95 196.428 360.092C196.473 360.097 196.497 360.1 196.5 360.1C196.7 360.1 196.9 360.3 196.9 360.5L205.3 418.1C205.3 418.2 205.3 418.4 205.2 418.5C205.1 418.6 205 418.7 204.8 418.7C204.5 418.7 173.9 419.1 156.4 420.2C138.8 421.3 115 423.4 114.7 423.4ZM115.1 422.3L97.7002 375.4C99.8 374.2 112.1 367.6 142.8 363.5C175.9 359.1 193.2 360.6 195.9 360.9L204.2 417.6C199.9 417.7 172.6 418.1 156.3 419.1C140 420.1 118.2 422 115.1 422.3Z" clip-rule="evenodd" fill="#003AA1" fill-opacity="1.000000" fill-rule="evenodd"/>
		<path id="Path" d="M85.7 372.7C85.7 372.7 82.2 370.7 76 369.6C72.3 368.9 70.2 369.6 69.1 370.4L88.6 415.7L98.9 419.7L106.8 422.2L87.4 371.2C86.1 372.1 85.7 372.7 85.7 372.7Z" fill="#512024" fill-opacity="1.000000" fill-rule="nonzero"/>
		<path id="Shape" d="M77.7 407L77.5 407L42.9 392.9L42.6 392.6C42.6 392.5 39.1 383.2 34.7 373.7C29.9 363.5 20.3 350.7 20.2 350.6Q20.125 350.45 20.125 350.3Q20.125 350.15 20.2 350C20.3 349.8 20.6 349.8 20.8 349.8C20.9 349.8 34.2 354.7 41.4 358C51.3 362.5 62.2 370.4 62.3 370.5L62.5 370.7L78.1 406.2C78.2 406.4 78.1 406.6 78 406.7C78 406.9 77.9 407 77.7 407ZM76.8 405.5L43.6 392C43 390.5 39.8 382 35.7 373.3C31.8 364.9 24.7 354.9 22.1 351.3C25.8 352.7 35.4 356.3 41.1 358.9C50.4 363.1 60.5 370.4 61.7 371.2L76.8 405.5Z" clip-rule="evenodd" fill="#003AA1" fill-opacity="1.000000" fill-rule="evenodd"/>
		<path id="Path" d="M9.3 384.7C9.3 384.7 30.4 385.8 41.9 386.5C53.4 387.2 88.8 399.5 101.8 405.4C114.8 411.3 119.9 414.9 129.8 414.9C139.7 414.9 148 415.8 164 426.8C180 437.8 184.8 438 184.8 438C184.8 438 184.3 441.1 145.2 443.9C126.4 445.3 70.3 451.8 45.2 426.7C20.1 401.6 9.3 384.7 9.3 384.7Z" fill="#E17C74" fill-opacity="1.000000" fill-rule="nonzero"/>
		<path id="Path" d="M180 444.7C169.1 437.9 154.1 431.6 133.6 428.2C85 420.1 61.8 438.5 61.8 438.5C76.8 457 110.8 467.4 148 470.3C142.5 468.6 140.2 467.1 140.2 467.1C140.2 467.1 152.7 454.3 180 444.7Z" fill="#F3A8A3" fill-opacity="1.000000" fill-rule="nonzero"/>
		<path id="Path" d="M55.7 389C55.5 387.7 55.7 383.5 53.5 380.6C51.3 377.7 49.3 375.3 45.8 374.3C45.2 374.1 44.6 374 44.1 373.8C42.6 375.9 39.9 379.4 38.2 380.4C35.3 382 31.3 383 31.3 375.2C31.3 375.2 29.8 380.8 29.3 384.3C28.9 387.8 32.8 390.7 35 390.2C37.2 389.8 44 390.2 50.2 390.9C56.4 391.6 56 390.3 55.7 389Z" fill="#F9BFAF" fill-opacity="1.000000" fill-rule="nonzero"/>
		<path id="Path" d="M38.2 380.4C39.9 379.5 42.6 375.9 44.1 373.8C41.4 373.1 39.1 373 36.1 375.1C32.6 377.6 31.3 375.1 31.3 375.1C31.3 383 35.3 382 38.2 380.4Z" fill="#FA8D6F" fill-opacity="1.000000" fill-rule="nonzero"/>
		<path id="Path" d="M36.2 389C35.3 389 34.3 388.9 33.4 388.6C33.09 388.5 33 388.2 33.09 388C33.2 387.7 33.5 387.6 33.7 387.7C43.5 390.6 48.7 376 48.7 375.9C48.8 375.6 49.1 375.5 49.3 375.6C49.6 375.7 49.7 376 49.6 376.2C49.5 376.4 48.2 380.1 45.6 383.5C42.8 387.1 39.59 389 36.2 389Z" fill="#FA8D6F" fill-opacity="1.000000" fill-rule="nonzero"/>
		<path id="Path" d="M45 390.9C44.6 390.9 44.2 390.9 43.8 390.9C43.5 390.9 43.3 390.6 43.3 390.4C43.3 390.1 43.6 389.9 43.8 389.9C52.8 390.6 53.8 382.5 53.9 382.2C53.9 381.9 54.2 381.7 54.5 381.8C54.8 381.8 55 382.1 54.9 382.4C55 382.4 53.8 390.9 45 390.9Z" fill="#FA8D6F" fill-opacity="1.000000" fill-rule="nonzero"/>
		<path id="Path" d="M158.1 427.5C158.1 427.5 155.1 438.7 182.5 449.3C209.9 459.9 234.6 456.6 244 452.6C253.5 448.6 255.5 438.4 255.1 430.1C254.8 421.9 254.9 411.7 231.5 414C208.2 416.3 201.4 413.9 192.7 408.9C184.2 404 157.1 404.7 158.1 427.5Z" fill="#EE2828" fill-opacity="1.000000" fill-rule="nonzero"/>
		<path id="Path" d="M169.6 429.2C169.6 429.2 165 425.6 159.1 424.7C153.2 423.8 131 419.6 125.2 414.4C119.1 408.9 117.5 403.4 117.5 403.4C117.5 403.4 114.4 403.2 110.2 397C107.7 393.2 106 389.3 105.2 386.2C104.7 384.2 104.6 382.5 104.9 381.4C105.6 378.5 113.9 380.1 124.9 384.7C136.3 389.4 141.1 391.6 148.7 393.3C155.1 390.9 146.89 384.3 143.6 381.2C140.3 378.1 137.89 374.2 140.1 372.2C142.3 370.2 149.6 373.7 154.7 378.4C159.8 383.1 165.7 390.1 167.9 397.6C170.1 405.1 170.8 406.2 177.8 410.4C184.8 414.6 183.7 421.2 182.2 425.6C180.6 429.8 175.9 431.4 169.6 429.2Z" fill="#F9BFAF" fill-opacity="1.000000" fill-rule="nonzero"/>
		<path id="Path" d="M132.7 397.1C132.3 397.1 124 396.6 119.7 393.2C113.9 388.6 106.6 388.5 106.5 388.5C106.2 388.5 106 388.3 106 388C106 387.7 106.2 387.5 106.5 387.5C106.8 387.5 114.3 387.6 120.3 392.4C124.4 395.6 132.7 396.1 132.7 396.1C133 396.1 133.2 396.3 133.2 396.6C133.2 396.9 133 397.1 132.7 397.1Z" fill="#FA8D6F" fill-opacity="1.000000" fill-rule="nonzero"/>
		<path id="Path" d="M132.7 404.4C132.3 404.4 124.2 404.3 120.9 401.3C116.1 397 109.8 396.3 109.8 396.3C109.5 396.3 109.3 396 109.4 395.8C109.4 395.5 109.7 395.3 109.9 395.4C110.2 395.4 116.6 396.1 121.6 400.6C124.6 403.3 132.6 403.4 132.7 403.4C133 403.4 133.2 403.6 133.2 403.9C133.2 404.2 133 404.4 132.7 404.4Z" fill="#FA8D6F" fill-opacity="1.000000" fill-rule="nonzero"/>
		<path id="Path" d="M129.39 411.4C120.7 411.4 117 403.6 116.9 403.5C116.8 403.2 116.9 403 117.1 402.8C117.3 402.7 117.6 402.8 117.8 403C118 403.4 121.9 411.6 131.5 410.1C131.8 410.1 132 410.2 132.1 410.5C132.1 410.8 132 411 131.7 411.1C131 411.4 130.2 411.4 129.39 411.4Z" fill="#FA8D6F" fill-opacity="1.000000" fill-rule="nonzero"/>
	</g>
	<path id="Path" d="M192.6 119.8C182.3 117.1 171.5 117.1 161.3 119.8C159.2 120.3 157.8 122.2 157.8 124.4L157.8 142.5L159.6 143C160.2 143.2 160.8 143.3 161.39 143.5L161.39 137.5C161.39 135.5 163 133.8 165.1 133.8C167.1 133.8 168.8 135.39 168.8 137.5L168.8 145C170.3 145.2 171.9 145.3 173.4 145.39L173.4 139.1C173.4 137.1 175 135.39 177.1 135.39C179.2 135.39 180.8 137 180.8 139.1L180.8 145.39C182.3 145.3 183.9 145.2 185.4 145L185.4 137.39C185.4 135.39 187 133.7 189.1 133.7C191.1 133.7 192.8 135.3 192.8 137.39L192.8 143.39C193.4 143.2 194 143.1 194.6 142.89L196.4 142.39L196.4 124.4C196.2 122.2 194.7 120.3 192.6 119.8Z" fill="#FFE4C9" fill-opacity="1.000000" fill-rule="nonzero"/>
	<path id="Path" d="M58.7 208.4L61.1 197.3L63.4 208.4C63.7 209.7 64.69 210.7 66 211L72.1 213.4L66 215.8C64.69 216.1 63.7 217.1 63.4 218.4L61 229.5L58.7 218.4C58.4 217.1 57.4 216.1 56.1 215.8L50 213.4L56.1 211C57.4 210.7 58.4 209.7 58.7 208.4Z" fill="#FFA800" fill-opacity="1.000000" fill-rule="nonzero"/>
	<circle id="Oval" cx="258.000000" cy="216.399902" r="5.000000" fill="#FFFFFF" fill-opacity="1.000000"/>
	<circle id="Oval" cx="230.500000" cy="192.800049" r="2.500000" fill="#FFFFFF" fill-opacity="1.000000"/>
	<path id="Path" d="M176.2 122.3C175.5 122.3 175 121.8 174.8 121.2C174.4 119.7 166.1 84.7 167.2 65.2C168 51 172.4 41.6 179.3 39.2C184.4 37.5 190.2 40 195.6 46.3C196.1 46.9 196 47.8 195.4 48.3C194.8 48.8 193.9 48.7 193.4 48.1C188.8 42.7 184.1 40.5 180.1 41.8C174.4 43.7 170.6 52.5 169.9 65.2C169.1 79.9 174 104.7 176.3 115.3L185.8 85.3C186 84.6 186.8 84.1 187.6 84.4C188.3 84.6 188.8 85.4 188.5 86.2L177.4 121.2C177.3 121.9 176.8 122.3 176.2 122.3Z" fill="#FF950D" fill-opacity="1.000000" fill-rule="nonzero"/>
</svg>
