<svg width="191.000000" height="195.000000" viewBox="0 0 191 195" fill="none" xmlns="http://www.w3.org/2000/svg" xmlns:xlink="http://www.w3.org/1999/xlink">
	<desc>
			Created with Pixso.
	</desc>
	<defs/>
	<path id="Shape" d="M131.201 15.7529C129.777 16.3848 128.353 16.9961 126.726 17.709C126.807 17.1182 126.787 16.752 127.031 16.4863C127.56 15.2441 128.068 13.9805 128.719 12.7998C129.817 10.7822 131.038 8.82715 132.156 6.80957C132.441 6.32129 132.625 5.75098 132.746 5.2002C132.909 4.4873 132.339 4.01855 131.648 4.26367C131.404 4.34473 131.16 4.50781 130.997 4.71191C130.407 5.4043 129.777 6.07617 129.268 6.83008C128.394 8.11328 127.621 9.47852 126.787 10.7822C126.563 11.1494 126.278 11.5361 125.933 11.7607C124.306 12.8398 122.638 13.8789 120.949 14.8975C120.461 15.1826 119.912 15.3662 119.221 15.6719C119.282 14.959 119.282 14.4092 119.383 13.8994C119.708 12.2695 120.319 10.7422 120.99 9.21387C121.641 7.68555 122.271 6.1582 122.882 4.60938C123.024 4.26367 123.105 3.89648 123.167 3.53027C123.248 2.89844 122.963 2.49121 122.373 2.28711C121.783 2.08398 121.336 2.22656 121.01 2.81738C120.522 3.69336 120.156 4.65039 119.668 5.54688C119.383 6.05566 119.078 6.54492 118.671 6.93262C117.654 7.91016 116.577 8.84668 115.499 9.78418C113.871 11.1699 112.224 12.5342 110.353 13.5732C110.088 13.7158 109.824 13.8184 109.498 13.9609C109.341 12.998 109.619 12.2256 109.895 11.46C109.905 11.4307 109.915 11.4023 109.925 11.373C110.983 8.48047 112.082 5.58789 113.139 2.69434C113.302 2.2666 113.403 1.79785 113.485 1.33008C113.566 0.861328 113.322 0.555664 112.916 0.351562C112.082 -0.0761719 111.349 0.168945 110.983 1.10547C110.047 3.42773 109.152 5.77051 108.217 8.09375C108.034 8.54199 107.871 9.03027 107.546 9.33594C105.878 10.8848 104.271 12.4941 102.339 13.7158C101.545 14.2256 100.671 14.5713 99.6948 14.6533C98.4336 14.7549 97.6201 14.0625 97.5591 12.7998C97.5386 12.4326 97.5386 12.0459 97.5591 11.6787C97.7012 9.47852 98.3931 7.4209 99.3896 5.48535C99.8979 4.50781 100.528 3.55078 101.2 2.6748C101.688 2.04297 102.339 1.55371 103.254 1.59473C103.722 2.61914 103.35 3.49609 102.982 4.3623C102.838 4.70215 102.695 5.04004 102.603 5.38379C102.786 5.54688 102.908 5.66895 103.051 5.75098C103.193 5.83203 103.356 5.89355 103.519 5.9541C104.515 6.30078 105.125 6.07617 105.593 5.09863C105.817 4.65039 106 4.16113 106.102 3.67285C106.386 2.42969 106.02 1.41113 105.044 0.820312C103.458 -0.157227 100.976 -0.564453 99.0439 1.35059C98.6372 1.75781 98.271 2.20605 97.9453 2.6748C96.4404 4.97656 95.4438 7.46191 94.9556 10.1709C94.8945 10.4766 94.752 10.8438 94.5283 11.0469C93.1045 12.4121 91.6807 13.7568 90.2163 15.0605C89.4028 15.7939 88.4878 16.3848 87.4097 16.6494C86.0674 16.9756 85.4775 16.9141 84.8672 15.3867C84.5415 14.5518 84.3994 13.5938 84.4399 12.6973C84.5415 10.9658 84.7246 9.23438 85.3555 7.60449C85.9043 6.21875 86.5146 4.85449 87.5723 3.75391C88.04 3.26465 88.5894 2.89844 89.3623 2.83691C89.9521 4.30371 89.3418 5.4043 88.4062 6.38184C89.0366 7.4209 90.4604 7.74707 91.1929 6.99316C92.0879 6.07617 92.4741 4.91504 92.2095 3.63184C92.1079 3.18359 91.8027 2.6748 91.437 2.36914C90.0537 1.16699 87.8979 1.00391 86.291 1.87988C84.4399 2.89844 83.606 4.54883 83.2397 6.54492C83.1587 6.99316 83.0161 7.48242 82.752 7.84863C81.4092 9.66211 80.0059 11.4551 78.623 13.2471C78.521 13.3896 78.3584 13.4922 78.2974 13.5332C77.9922 12.209 77.7686 10.9043 77.3823 9.66211C76.9551 8.27637 76.1211 7.11523 74.9209 6.25977C72.8467 4.79297 70.1616 5.93359 69.4092 7.72656C69.0835 8.48047 68.7988 9.23438 68.4937 10.0283C67.8022 10.2529 67.5786 10.7822 67.6396 11.5156C67.6802 11.9639 67.6802 12.3916 67.7207 12.8398C68.0059 16.2422 67.416 19.5225 66.541 22.7812C66.3784 23.4131 66.0327 24.0039 65.748 24.6768C65.0767 24.126 64.7515 23.4951 64.5479 22.8018C64.019 20.9893 63.5308 19.1553 62.9614 17.3428C62.5142 15.8955 62.0464 14.4287 61.436 13.0439C60.8867 11.7607 59.8496 11.5361 58.6904 12.3105C58.3442 12.5342 58.019 12.8193 57.8154 13.1455C57.2666 14.1035 56.7173 15.0811 56.27 16.0996C55.8833 16.9551 55.6597 17.8721 55.314 18.9316C55.0493 18.2383 54.8462 17.668 54.6221 17.1182C54.3374 16.4258 53.9512 16.2627 53.2798 16.6094C53.0156 16.752 52.812 16.9756 52.6089 17.1387C52.7104 17.6279 52.812 18.0352 52.8936 18.4219C53.4019 20.9072 53.9512 23.3926 54.0527 25.9395C54.1748 28.8525 53.8696 31.7051 53.0156 34.4756C52.812 35.1475 52.4458 35.7588 52.1206 36.3906C51.897 36.8184 51.5103 36.8789 51.063 36.7979C50.168 36.6143 48.8052 35.127 48.7036 34.2109C48.6885 34.1191 48.7188 34.0273 48.752 33.9268C48.7632 33.8936 48.7749 33.8594 48.7847 33.8232C49.7002 33.4971 50.2695 32.8252 50.5747 31.9697C51.002 30.6865 51.4697 29.4023 51.7339 28.0781C52.0801 26.3672 51.7544 24.6963 50.9814 23.1279C50.4932 22.1299 49.7407 21.417 48.6426 21.1924C46.8931 20.8262 44.9409 21.8652 44.2085 23.5146C43.7612 24.5137 43.6797 25.5527 43.7812 26.6113C44.0459 29.3818 44.8999 31.9902 46.1816 34.4346C46.5474 35.1475 46.6694 35.8203 46.5884 36.5732C46.2832 39.2627 45.856 41.9521 44.9204 44.5186C44.5137 45.5986 43.9849 46.6377 43.395 47.6152C42.9473 48.3486 42.6221 48.4102 41.8491 48.0225C41.3813 47.7988 40.9136 47.4727 40.5269 47.1064C39.6929 46.3525 39.083 45.3945 38.6353 44.3555C37.4556 41.6875 36.3574 38.998 35.6455 36.1455C35.2793 34.5977 35.686 33.7012 37.0083 33.0293C37.415 32.8252 37.7607 32.8457 38.0454 33.1104C38.9204 33.9453 39.4492 34.9639 39.6323 36.166C38.9814 36.6143 38.0864 36.6143 37.9033 37.5107C38.4116 38.4482 39.144 38.835 40.0391 38.6514C41.2998 38.4072 42.1543 37.6328 42.2559 36.5938C42.4185 34.8213 41.7065 33.3545 40.4458 32.1533C40.0186 31.7256 39.4492 31.5625 38.8594 31.542C37.7202 31.501 36.7437 31.9287 35.8286 32.5605C34.0591 33.7832 33.2046 35.5547 32.7573 37.5518C32.0454 40.6279 31.7607 43.7646 31.7402 46.9229C31.7202 47.208 31.7202 47.4727 31.6997 47.7578C31.6182 47.7988 31.5371 47.8604 31.4556 47.9004C31.2725 47.6562 31.1304 47.3711 30.9062 47.167C29.6045 45.9248 28.2217 44.7637 26.5537 44.0303C24.2148 42.9912 21.5708 43.6426 19.9639 45.6396C19.4961 46.2305 19.1094 46.9023 18.6416 47.5947C18.479 47.3096 18.3774 47.0859 18.2349 46.8613C17.2178 45.2314 16.2212 43.5615 15.123 41.9932C13.9639 40.3223 12.5195 38.876 10.8926 37.6328C9.3667 36.4922 7.73975 36.248 6.03125 37.0625C5.2583 37.4297 4.48535 37.918 3.83447 38.4883C2.28857 39.8535 1.3125 41.585 0.763184 43.5615C-0.172363 46.9639 -0.172363 50.3857 0.356445 53.8496C0.865234 57.1494 1.98389 60.2051 3.5498 63.1191C4.28223 64.4434 5.11572 65.665 6.31592 66.6025C6.74316 66.9287 7.21094 67.2539 7.71924 67.3965C8.65479 67.6816 9.52979 67.4375 10.2212 66.7041C10.8516 66.0322 10.6685 65.2578 10.3433 64.5244C10.0586 63.8721 9.75342 63.2207 9.38721 62.6094C8.16699 60.6533 6.62109 59.0039 4.79053 57.6182C4.20068 57.1699 3.63135 56.8037 2.77686 57.0068C2.59375 56.498 2.41064 56.0293 2.28857 55.54C1.61768 52.6885 1.3125 49.7949 1.6377 46.8613C1.84131 44.9873 2.22754 43.1738 3.08203 41.4834C3.7124 40.2207 4.54639 39.1201 5.74658 38.3262C6.53955 37.8164 7.35352 37.7148 8.10596 38.3057C8.89893 38.917 9.71289 39.5479 10.3838 40.3018C13.6787 44.0098 16.1196 48.2471 17.9297 52.8711C18.1538 53.4014 18.3774 53.9307 18.5806 54.3994C20.269 54.5215 20.8789 53.8896 20.5737 52.4229C20.5737 52.3418 20.5537 52.2803 20.5332 52.2197C20.1265 49.958 20.4927 47.8398 21.8145 45.9248C22.2827 45.2314 22.9336 45.0283 23.6655 45.2725C24.3369 45.4971 25.0078 45.7822 25.5977 46.1689C27.896 47.6562 29.7876 49.5918 31.4556 51.751C31.7202 52.1182 31.8423 52.5049 31.8423 52.9736C31.8623 54.1953 31.8828 55.418 31.9438 56.6406C32.0454 58.8613 32.269 61.0811 32.8999 63.2412C33.2456 64.3818 33.6523 65.502 34.3843 66.46C35.0557 67.3359 35.9102 67.5391 36.9067 67.1113C37.8218 66.7246 38.4932 66.0723 38.8594 65.1357C39.1641 64.3818 39.3271 63.6074 39.1641 62.834C38.8794 61.4072 38.5742 59.9814 38.127 58.5957C37.1304 55.54 35.605 52.749 33.6729 50.1826C33.4487 49.877 33.1846 49.4893 33.1846 49.123C33.1235 46.8213 33.0625 44.5186 33.3472 42.2168C33.4692 41.1982 33.6523 40.2002 33.8354 39.0391C33.998 39.2627 34.0591 39.3447 34.0996 39.4258C34.771 41.1982 35.4219 42.9912 36.1338 44.7432C36.7031 46.1689 37.4761 47.4727 38.6963 48.4707C40.71 50.1211 43.3745 49.8564 45.002 47.8193C45.5103 47.167 45.9375 46.4131 46.3032 45.6602C47.1172 43.9277 47.646 42.1152 47.9917 40.2402C48.1543 39.3643 48.2969 38.4883 48.439 37.5928C50.8594 38.4883 52.812 37.959 54.1953 35.9424C54.6021 35.3311 54.9272 34.6387 55.1714 33.9453C55.5171 32.9268 55.7412 31.8477 56.0459 30.6865C57.0225 33.5996 57.9785 36.4111 58.9341 39.2217C59.6665 41.4023 60.3784 43.6025 61.1514 45.7617C61.436 46.5361 61.9038 47.249 62.2495 47.9414C62.3145 47.9463 62.3716 47.9502 62.4229 47.9551C62.5981 47.9688 62.7046 47.9775 62.7988 47.9619C63.8564 47.8193 64.1411 47.4727 63.999 46.4131C63.958 46.0674 63.897 45.7412 63.7954 45.415C62.5952 41.7686 61.436 38.0811 60.1343 34.4551C58.7104 30.5234 57.2256 26.5918 56.229 22.5166C56.1274 22.1094 56.0259 21.6406 56.1274 21.2334C56.7173 18.9717 57.4087 16.7314 58.4258 14.6123C58.6089 14.2666 58.8325 13.9404 59.0972 13.4717C59.3003 13.8584 59.4629 14.083 59.5444 14.3271C59.8901 15.3457 60.2358 16.3848 60.541 17.4238C61.1919 19.5625 61.8022 21.7227 62.4531 23.8613C62.5952 24.3096 62.8394 24.7373 63.104 25.125C63.8359 26.1631 64.6699 26.3877 65.8496 25.96C66.9482 25.5723 67.6802 24.7783 68.0869 23.7393C68.5347 22.6191 68.8804 21.458 69.2466 20.3369C69.2871 20.3779 69.3481 20.4385 69.4092 20.5205C70.5278 22.1504 71.8701 22.5781 73.7007 21.8242C75.145 21.2129 76.1006 20.0928 76.7925 18.7275C77.0977 18.1367 77.3618 17.4854 77.728 16.9346C78.9077 15.2031 80.1079 13.4717 81.3076 11.7607C81.6943 11.1895 82.1211 10.6602 82.6094 9.98828C82.6094 10.4561 82.6299 10.7617 82.6299 11.0674C82.6704 12.1885 82.6299 13.3086 82.752 14.4092C82.9351 16.1807 84.2568 17.4238 86.0063 17.6475C87.3281 17.8105 88.5688 17.5459 89.7285 16.9141C91.0298 16.1807 92.23 15.3047 93.2065 14.1436C93.6943 13.5938 94.2231 13.085 94.752 12.5137C94.915 12.7998 95.0166 12.9824 95.1182 13.1455C95.2402 13.3496 95.3623 13.5732 95.5454 13.7158C97.3965 15.3252 99.4507 15.998 101.83 15.0195C103.01 14.5312 104.007 13.7979 104.942 12.9424C105.634 12.3105 106.325 11.6787 107.098 10.9658C106.956 11.8008 106.793 12.4941 106.732 13.1865C106.63 14.2256 107.159 14.959 108.075 15.3662C108.888 15.7334 109.763 15.8555 110.658 15.6309C111.715 15.3662 112.59 14.7959 113.363 14.083C114.359 13.1455 115.315 12.1885 116.292 11.251C116.617 10.9248 116.963 10.6396 117.309 10.334C117.309 10.9043 117.125 11.373 117.024 11.8623C116.82 12.8193 116.637 13.7773 116.536 14.7549C116.455 15.5898 116.942 16.1611 117.695 16.4863C118.692 16.9141 119.688 16.874 120.645 16.3848C121.478 15.957 122.271 15.4473 123.085 14.9385C123.716 14.5518 124.306 14.1436 125.058 13.6553C124.732 14.5918 124.427 15.3252 124.224 16.0996C123.858 17.5254 124.427 18.4629 125.811 18.9316C126.848 19.2773 127.804 19.1758 128.76 18.6865C129.878 18.1162 130.977 17.5049 132.096 16.9346C132.319 16.833 132.563 16.752 132.97 16.5684C132.746 17.0166 132.583 17.2812 132.482 17.5459C132.116 18.4629 131.75 19.3594 131.445 20.2959C131.241 20.9482 131.526 21.498 132.096 21.8652C132.421 22.0684 132.767 22.2109 133.112 22.334C134.231 22.7207 135.37 22.6592 136.509 22.374C137.485 22.1299 138.462 21.8857 139.56 21.6006C139.316 21.9873 139.113 22.252 138.95 22.5371C138.258 23.7598 138.279 24.9814 139.052 26.1836C139.682 27.1816 140.658 27.6504 141.757 27.7725C143.832 27.9766 145.926 28.0986 148.021 28.2412C148.432 28.2568 148.854 28.2383 149.278 28.2188C149.421 28.2119 149.565 28.2061 149.709 28.2012C149.526 28.5264 149.282 28.71 149.038 28.8525C148.062 29.4434 147.045 29.9932 146.069 30.6045C145.703 30.8291 145.275 31.0527 145.275 31.582C145.275 32.2754 145.581 32.8457 146.13 33.2324C146.537 33.5098 146.853 33.3037 147.172 33.0957C147.251 33.0439 147.33 32.9922 147.411 32.9473C149.181 31.9287 150.95 30.9307 152.76 29.8916C153.106 30.4619 153.594 30.5635 154.164 30.584C154.652 30.6045 155.14 30.7061 155.506 31.1543C155.384 31.3789 155.303 31.5625 155.161 31.7051C154.205 32.7637 153.228 33.8027 152.272 34.8418C151.703 35.4736 151.133 36.085 150.564 36.7168C150.259 37.083 150.198 37.5107 150.34 37.959C150.625 38.9365 151.194 39.6504 152.272 39.793C152.386 39.8086 152.5 39.8262 152.614 39.8447C152.947 39.8975 153.276 39.9502 153.594 39.9355C154.937 39.8945 156.299 39.793 157.642 39.7314C158.679 39.6904 159.696 39.6699 160.896 39.6504C160.449 39.8945 160.103 40.0371 159.798 40.2207C159.208 40.5459 158.598 40.8721 158.069 41.2793C157.113 42.0127 156.808 43.2764 157.215 44.3965C157.703 45.7617 158.7 46.5557 160.083 46.8613C160.591 46.9844 161.161 47.0244 161.689 46.9844C162.768 46.9229 163.845 46.8008 164.923 46.6582C165.839 46.5557 166.754 46.4951 167.689 46.6377C166.693 47.208 165.656 47.7178 164.639 48.2266C163.988 48.5527 163.296 48.8789 162.686 49.2861C161.974 49.7549 161.812 50.3457 162.076 51.1396C162.361 52.0361 162.951 52.668 163.866 52.9326L169.724 54.6436C169.988 54.7256 170.232 54.7861 170.558 54.8682C169.479 55.3369 168.483 55.7236 167.527 56.2129C166.591 56.6807 166.307 57.3945 166.571 58.4131C166.917 59.7568 167.628 60.7959 169.052 61.2441C170.984 61.876 172.896 62.5684 174.809 63.2412C174.971 63.3018 175.113 63.4238 175.378 63.5664C174.87 63.7295 174.523 63.832 174.178 63.9541C173.202 64.3203 172.185 64.626 171.249 65.0742C170.11 65.624 169.968 66.7861 170.923 67.6211C172.368 68.8633 174.056 69.6582 175.866 70.3301C175.825 69.5156 175.825 69.5156 175.195 69.1689C174.259 68.6396 173.324 68.1299 172.266 67.5391C172.591 67.377 172.774 67.2744 172.958 67.2139C174.381 66.7656 175.785 66.2969 177.208 65.8691C179.303 65.2168 181.419 64.626 183.514 63.9541C184.083 63.7705 184.592 63.4238 185.06 63.2002C185.202 62.4463 184.897 62.0596 184.327 61.957C183.798 61.8555 183.229 61.7744 182.721 61.8555C181.358 62.0801 179.995 62.3652 178.652 62.6709C178.205 62.7725 177.819 62.8135 177.371 62.6299C174.931 61.6523 172.449 60.7148 170.008 59.7373C169.479 59.5332 168.991 59.2275 168.32 58.8613C168.971 58.5557 169.398 58.29 169.866 58.1074C172.388 57.0889 174.931 56.0703 177.473 55.0518C178.144 54.7861 178.795 54.501 179.405 54.1553C179.975 53.8291 180.137 53.4219 179.893 52.8711C179.527 52.0156 179.1 51.792 178.205 52.0361C177.331 52.2803 176.476 52.6064 175.622 52.9326C174.32 53.4219 173.059 53.9512 171.818 54.4404C171.127 53.7881 171.106 53.8291 169.866 53.4619C168.218 52.9736 166.591 52.4229 164.944 51.8936C164.72 51.8125 164.517 51.6494 164.15 51.4453C166.042 50.5488 167.792 49.7344 169.541 48.9189C171.351 48.084 173.181 47.2695 174.992 46.4336C175.988 45.9648 176.069 44.9062 175.113 44.3154C174.829 44.1318 174.381 44.0908 174.056 44.1523C173.425 44.2744 172.835 44.5391 172.205 44.7021C172.122 44.7236 172.039 44.7461 171.955 44.7686C171.484 44.8955 171.003 45.0254 170.537 45.0078C167.527 44.9062 164.517 44.7637 161.506 44.6211C160.672 44.5801 159.838 44.417 158.923 44.3154C159.391 43.4189 160.103 42.9912 160.815 42.6445C163.134 41.5244 165.473 40.4648 167.792 39.3848C168.666 38.9775 169.581 38.5908 170.436 38.1221C171.066 37.7754 171.147 37.2871 170.781 36.6758C170.456 36.166 170.029 35.9424 169.398 36.1055C168.869 36.2275 168.34 36.4111 167.853 36.6143C166.368 37.2461 164.883 37.8779 163.398 38.5498C162.829 38.8145 162.259 38.9365 161.628 38.917C159.838 38.8555 158.028 38.8965 156.238 38.835C155.018 38.7939 153.757 38.8145 152.395 38.3867C152.842 37.9385 153.208 37.5518 153.594 37.2051C154.774 36.1455 155.852 35.0459 156.767 33.7627C157.296 33.0293 157.377 32.2754 157.032 31.46C156.91 31.2158 156.788 30.9512 156.666 30.6865C159.879 30.3193 162.117 30.2988 163.316 30.666C163.012 30.8691 162.707 31.0527 162.442 31.2158C162.361 32.9062 163.398 33.7217 164.822 33.1104C164.984 33.0488 165.147 32.9883 165.29 32.9062C165.737 32.6621 165.981 32.2959 166.001 31.7656C166.124 29.6475 164.293 28.1191 162.3 28.7715C160.083 29.4844 157.845 29.5449 155.567 29.4639C155.12 29.4434 154.693 29.3418 154.083 29.2598C155.181 28.6289 156.157 28.1396 157.072 27.5898C158.049 26.999 159.025 26.3877 159.96 25.7148C160.571 25.2871 160.611 24.8799 160.306 24.3096C160.001 23.7188 159.655 23.5146 158.984 23.6982C158.333 23.8818 157.703 24.167 157.113 24.4727C155.567 25.2871 154.021 26.123 152.476 26.9785C151.926 27.2842 151.357 27.4268 150.727 27.3857C148.631 27.2842 146.537 27.2432 144.441 27.0801C143.343 26.9785 142.245 26.7539 141.146 26.5303C140.597 26.4082 140.048 26.2041 139.764 25.6543C140.048 24.7783 140.272 24.3506 141.126 23.6377C142.265 22.6797 143.465 21.7832 144.665 20.9072C146.048 19.9092 147.655 19.3184 149.262 18.7686C150.442 18.3613 151.642 18.3613 152.74 19.0742C152.74 19.6855 152.374 19.9297 152.008 20.1738C151.235 20.7041 151.154 21.0293 151.581 21.8652C151.825 22.334 152.13 22.7412 152.679 22.8223C154.327 22.3135 154.611 21.2539 154.53 20.1738C154.347 18.0957 152.557 16.2012 150.543 15.998C149.587 15.916 148.631 15.957 147.757 16.3848C147.024 16.7314 146.313 17.1387 145.601 17.5254C144.604 18.0762 143.648 18.7891 142.591 19.1758C140.699 19.8682 138.726 20.4189 136.773 20.9277C136.72 20.9414 136.667 20.9551 136.613 20.9688C135.79 21.1826 134.946 21.4004 134.048 21.1523C134.068 21.0098 134.068 20.8672 134.089 20.7441C134.312 19.583 134.862 18.5645 135.492 17.6074C136.529 16.0586 137.648 14.5713 138.686 13.0234C139.397 11.9844 140.068 10.9248 140.658 9.8252C141.106 8.94922 140.577 8.29688 139.581 8.37891C138.97 8.41895 138.523 8.80664 138.177 9.27539C137.628 10.0088 137.058 10.7422 136.59 11.5156C135.655 13.0645 134.496 14.3271 132.746 14.9795C132.197 15.1826 131.729 15.5088 131.201 15.7529ZM75.6328 13.5127C75.5518 12.3105 75.3687 10.9043 74.7583 9.58008C74.27 8.54199 73.6196 7.66602 72.5615 7.13574C71.728 6.70801 71.3413 6.78906 70.853 7.56348C70.0195 8.94922 69.4297 10.416 69.6938 12.0859C69.7954 12.7998 69.8564 13.5127 69.999 14.2051C70.3447 15.7129 70.6904 17.2402 71.1382 18.7275C71.3208 19.3184 71.728 19.8682 72.1548 20.3369C72.7041 20.9482 73.2734 20.9072 73.7822 20.2764C74.1279 19.8281 74.4331 19.3184 74.6772 18.8096C75.3687 17.1797 75.6738 15.4883 75.6328 13.5127ZM48.2559 31.9287C48.1543 32.1729 47.9102 32.3564 47.646 32.7031C47.4219 32.2344 47.2393 31.9492 47.1782 31.6641C46.7305 29.9932 46.2422 28.3438 45.8765 26.6729C45.6323 25.6133 45.7339 24.5137 46.0796 23.4746C46.1816 23.1279 46.3848 22.8223 46.5679 22.4561C47.4829 22.4355 48.0728 22.8633 48.5 23.5762C49.0288 24.4316 49.1714 25.4102 49.2524 26.3877C49.4155 28.3232 48.9678 30.1562 48.2559 31.9287ZM36.2964 65.8076C37.0488 63.4238 35.4219 57.5566 33.3267 54.8477C33.3472 55.8457 33.3677 56.8643 33.4082 57.8623C33.4692 59.6348 33.7944 61.3672 34.3843 63.0371C34.7505 64.0967 35.2388 65.0947 36.2964 65.8076ZM3.30566 58.29C5.27881 60.4297 7.25146 62.5684 8.20752 65.4004C5.72607 63.6279 4.36328 61.0615 3.30566 58.29Z" clip-rule="evenodd" fill="#000000" fill-opacity="1.000000" fill-rule="evenodd"/>
	<path id="Path" d="M22.6 79.07C21.91 80.37 22.58 81.41 23.25 82.43C24.27 84 25.63 85.08 27.5 85.5C28.38 85.69 29.03 85.5 29.56 84.81C30.58 83.51 30.62 82.06 30.09 80.57C29.46 78.74 28.46 77.07 27.34 75.5C25.92 73.52 24.41 71.59 22.85 69.74C18.39 64.42 13.88 59.18 9.44 53.89C8.39 52.62 7.49 51.2 6.62 49.79C5.74 48.38 5.31 46.82 5.25 45.15C5.19 42.86 6.45 41.05 8.47 40.52C9.16 40.34 9.79 40.38 10.3 40.97C9.95 41.58 9.95 41.58 8.55 41.66C8.12 42.13 7.98 42.74 7.9 43.39C7.63 45.63 8.3 47.63 9.52 49.46C11.68 52.72 14.24 55.66 16.81 58.59C20.71 63.05 24.64 67.49 28.28 72.18C29.95 74.32 31.37 76.62 32.45 79.15C32.98 80.39 33.16 81.67 32.75 83C32.22 84.71 31.04 85.79 29.46 86.5C27.71 87.3 26.04 87.09 24.41 86.18C22.48 85.1 21.46 83.3 20.73 81.35C20.26 80.08 21.24 78.92 22.6 79.07Z" fill="#000000" fill-opacity="1.000000" fill-rule="nonzero"/>
	<path id="Path" d="M138.01 3.02C138.99 2.85 139.72 2.36 140.47 1.94C140.98 1.65 141.51 1.43 142.1 1.71C142.22 1.77 142.32 1.83 142.38 1.87C142.34 2.06 142.34 2.16 142.3 2.18C140.9 3.46 139.27 4.34 137.34 4.48C136.97 4.5 136.59 4.44 136.24 4.34C135.61 4.18 135.26 3.75 135.28 3.08C135.3 2.57 135.33 2.06 135.43 1.57C135.63 0.61 136.97 0.18 137.68 0.84C137.85 1 137.93 1.3 137.95 1.55C138.01 2.02 138.01 2.49 138.01 3.02Z" fill="#000000" fill-opacity="1.000000" fill-rule="nonzero"/>
	<path id="Path" d="M187.64 56.13C188.33 56.8 189.04 57.08 189.81 57.19C190.81 57.33 191.01 57.57 190.99 58.69C190.57 59.1 190.02 59.06 189.49 58.94C187.86 58.55 186.7 57.59 186.13 55.98C185.99 55.56 185.99 55.05 186.01 54.58C186.03 54.05 186.4 53.7 186.89 53.56C187.39 53.4 187.72 53.74 187.98 54.09C188.33 54.54 188.31 54.9 188.02 55.39C187.92 55.64 187.8 55.86 187.64 56.13Z" fill="#000000" fill-opacity="1.000000" fill-rule="nonzero"/>
	<path id="Path" d="M51.75 134.88C51.32 134.64 44.98 130.7 41.05 123.56C37.11 116.41 34.7 112.23 38.08 103.6C41.46 94.96 50.66 86.62 56.89 82.44C63.12 78.25 80.44 89.84 82.47 100.5C84.5 111.15 69.06 138.37 69.06 138.37C69.06 138.37 58.12 138.39 51.75 134.88Z" fill="#F9001F" fill-opacity="1.000000" fill-rule="nonzero"/>
	<path id="Path" d="M56.34 102.66C55.93 102.66 52.01 98.62 51.05 90.39C50.09 82.17 50.52 70.58 56.34 64.64C62.16 58.7 67.98 50.36 74.07 47.38C80.15 44.42 99.52 51.23 100.73 61.03C101.61 68.11 77.98 86.72 64.84 96.48C63.65 97.35 65.89 105.01 65.89 105.01L56.34 102.66Z" fill="#DFDEDD" fill-opacity="1.000000" fill-rule="nonzero"/>
	<path id="Path" d="M88.16 58.27C88.16 58.27 87.22 62.23 87.08 67.35C86.93 72.48 88.29 78.95 95.75 82.99C103.21 87.03 115.91 86.23 123.91 86.23C131.9 86.23 137.72 79.76 138.4 77.19C139.07 74.62 138.4 68.82 136.78 67.35C135.16 65.87 133.13 66.27 133.25 63.05C133.38 59.82 133.4 54.01 131.08 51.31C128.78 48.62 115.5 44.32 110.77 45.52C106.04 46.72 88.16 58.27 88.16 58.27Z" fill="#FED5D8" fill-opacity="1.000000" fill-rule="nonzero"/>
	<path id="Beard" d="M79.23 85.05C79.37 84.6 79.37 77.01 85.58 71.97C91.79 66.93 93.84 66.27 93.84 66.27C93.84 66.27 94.78 76.37 99.25 80.29C103.72 84.21 113.6 82.99 113.6 82.99L119.95 81.37L131.59 83.8C131.59 83.8 134.85 81.23 136.33 78.68C137.82 76.11 137.95 74.9 137.95 74.9C137.95 74.9 145.67 85.15 147.82 96.6C143.13 113.05 136.49 122.74 136.08 122.62C135.67 122.47 88.16 125.45 88.16 125.45L80.44 124.11L79.23 85.05Z" fill="#EDEFF0" fill-opacity="1.000000" fill-rule="nonzero"/>
	<path id="Path" d="M92.39 119.8L91.81 119.76C92.37 109.33 95.85 101.01 98.68 95.86C101.73 90.29 104.72 87.13 104.75 87.09L105.18 87.48C105.16 87.52 102.2 90.62 99.19 96.15C96.38 101.25 92.94 109.5 92.39 119.8Z" fill="#DFDEDD" fill-opacity="1.000000" fill-rule="nonzero"/>
	<path id="Path" d="M78.78 84.82L78.39 84.39C82.08 81.17 85.56 78.97 87.84 77.68C90.3 76.29 91.87 75.68 91.94 75.66L92.14 76.19C92.1 76.23 85.77 78.7 78.78 84.82Z" fill="#DFDEDD" fill-opacity="1.000000" fill-rule="nonzero"/>
	<path id="Path" d="M89.68 82.66L89.25 82.27C92.96 78.35 95.13 77.74 95.24 77.72L95.38 78.27C95.36 78.27 93.25 78.88 89.68 82.66Z" fill="#DFDEDD" fill-opacity="1.000000" fill-rule="nonzero"/>
	<path id="Path" d="M100.09 104.86L99.52 104.78C101.14 93.35 107.82 87.68 107.88 87.62L108.25 88.07C108.19 88.11 101.69 93.66 100.09 104.86Z" fill="#DFDEDD" fill-opacity="1.000000" fill-rule="nonzero"/>
	<path id="Path" d="M109.66 116.17C109.23 109.03 110.16 103.37 111 99.88C111.9 96.09 112.9 94.01 112.94 93.92L113.48 94.17C113.43 94.25 109.46 102.64 110.26 116.13L109.66 116.17Z" fill="#DFDEDD" fill-opacity="1.000000" fill-rule="nonzero"/>
	<path id="Path" d="M120.67 115.78L120.1 115.68C121.82 105.47 119.05 92.74 119.01 92.6L119.58 92.48C119.6 92.62 122.41 105.47 120.67 115.78Z" fill="#DFDEDD" fill-opacity="1.000000" fill-rule="nonzero"/>
	<path id="Path" d="M131.06 106.86C130.26 98.37 126.51 89.11 126.47 89.01L127 88.78C127.04 88.88 130.81 98.23 131.63 106.8L131.06 106.86Z" fill="#DFDEDD" fill-opacity="1.000000" fill-rule="nonzero"/>
	<path id="Path" d="M137.29 118.31C136.8 111.27 135.65 101.37 133.03 94.25C131.47 89.99 130.1 88.74 130.08 88.72L130.47 88.29C130.69 88.5 136.12 93.52 137.86 118.27L137.29 118.31Z" fill="#DFDEDD" fill-opacity="1.000000" fill-rule="nonzero"/>
	<path id="Path" d="M138.5 98.8C137.7 94.96 136.76 92.68 136.76 92.66L137.29 92.43C137.29 92.46 138.25 94.8 139.07 98.68L138.5 98.8Z" fill="#DFDEDD" fill-opacity="1.000000" fill-rule="nonzero"/>
	<path id="Path" d="M75.97 67.74C75.56 68.01 73.39 75.29 74.76 76.78C76.11 78.27 78.02 82.72 78.02 82.72C78.02 82.72 80.05 80.29 82.34 76.92C84.64 73.56 90.85 68.13 90.85 68.13C90.85 68.13 87.59 59.01 87.2 59.17C86.81 59.33 75.97 67.74 75.97 67.74Z" fill="#EDEFF0" fill-opacity="1.000000" fill-rule="nonzero"/>
	<path id="Path" d="M90.6 68.03C90.6 68.03 89.25 62.91 85.6 63.44C81.96 63.97 83.02 68.56 84.52 69.76C86.01 70.97 86.4 71.97 86.4 71.97L90.6 68.03Z" fill="#FED5D8" fill-opacity="1.000000" fill-rule="nonzero"/>
	<path id="Path" d="M86.67 141.09C86.53 140.56 88.7 116.15 88.7 116.15C88.7 116.15 99.25 112.9 106.16 111.17C113.07 109.41 128.35 108.47 138.79 114.8C139.46 106.17 141.22 99.17 148.93 92.56C156.64 85.95 161.1 81.9 161.51 78.01C162.72 79.76 162.33 84.21 162.33 84.21C162.33 84.21 165.98 82.19 166.27 78.68C167.36 81.92 167.77 82.46 167.77 82.46L168.97 81.11L171.41 83.25L147.46 135.7L118.48 145.68L86.67 141.09Z" fill="#000000" fill-opacity="1.000000" fill-rule="nonzero"/>
	<path id="Path" d="M86.4 120.86L82.47 150.25C82.47 150.25 99.4 149.04 108.19 149.17C116.98 149.31 132.29 149.31 132.29 149.31L149.07 137.05L155.3 123.96L174 82.05C174 82.05 153.79 97.95 149.89 102.13C143.25 109.27 143.54 114.94 143.54 114.94C143.54 114.94 145.84 115.09 145.16 116.82C144.48 118.58 140.16 123.15 137.04 121.41C133.93 119.66 123.11 115.21 110.65 116.15C98.19 117.09 86.4 120.86 86.4 120.86Z" fill="#FE9327" fill-opacity="1.000000" fill-rule="nonzero"/>
	<path id="Path" d="M72.88 54.27C72.88 53.87 72.06 46.99 73.29 40.66C74.52 34.34 77.9 30.68 83.72 27.85C89.54 25.01 98.74 22.19 104.83 23.25C110.91 24.34 117.14 28.38 121.61 31.89C126.08 35.4 118.09 35.4 110.5 37.68C102.92 39.99 72.88 54.27 72.88 54.27Z" fill="#F9001F" fill-opacity="1.000000" fill-rule="nonzero"/>
	<path id="Path" d="M87.59 47.42C88.1 47.19 88.62 46.95 89.15 46.7L89.91 44.87L93.29 44.83C94.19 44.42 95.07 44.03 95.95 43.64L89.13 43.72L87.59 47.42Z" stroke="#FFFFFF" stroke-opacity="1.000000" stroke-width="2.834600"/>
	<path id="Path" d="M95.93 30.81L88.33 34.58L81.57 29.99L82.77 38.85L74.86 43.54L82.16 45.44L83.76 49.13C84.11 48.97 84.46 48.8 84.8 48.64L83 44.46L77.84 43.11L84 39.44L83.04 32.4L88.21 35.91L94.15 32.95L92.47 39.64L97.04 43.11C97.45 42.93 97.86 42.74 98.25 42.58L93.82 39.21L95.93 30.81Z" stroke="#FFFFFF" stroke-opacity="1.000000" stroke-width="2.834600"/>
	<path id="Path" d="M114.13 26.83C112.59 27.11 110.63 27.48 109.17 27.72L108.7 27.81L108.7 32.03L104.46 27.01L98.86 28.87L101.9 24.62L99.09 23.36L103 23.03C101.04 22.91 98.86 23.11 96.63 23.52L100.11 25.09L95.83 31.09L104.05 28.36L109.83 35.19L109.83 28.76C110.5 28.64 111.8 28.42 113.09 28.17C114.03 28.03 114.95 27.87 115.65 27.72C115.16 27.42 114.64 27.13 114.13 26.83Z" stroke="#FFFFFF" stroke-opacity="1.000000" stroke-width="2.834600"/>
	<path id="Path" d="M70.03 54.54C70.03 54.54 68.41 59.93 70.03 65.99C71.65 72.05 71.65 75.15 75.32 73.13C78.96 71.11 83.72 63.84 90.6 59.31C97.49 54.78 104.27 50.21 117.14 49.4C130.02 48.58 132.17 54.25 132.84 56.27C133.52 58.29 132.99 63.56 132.84 64.91C135.02 66.52 136.9 63.7 137.17 61.95C137.43 60.19 138.38 49.54 134.2 41.87C130.02 34.19 124.99 31.62 113.74 32.44C102.49 33.25 77.32 42.13 70.03 54.54Z" fill="#EDEFF0" fill-opacity="1.000000" fill-rule="nonzero"/>
	<path id="Path" d="M113.66 85.05C113.66 85.05 115.79 83.52 119.3 83.11C122.8 82.7 122.94 86.48 122.27 88.09C121.59 89.7 119.21 93.74 117.29 94.7C115.36 95.64 114.42 96.05 112.78 94.7C111.14 93.35 111.69 91.74 112.37 89.84C113.07 87.97 113.66 85.05 113.66 85.05Z" fill="#FEAFB5" fill-opacity="1.000000" fill-rule="nonzero"/>
	<path id="Path" d="M118.09 85.05C118.5 84.78 120.14 82.35 120.94 83.66C121.76 84.97 120.92 87.17 119.83 88.64C118.74 90.13 117.12 93.23 115.36 93.5C113.6 93.76 113.19 93.76 114.15 91.21C115.09 88.64 118.09 85.05 118.09 85.05Z" fill="#000000" fill-opacity="1.000000" fill-rule="nonzero"/>
	<path id="Path" d="M91.55 93.23C91.55 93.23 89.78 88.92 93.43 84.33C97.08 79.74 100.87 80.03 104.81 80.56C108.74 81.09 116.71 81.37 117.94 77.72C122.56 77.86 125.79 78.13 125.79 78.13C125.79 78.13 123.85 80.17 129.17 80.97C133.79 81.64 138.52 82.58 139.61 86.62C140.69 90.66 139.61 94.17 139.61 94.17C139.61 94.17 139.2 89.05 135 88.37C130.79 87.7 120.92 91.74 119.97 83.66C115.65 88.64 111.57 88.78 107.27 87.88C103.25 87.05 97.63 85.94 91.55 93.23Z" fill="#FFFFFF" fill-opacity="1.000000" fill-rule="nonzero"/>
	<path id="Path" d="M98.86 62.23C98.45 62.23 97.1 60.74 97.1 60.74C97.1 60.74 95.75 57.66 101.98 53.01C108.21 48.36 114.44 47.95 117 50.23C116.06 52.11 114.15 56.03 114.15 56.03C114.15 56.03 111.3 54.54 106.3 56.56C101.3 58.58 98.86 62.23 98.86 62.23Z" fill="#FFFFFF" fill-opacity="1.000000" fill-rule="nonzero"/>
	<path id="Path" d="M121.88 56.15L121.88 50.09C121.88 50.09 125.14 47.93 128.91 51.03C132.68 54.13 134.05 57.99 132.7 63.44C130.2 59.84 128.37 55.72 121.88 56.15Z" fill="#FFFFFF" fill-opacity="1.000000" fill-rule="nonzero"/>
	<path id="Path" d="M101.1 70.23C101.79 69.31 102.82 68.68 103.84 68.21C104.19 68.05 104.56 67.93 104.93 67.8C108.21 66.78 111.84 67.23 114.95 68.58C116 69.01 116.94 69.58 117.86 70.21L117.78 70.21C119.6 69.15 121.45 68.17 123.33 67.23C126.08 65.76 129.11 65.23 131.94 66.93C132.58 67.31 133.15 67.8 133.58 68.41L133.46 68.58C132.11 68.11 130.83 67.74 129.56 67.58C128.93 67.5 128.29 67.46 127.66 67.48C126.35 67.52 125.12 68.01 123.89 68.48C121.92 69.23 119.91 69.95 117.86 70.41C117.1 70.33 116.37 70.15 115.63 69.99C114.58 69.8 113.54 69.58 112.47 69.44C109.85 69.03 107.12 68.93 104.5 69.39C104.11 69.48 103.62 69.58 103.23 69.68C102.55 69.86 101.88 70.09 101.22 70.37L101.1 70.23Z" fill="#FEAFB5" fill-opacity="1.000000" fill-rule="nonzero"/>
	<path id="Path" d="M120.32 67.21C120.32 67.21 120.94 65.09 124.56 64.76C128.19 64.44 126.78 67.44 124.99 67.05C123.21 66.68 120.32 67.21 120.32 67.21Z" fill="#FFFFFF" fill-opacity="1.000000" fill-rule="nonzero"/>
	<path id="Path" d="M117.82 55.72C117.82 55.72 120.53 64.52 123.91 68.15C127.29 71.78 130.67 77.31 130.67 77.31C130.67 77.31 131.88 78.66 130.67 79.19C129.46 79.72 126.88 79.46 124.5 79.46C122.12 79.46 120.77 77.84 118.48 77.44C116.18 77.03 115.36 77.97 113.87 77.03C112.37 76.09 112.51 74.46 113.87 72.72C115.22 70.97 117.39 69.21 117.39 69.21L117.82 55.72Z" fill="#FEAFB5" fill-opacity="1.000000" fill-rule="nonzero"/>
	<path id="Path" d="M104.72 67.84C104.72 67.84 105.34 65.72 108.97 65.39C112.59 65.07 111.18 68.07 109.4 67.68C107.64 67.31 104.72 67.84 104.72 67.84Z" fill="#FFFFFF" fill-opacity="1.000000" fill-rule="nonzero"/>
	<path id="Path" d="M123.91 67.35C123.23 66.54 122.96 66.27 123.91 65.33C124.85 64.4 125.53 64.52 126.35 64.93C127.17 65.33 126.96 66.27 126.84 66.66C126.69 67.07 123.91 67.35 123.91 67.35Z" fill="#000000" fill-opacity="1.000000" fill-rule="nonzero"/>
	<path id="Path" d="M108.21 68.15C107.45 67.93 107.39 67.62 108.21 66.4C109.03 65.17 110.38 64.91 110.91 66.4C111.45 67.88 109.95 68.7 108.21 68.15Z" fill="#000000" fill-opacity="1.000000" fill-rule="nonzero"/>
	<path id="Path" d="M134.32 151.33C134.32 151.33 132.35 153.08 132.92 155.64C133.5 158.21 135.81 160.08 141.49 161.02C147.17 161.96 153.13 162.64 155.57 161.02C158.01 159.41 162.21 151.04 163.01 145.92C163.83 140.8 162.74 137.09 158.13 134.7C153.52 132.31 151.74 131.09 148.03 132.84C144.34 134.62 135.47 146.19 134.32 151.33Z" fill="#DFDEDD" fill-opacity="1.000000" fill-rule="nonzero"/>
	<path id="Path" d="M111.18 146.74C107.41 144.8 107.39 141.35 105.5 136.35C103.62 131.35 101.86 128.94 103.47 125.43C105.09 121.92 106.06 121.92 110.79 120.84C115.53 119.76 119.32 119.35 124.87 123.13C130.42 126.9 133.27 130 137.6 129.74C141.92 129.47 143.01 126.78 145.32 122.05C147.62 117.33 147.21 114.35 151.41 115.43C155.61 116.52 153.99 124.86 153.44 128.25C152.89 131.64 151.68 133.78 152.35 135.8C153.03 137.82 153.03 144.17 149.5 149.41C145.98 154.68 142.19 158.04 137.72 155.88C133.25 153.72 131.22 152.78 127.29 151.7C123.35 150.66 115.09 148.76 111.18 146.74Z" fill="#F9001F" fill-opacity="1.000000" fill-rule="nonzero"/>
	<path id="Path" d="M123.21 151.02L118.8 143.9L126.1 141.86L122.29 134.39L130.55 132.82L127.9 125.96L128.97 125.53L132.15 133.7L124.03 135.23L127.78 142.6L120.61 144.6L124.19 150.41L123.21 151.02Z" fill="#FFFFFF" fill-opacity="1.000000" fill-rule="nonzero"/>
	<path id="Path" d="M127.51 151.88L124.69 146L131.28 143.92L128.15 136.76L135.51 134.92L133.29 128.94L133.68 128.8L136.06 135.21L128.72 137.04L131.84 144.17L125.26 146.25L127.88 151.7L127.51 151.88Z" fill="#FFFFFF" fill-opacity="1.000000" fill-rule="nonzero"/>
	<path id="Path" d="M54.27 124.37C55.48 119.25 77.69 127.62 84.19 129.49C90.69 131.37 86.63 137.04 85.95 141.08C85.28 145.13 84.46 147.14 80.66 146.61C76.87 146.08 65.5 143.78 58.06 140.82C52.75 138.72 51.32 137.06 51.3 134.98C51.23 132.31 54.27 124.37 54.27 124.37Z" fill="#EDEFF0" fill-opacity="1.000000" fill-rule="nonzero"/>
	<path id="Path" d="M56.01 123.7C56.01 123.7 53.16 118.05 54.12 111.96C55.09 105.88 55.07 101.58 56.01 99.56C56.95 97.54 58.86 96.19 60.33 96.46C61.81 96.72 62.92 99.82 62.92 99.82C62.83 99.58 63.02 99.01 63.06 98.74C63.18 97.8 63.31 96.86 63.41 95.92C63.69 93.64 63.98 91.35 64.27 89.07C64.56 86.8 66.24 84.84 67.75 83.21C69.47 81.33 71.52 79.6 73.88 78.58C75.11 78.05 76.46 77.7 77.82 77.86C83.9 78.54 89.97 92.82 90.32 99.03C90.67 105.23 84.85 130.84 84.85 130.84C84.85 130.84 84.7 132.72 79.97 132.04C75.23 131.37 55.89 128.27 56.01 123.7Z" fill="#F9001F" fill-opacity="1.000000" fill-rule="nonzero"/>
	<path id="Path" d="M85.48 111.21L81.2 105.23L73.29 108.74L69.35 103.5L62.38 106.21L61.97 105.13L69.74 102.11L73.68 107.31L81.61 103.8L85.85 109.74L89.03 108.23L89.52 109.29L85.48 111.21Z" fill="#FFFFFF" fill-opacity="1.000000" fill-rule="nonzero"/>
	<path id="Path" d="M84.52 115.52L80.11 109.13L72.61 112.76L68 107.47L61.75 110.11L61.58 109.74L68.12 106.98L72.71 112.25L80.25 108.6L84.64 114.96L88.49 112.47L88.7 112.82L84.52 115.52Z" fill="#FFFFFF" fill-opacity="1.000000" fill-rule="nonzero"/>
	<path id="Path" d="M154.89 83.39C154.89 84.8 153.03 85.56 151.51 85.56C150 85.56 148.77 84.41 148.77 82.99C148.77 81.58 150.86 79.62 152.37 79.62C153.89 79.62 154.89 81.97 154.89 83.39Z" fill="#1F9D75" fill-opacity="1.000000" fill-rule="nonzero"/>
	<path id="Path" d="M139.54 67.72L144.42 63.68L141.35 56.58L147.03 60.99L156.51 54.6L152.8 62.46L161.74 66.64L151.82 67.09L149.46 75.09L147.03 67.19L139.54 67.72Z" fill="#FFC489" fill-opacity="1.000000" fill-rule="nonzero"/>
	<path id="Path" d="M10.33 73.23C10.33 73.23 11.27 67.91 11.66 68.11C12.05 68.31 13.3 73.23 13.3 73.23L19.3 72.41L14.06 75.35L18.44 79.7L12.21 77.31L8.16 83.21L10.04 76.48L4 75.56L10.33 73.23Z" fill="#FFC489" fill-opacity="1.000000" fill-rule="nonzero"/>
	<path id="Path" d="M54.64 54.27C54.64 55.97 52.71 56.89 51.21 56.89C49.72 56.89 48.51 55.52 48.51 53.83C48.51 52.13 49.72 50.76 51.21 50.76C52.71 50.76 54.64 52.58 54.64 54.27Z" fill="#7E5CA6" fill-opacity="1.000000" fill-rule="nonzero"/>
	<path id="Shape" d="M42.4668 150.318L42.4668 153L40.2036 153L40 149.802L40 148.252L40.4482 148.252C40.5503 148.212 40.6729 148.133 40.7949 147.993C40.9175 147.874 41.0396 147.676 41.1416 147.417C41.2637 147.159 41.3862 146.841 41.4883 146.464C41.6104 146.086 41.7124 145.609 41.8345 145.073C41.916 144.695 41.9775 144.338 42.0386 144.02C42.0996 143.702 42.1606 143.404 42.2222 143.086C42.2832 142.769 42.3442 142.47 42.4053 142.133C42.4668 141.795 42.5278 141.417 42.6094 141L48.6025 141L48.6025 148.231L49.8057 148.231L49.8057 149.781L49.6016 152.98L47.3389 152.98L47.3389 150.298L42.4668 150.318ZM43.6694 146.98C43.8325 146.483 43.9751 145.967 44.0771 145.391C44.1177 145.152 44.1587 144.934 44.1792 144.735C44.2197 144.557 44.2402 144.378 44.2808 144.198C44.3218 144.04 44.3623 143.861 44.3828 143.682C44.4238 143.503 44.4644 143.305 44.5054 143.066L46.0342 143.066L46.0342 148.252L43.0986 148.252C43.3228 147.894 43.5063 147.457 43.6694 146.98Z" clip-rule="evenodd" fill="#000000" fill-opacity="1.000000" fill-rule="evenodd"/>
	<path id="Path" d="M51.08 150.31L51.08 141.02L57.24 141.02L57.24 143.08L53.59 143.08L53.59 144.53L56.71 144.53L56.71 146.58L53.59 146.58L53.59 148.25L57.4 148.25L57.4 150.31L51.08 150.31Z" fill="#000000" fill-opacity="1.000000" fill-rule="nonzero"/>
	<path id="Path" d="M59.44 150.31L59.44 141.02L61.97 141.02L61.97 144.47L64.82 144.47L64.82 141.02L67.35 141.02L67.35 150.31L64.82 150.31L64.82 146.62L61.97 146.62L61.97 150.31L59.44 150.31Z" fill="#000000" fill-opacity="1.000000" fill-rule="nonzero"/>
	<path id="Shape" d="M69.6611 150.317L69.6611 141.02L72.189 141.02L72.189 144.258L73.208 144.258C73.7383 144.258 74.248 144.317 74.7168 144.417C75.1855 144.536 75.5933 144.695 75.9194 144.934C76.2456 145.172 76.5312 145.47 76.7144 145.848C76.9185 146.225 77 146.682 77 147.198Q77 148.093 76.6943 148.688C76.4902 149.086 76.2051 149.403 75.8584 149.642C75.5117 149.881 75.104 150.06 74.6353 150.158C74.1665 150.258 73.6567 150.317 73.147 150.317L69.6611 150.317ZM73.0449 148.37L72.189 148.37L72.189 146.186L73.0449 146.186C74.0645 146.186 74.5742 146.522 74.5742 147.218C74.5742 147.636 74.4312 147.934 74.1665 148.112C73.8809 148.291 73.5142 148.37 73.0449 148.37Z" clip-rule="evenodd" fill="#000000" fill-opacity="1.000000" fill-rule="evenodd"/>
	<path id="Path" d="M48.54 171.95L48.54 165.39C48.2 165.43 47.85 165.47 47.52 165.52C47.2 165.54 46.77 165.56 46.28 165.56C45.29 165.56 44.41 165.45 43.64 165.22C42.86 164.99 42.21 164.63 41.66 164.11C41.11 163.6 40.71 162.93 40.42 162.11C40.14 161.29 40 160.28 40 159.1L40 155.04L44.23 155.04L44.23 159.1C44.23 160.17 44.41 160.93 44.82 161.37C45.2 161.81 45.86 162.02 46.75 162.02C47.18 162.02 47.54 162 47.81 161.98C48.07 161.96 48.34 161.92 48.56 161.85L48.56 155.02L52.9 155.02L52.9 171.97L48.54 171.95Z" fill="#00B2F0" fill-opacity="1.000000" fill-rule="nonzero"/>
	<path id="Path" d="M59.49 171.95L59.49 158.76L55.16 158.76L55.16 155L68.18 155L68.18 158.76L63.85 158.76L63.85 171.95L59.49 171.95Z" fill="#00B2F0" fill-opacity="1.000000" fill-rule="nonzero"/>
	<path id="Path" d="M70.85 171.95L70.85 155L81.45 155L81.45 158.76L75.18 158.76L75.18 161.41L80.53 161.41L80.53 165.18L75.18 165.18L75.18 168.21L81.69 168.21L81.69 171.97L70.85 171.97L70.85 171.95Z" fill="#00B2F0" fill-opacity="1.000000" fill-rule="nonzero"/>
	<path id="Path" d="M85.33 171.95L85.33 155L89.67 155L89.67 161.31L94.57 161.31L94.57 155L98.91 155L98.91 171.95L94.57 171.95L94.57 165.22L89.67 165.22L89.67 171.95L85.33 171.95Z" fill="#00B2F0" fill-opacity="1.000000" fill-rule="nonzero"/>
	<path id="Path" d="M103 171.95L103 155L107.29 155L107.29 159.9C107.29 160.42 107.27 160.97 107.23 161.54C107.19 162.11 107.15 162.67 107.09 163.24C107.05 163.81 106.99 164.36 106.91 164.9C106.85 165.45 106.78 165.94 106.72 166.4L106.83 166.4L108.39 162.59L112.04 155.02L116.63 155.02L116.63 171.97L112.34 171.97L112.34 167.07C112.34 166.02 112.4 164.93 112.54 163.79C112.69 162.63 112.79 161.58 112.89 160.61L112.79 160.61L111.22 164.4L107.58 172L103 172L103 171.95Z" fill="#00B2F0" fill-opacity="1.000000" fill-rule="nonzero"/>
	<path id="Shape" d="M128.645 171.958L128.645 166.277L127.261 166.277L124.066 171.958L119.121 171.958L123.211 165.541C122.316 165.1 121.604 164.489 121.054 163.669C120.505 162.849 120.24 161.796 120.24 160.492C120.24 159.439 120.423 158.556 120.77 157.841C121.115 157.146 121.604 156.578 122.194 156.157Q123.079 155.526 124.27 155.274C125.063 155.105 125.897 155.021 126.793 155.021L133 155.021L133 171.979L128.645 171.958ZM128.645 162.722L127.078 162.722C125.328 162.722 124.453 161.985 124.453 160.492Q124.453 159.584 124.907 159.146Q125.005 159.05 125.125 158.977C125.572 158.703 126.223 158.556 127.078 158.556L128.645 158.556L128.645 162.722Z" clip-rule="evenodd" fill="#00B2F0" fill-opacity="1.000000" fill-rule="evenodd"/>
	<path id="Shape" d="M39 173.397L39 194.603L47.1055 194.603C48.208 194.603 49.2495 194.478 50.2495 194.247C51.25 193.996 52.1079 193.62 52.8428 193.118C53.5776 192.595 54.1699 191.947 54.5986 191.152C55.0273 190.357 55.252 189.416 55.252 188.329C55.252 186.928 54.9048 185.819 54.2104 185.024C53.5166 184.23 52.6792 183.687 51.6787 183.373L51.6787 183.247C52.0874 183.101 52.4346 182.871 52.7612 182.536C53.0879 182.201 53.353 181.825 53.5776 181.407C53.8022 180.988 53.9858 180.528 54.1084 180.068Q54.2925 179.379 54.2925 178.688C54.2925 177.643 54.0879 176.785 53.6797 176.095C53.2715 175.405 52.6997 174.882 52.0054 174.485C51.291 174.088 50.4741 173.815 49.5146 173.648Q48.0752 173.397 46.4521 173.397L39 173.397ZM44.4717 181.679L46.3091 181.679C47.2075 181.679 47.8608 181.49 48.2896 181.094C48.7183 180.696 48.9229 180.173 48.9229 179.524C48.9229 178.877 48.7183 178.396 48.2896 178.124C47.8608 177.831 47.2075 177.705 46.3091 177.705L44.4717 177.705L44.4717 181.679ZM46.6973 190.295L44.4717 190.295L44.4717 185.799L46.6973 185.799C47.7793 185.799 48.5962 185.945 49.1064 186.279C49.6167 186.614 49.8823 187.179 49.8823 187.952C49.8823 189.521 48.8203 190.295 46.6973 190.295Z" clip-rule="evenodd" fill="#00B2F0" fill-opacity="1.000000" fill-rule="evenodd"/>
	<path id="Path" d="M67.5 195C66.19 195 64.92 194.77 63.72 194.33C62.52 193.89 61.47 193.2 60.58 192.3C59.68 191.4 58.96 190.27 58.43 188.91C57.9 187.55 57.64 185.96 57.64 184.16C57.64 182.39 57.92 180.8 58.47 179.42C59.02 178.04 59.76 176.86 60.68 175.92C61.6 174.98 62.66 174.25 63.86 173.75C65.07 173.25 66.31 173 67.64 173C69.03 173 70.25 173.27 71.34 173.83C72.42 174.4 73.34 175.05 74.07 175.8L71.21 179.39C70.7 178.93 70.17 178.56 69.64 178.27C69.09 177.97 68.48 177.83 67.78 177.83C67.17 177.83 66.6 177.97 66.05 178.24C65.5 178.54 65.03 178.93 64.62 179.46C64.21 179.98 63.88 180.63 63.64 181.38C63.39 182.13 63.27 182.99 63.27 183.95C63.27 185.96 63.68 187.49 64.5 188.55C65.31 189.62 66.39 190.14 67.72 190.14C68.54 190.14 69.25 189.96 69.87 189.6C70.5 189.24 71.03 188.81 71.48 188.3L74.34 191.82C73.44 192.86 72.42 193.64 71.25 194.16C70.09 194.68 68.84 195 67.5 195Z" fill="#00B2F0" fill-opacity="1.000000" fill-rule="nonzero"/>
	<path id="Path" d="M77.54 195C76.91 195 76.4 194.97 75.99 194.93C75.6 194.89 75.21 194.81 74.87 194.68L75.83 189.66C75.95 189.7 76.09 189.75 76.24 189.77C76.38 189.79 76.54 189.81 76.73 189.81C76.97 189.81 77.22 189.77 77.44 189.66C77.66 189.56 77.89 189.35 78.09 189.04C78.3 188.7 78.52 188.22 78.73 187.59C78.93 186.94 79.16 186.09 79.4 185C79.83 183.08 80.2 181.17 80.52 179.25C80.85 177.32 81.2 175.4 81.56 173.46L94.3 173.46L94.3 194.66L88.83 194.66L88.83 178.16L85.77 178.16C85.55 179.5 85.32 180.77 85.1 181.99C84.89 183.18 84.67 184.39 84.42 185.61C84.06 187.45 83.67 188.99 83.26 190.21C82.85 191.42 82.36 192.4 81.83 193.11C81.28 193.82 80.67 194.33 79.97 194.64C79.28 194.85 78.46 195 77.54 195Z" fill="#00B2F0" fill-opacity="1.000000" fill-rule="nonzero"/>
	<path id="Path" d="M102.92 195C102.27 195 101.7 194.95 101.23 194.87C100.76 194.79 100.37 194.68 100.04 194.54L101 189.7C101.19 189.77 101.41 189.83 101.61 189.89C101.84 189.96 102.19 189.98 102.66 189.98C103.02 189.98 103.35 189.91 103.66 189.81C103.96 189.7 104.21 189.52 104.37 189.29L104.62 188.83L97.63 173.39L103.43 173.39L105.27 178.33L107.05 183.74L107.17 183.74L108.88 178.33L110.54 173.39L116.01 173.39L109.76 189.41C109.09 191.15 108.21 192.51 107.13 193.51C106.07 194.49 104.66 195 102.92 195Z" fill="#00B2F0" fill-opacity="1.000000" fill-rule="nonzero"/>
	<path id="Path" d="M115.87 194.6L121.48 183.7L116.19 173.39L122.32 173.39L123.73 176.84C123.95 177.35 124.2 177.89 124.42 178.45C124.64 179.04 124.91 179.67 125.2 180.36L125.32 180.36C125.54 179.67 125.77 179.02 125.99 178.45C126.2 177.87 126.4 177.35 126.6 176.84L127.81 173.39L133.67 173.39L128.38 183.95L134 194.6L127.87 194.6L126.22 190.81C125.97 190.25 125.73 189.68 125.48 189.12C125.26 188.55 125.01 187.95 124.75 187.3L124.62 187.3C124.4 187.95 124.17 188.55 123.95 189.12C123.75 189.68 123.52 190.25 123.28 190.81L121.75 194.6L115.87 194.6Z" fill="#00B2F0" fill-opacity="1.000000" fill-rule="nonzero"/>
</svg>
