<svg width="240.000000" height="49.599609" viewBox="0 0 240 49.5996" fill="none" xmlns="http://www.w3.org/2000/svg" xmlns:xlink="http://www.w3.org/1999/xlink">
	<desc>
			Created with Pixso.
	</desc>
	<defs/>
	<path id="Fill 1" d="M125.109 18.5371C124.827 18.3672 122.375 17.9834 120.752 20.209C118.015 23.9561 116.968 29.7314 116.836 35.8467C116.686 42.915 117.651 49.2881 120.005 49.5986C120.241 49.6299 120.257 49.1367 120.307 47.6885C120.359 46.1494 120.448 43.5312 120.876 39.3193C121.774 30.4678 123.382 25.5518 124.194 22.0615C124.428 21.0557 124.686 20.2305 124.873 19.6309C125.077 18.9746 125.197 18.5898 125.109 18.5371ZM136.388 30.4365C137.717 23.6953 141.968 18.2412 146.132 19.1514C146.317 19.1914 146.251 19.8477 146.13 21.0635C145.915 23.2168 145.523 27.1279 146.037 32.4883C146.532 37.6426 148.35 42.0537 149.413 44.6309C150.028 46.125 150.39 47.0039 150.093 47.0527C147.75 47.4443 143.714 46.8887 142.283 39.9658C141.027 33.876 141.82 26.249 143.5 22.2295C143.913 21.2402 144.543 20.2422 144.9 19.873C143.505 20.2598 140.855 21.4863 139.741 27.0342C138.312 34.1465 138.808 36.8857 137.425 40.0918C135.741 43.9912 133.562 43.7695 132.292 43.5244C131.347 43.3398 130.423 42.7432 129.861 42.1924C130.082 42.8418 130.314 43.4346 130.57 43.9229C131.693 46.082 133.003 46.3281 133.252 46.7598C133.5 47.1904 132.256 47.8701 130.445 47.8701C128.637 47.8701 126.144 46.7842 124.913 42.7188C124.323 40.7666 124.028 36.5977 123.534 34.5332C123.337 33.7061 123.012 33.1279 122.781 32.7197C122.575 32.3535 122.446 32.123 122.554 31.9727C122.679 31.7979 123.111 31.6504 123.448 31.3906C124.767 30.3789 125.197 28.6611 126.12 26.8584C127.15 24.8467 127.938 23.5488 129.446 22.8037C131.567 21.7568 133.657 22.2686 134.04 23.3682C134.086 23.499 133.841 23.5186 133.481 23.5479C132.835 23.6006 131.82 23.6826 131.445 24.4863C130.73 26.0146 129.898 27.1309 127.974 28.5068C126.672 29.4395 125.362 30.3789 124.428 31.0166C125.191 30.7188 125.962 30.5254 126.273 30.5518C126.81 30.5986 127.405 31.1143 128.166 35.0205C128.495 36.7139 128.943 39.0605 129.521 41.0879C129.987 40.8818 131.07 41.0078 132.089 40.1143C133.814 38.6064 135.101 36.9697 136.388 30.4365Z" clip-rule="evenodd" fill="#3C6DB0" fill-opacity="1.000000" fill-rule="evenodd"/>
	<path id="Fill 3" d="M218.51 18.53C218.24 18.36 215.9 17.98 214.35 20.2C211.73 23.95 210.73 29.73 210.61 35.84C210.46 42.91 211.39 49.28 213.63 49.59C214.1 49.66 213.67 47.49 214.47 39.31C215.33 30.46 216.86 25.55 217.64 22.06C218.11 19.95 218.67 18.63 218.51 18.53Z" fill="#3C6DB0" fill-opacity="1.000000" fill-rule="evenodd"/>
	<path id="Fill 5" d="M223.93 44.05C222.84 41.9 222.1 37.76 221.61 35.17C220.87 31.27 220.3 30.75 219.78 30.7C219.48 30.67 218.74 30.87 218 31.17C218.9 30.53 220.16 29.59 221.42 28.66C223.28 27.29 224.08 26.17 224.77 24.65C225.33 23.39 227.4 23.89 227.28 23.53C226.9 22.43 224.89 21.92 222.84 22.97C221.39 23.71 220.63 25.01 219.64 27.01C218.74 28.82 218.33 30.53 217.06 31.54C216.73 31.8 216.31 31.95 216.19 32.12C215.97 32.44 216.78 33.11 217.14 34.68C217.62 36.74 217.9 40.9 218.47 42.85C219.66 46.91 222.06 48 223.81 48C225.55 48 226.76 47.32 226.52 46.89C226.27 46.46 225.01 46.21 223.93 44.05Z" fill="#3C6DB0" fill-opacity="1.000000" fill-rule="evenodd"/>
	<path id="Fill 7" d="M159.51 20.8C157.51 20.85 155.75 21.94 154.4 23.43C153.05 24.91 153.14 27.07 153.56 27.35C154.39 27.88 156.77 26.2 157.23 25.49C157.7 24.77 157.33 21.34 158.95 21.71C159.59 21.85 159.04 26.32 158.84 26.61C158.49 27.12 153.32 31.71 151.46 35.27C149.78 38.48 149.56 43.58 152.12 44.58C153.92 45.28 155.63 44.18 156.94 42.43C158.04 40.97 158.57 38.51 158.27 38.36C157.97 38.22 156.93 40.75 155.95 40.62C155.25 40.53 154.44 37.98 155.47 34.35C156.49 30.71 158.75 28.01 158.75 28.01C158.75 28.01 158.52 31.61 158.89 35.84C159.41 41.94 161.43 44.44 162.16 44.37C162.57 44.33 162.56 43.29 163.01 40.77C163.44 38.28 164.07 33.04 163.44 26.73C162.93 21.69 161.18 20.75 159.51 20.8Z" fill="#3C6DB0" fill-opacity="1.000000" fill-rule="evenodd"/>
	<mask id="mask0_1322" mask-type="alpha" maskUnits="userSpaceOnUse" x="226.490234" y="20.799805" width="13.509766" height="24.000000">
		<path id="Clip 10" d="M226.49 20.79L240 20.79L240 44.79L226.49 44.79L226.49 20.79Z" fill="#000000" fill-opacity="1.000000" fill-rule="evenodd"/>
	</mask>
	<g mask="url(#mask0_1322)">
		<path id="Fill 9" d="M239.73 26.73C239.22 21.69 237.47 20.75 235.8 20.8C233.8 20.85 232.04 21.95 230.69 23.43C229.34 24.91 229.43 27.07 229.85 27.35C230.68 27.88 233.06 26.2 233.52 25.49C233.99 24.77 233.62 21.34 235.24 21.71C235.88 21.85 235.33 26.32 235.13 26.61C234.78 27.12 229.61 31.71 227.75 35.27C226.07 38.48 225.85 43.58 228.42 44.58C230.21 45.28 231.92 44.18 233.23 42.43C234.34 40.97 234.86 38.51 234.56 38.37C234.27 38.22 233.22 40.75 232.24 40.62C231.54 40.53 230.74 37.98 231.76 34.35C232.78 30.71 235.04 28.01 235.04 28.01C235.04 28.01 234.82 31.61 235.18 35.84C235.7 41.94 237.72 44.44 238.46 44.37C238.86 44.33 238.85 43.29 239.3 40.77C239.74 38.29 240.36 33.04 239.73 26.73Z" fill="#3C6DB0" fill-opacity="1.000000" fill-rule="evenodd"/>
	</g>
	<path id="Fill 12" d="M208.82 23.34C205.01 23.04 203.56 25.5 202.85 28.38C202.03 31.77 202.33 35.52 202.35 36.5C202.37 37.47 200.98 40.01 199.96 39.93C197.8 39.75 197.43 33.25 198.12 28.82C199.37 20.77 201.12 19.36 200.7 19.25C198.38 18.63 194.44 23.64 192.93 30.49C191.6 36.52 192.39 41.88 195.72 43.44C197.5 44.27 199.34 43.33 200.83 41.75C201.57 40.97 202.44 39.58 202.76 38.69C203.51 43.04 207.69 45.06 208.29 44.77C208.82 44.51 207.27 42.98 206.84 38.92C206.5 35.65 206.6 31.75 207.5 27.45C208.31 23.56 209.45 23.39 208.82 23.34Z" fill="#3C6DB0" fill-opacity="1.000000" fill-rule="evenodd"/>
	<path id="Fill 14" d="M55.44 24.94C51.63 24.64 50.18 27.09 49.48 29.98C48.65 33.37 48.96 37.11 48.97 38.09C48.99 39.07 47.6 41.61 46.58 41.53C44.42 41.35 44.05 34.85 44.74 30.42C45.99 22.37 47.74 20.96 47.33 20.85C45.01 20.23 41.06 25.24 39.55 32.09C38.22 38.12 39.01 43.47 42.34 45.03C44.12 45.87 45.97 44.93 47.46 43.35C48.2 42.57 49.06 41.19 49.38 40.29C50.13 44.64 54.31 46.66 54.92 46.37C55.44 46.11 53.89 44.57 53.47 40.52C53.13 37.25 53.22 33.35 54.12 29.05C54.93 25.16 56.08 24.99 55.44 24.94Z" fill="#3C6DB0" fill-opacity="1.000000" fill-rule="evenodd"/>
	<path id="Fill 16" d="M101.96 21.73C101.94 20.95 101.79 20.94 101.31 21.05C100.99 21.12 100.56 21.34 100.27 21.55C99.95 21.78 99.5 22.08 99.23 22.08C98.91 22.08 95.7 20.55 93.37 20.83C91.03 21.11 89.93 22.98 90.32 25.3C90.72 27.62 94.53 29.23 94.53 29.23C94.53 29.23 92.09 28.56 91.03 32.76C90.41 35.23 88.83 40.2 87.34 42.22C86.43 43.46 85.48 44.08 84.8 44.47C84.89 43.9 85 43.08 85.2 41.97C85.64 39.52 86.27 34.35 85.63 28.12C85.13 23.14 83.36 22.21 81.68 22.26C79.67 22.32 77.9 23.4 76.54 24.86C75.19 26.32 75.27 28.46 75.7 28.73C76.53 29.25 78.93 27.6 79.39 26.89C79.86 26.18 79.49 22.8 81.12 23.16C81.76 23.3 81.21 27.71 81.01 28C80.66 28.5 75.45 33.03 73.58 36.55C71.9 39.71 71.67 44.75 74.25 45.73C76.06 46.43 77.78 45.33 79.1 43.61C80.21 42.17 80.73 39.74 80.44 39.6C80.14 39.46 79.09 41.95 78.1 41.82C77.39 41.73 76.59 39.22 77.62 35.63C78.65 32.05 80.92 29.39 80.92 29.39C80.92 29.39 80.69 32.94 81.06 37.11C81.55 42.81 83.4 45.31 84.22 45.51C84.7 45.74 85.6 45.92 86.68 45.92C89.38 45.92 92.8 43.82 93.88 39.69C95.22 34.55 96.9 29.77 96.25 29.27C95.5 28.67 92.73 25.94 93.98 23.28C94.69 21.77 98.3 22.66 98.56 23.24C98.66 23.45 98.25 24.68 98.01 25.51C97.3 27.98 96.96 31.03 97.13 34.24C97.5 41.36 99.61 47.36 101.96 47.19C102.78 47.13 102.51 42.17 102.27 33.89C102.01 25.25 101.98 22.46 101.96 21.73Z" fill="#3C6DB0" fill-opacity="1.000000" fill-rule="evenodd"/>
	<mask id="mask0_1328" mask-type="alpha" maskUnits="userSpaceOnUse" x="0.000000" y="0.000000" width="39.734863" height="48.799805">
		<path id="Clip 19" d="M0 0L39.73 0L39.73 48.79L0 48.79L0 0Z" fill="#000000" fill-opacity="1.000000" fill-rule="evenodd"/>
	</mask>
	<g mask="url(#mask0_1328)">
		<path id="Fill 18" d="M19.2549 25.5166C20.6357 15.1221 25.688 4.64648 28.3433 0.991211C28.833 0.316406 30.5459 -1.41016 29.5361 2.31543C28.6191 5.69922 27.2021 12.8672 25.0776 27.1221C24.8384 28.7256 24.6123 30.2549 24.3984 31.7051C22.7847 42.6211 21.8398 49.0146 21.0273 48.7949C18.3535 48.0693 17.6826 37.333 19.2549 25.5166ZM16.7422 17.4756C17.0356 19.8877 17.8423 21.7021 18.6689 23.0264C18.8203 23.2695 18.8027 23.3633 18.7432 23.4541C18.626 23.6318 16.793 24.1816 16.271 26.7969C15.688 29.6963 15.8955 34.7871 13.0913 41.209C10.1436 47.9531 5.07178 46.9902 3.38525 46.0498C0.364746 44.3633 -0.466309 39.7871 0.231445 39.7539C0.57666 39.7373 0.683105 39.873 0.864746 40.1055C1.05029 40.3418 1.31396 40.6787 1.99072 41.0557C3.32471 41.8027 5.77051 41.3281 7.86816 38.1953C9.80615 35.2998 10.1021 31.5605 11.9185 27.4707C13.1255 24.749 15.7534 23.3223 17.4272 23.1055C16.6636 22.7217 15.0117 21.7266 13.8628 19.9463C12.7305 18.1982 11.6216 15.4707 11.0972 13.4883C10.8208 12.4395 10.126 12.3828 9.69238 12.3477C9.45312 12.3281 9.29346 12.3154 9.32715 12.1455C9.60742 10.7236 14.1143 9.83496 15.6738 11.1943C16.418 11.8447 16.4668 12.9902 16.5381 14.6582C16.5732 15.4727 16.6133 16.4102 16.7422 17.4756ZM34.4141 42.1211C33.1514 39.1318 32.8345 31.8506 32.7539 28.2354C32.6128 22.085 30.5776 22.3564 30.5776 22.3564C30.5776 22.3564 29.7578 22.416 28.897 22.6299C30.2446 21.8896 32.2266 20.5459 33.104 18.7354C33.811 17.2852 33.8477 15.7109 33.8745 14.5557C33.8994 13.4766 33.916 12.7627 34.4624 12.8555C35.3564 13.0107 36.0703 13.7529 36.0591 15.3828C36.0547 16.0312 35.9028 16.4629 35.8003 16.7529C35.7051 17.0225 35.6528 17.1719 35.7998 17.2598C36.1089 17.4463 39.1548 17.1689 39.645 14.6436C40.0332 12.6367 39.1216 11.165 37.8076 10.7461C35.7671 10.0947 33.4536 11.5107 32.2397 13.9043C31.3228 15.7129 30.8667 17.3926 30.292 18.8115C29.4741 20.8164 28.9941 22.2109 27.6753 23.0088C27.4678 23.1377 26.8101 23.4111 26.6411 23.6318C26.231 24.166 26.457 33.5625 27.5288 38.123C28.8428 43.7148 31.5952 47.2676 34.9282 47.1777C37.0967 47.1182 38.6172 46.6875 38.3359 46.0889C38.0537 45.4883 35.6753 45.1084 34.4141 42.1211Z" clip-rule="evenodd" fill="#3C6DB0" fill-opacity="1.000000" fill-rule="evenodd"/>
	</g>
	<path id="Fill 21" d="M70.23 20.45C72.57 16.16 71.45 13.09 69.09 12.83C66.42 12.53 64.2 14.36 61.94 18.65C59.75 22.82 58.11 27.08 57.48 33.38C56.83 39.88 57.41 43.6 58.81 45.47C59.85 46.91 61.05 47.66 63.63 46.88C67.17 45.81 71.3 41.34 71.48 36.2C71.67 31.17 69.45 27.99 68.1 27.52C66.75 27.05 63.33 29.01 63.58 29.28C65.24 31.08 66.87 33.39 67.17 36.69C67.62 41.67 66.07 44.79 64.08 45.33C62.15 45.85 61.79 43.11 62.21 36.6C62.61 30.38 63.44 23.88 64.74 18.94C66.24 13.19 67.75 13.56 68.43 15.13C69.59 17.81 64.23 25.73 64.32 25.92C64.62 26.54 68.75 23.15 70.23 20.45Z" fill="#3C6DB0" fill-opacity="1.000000" fill-rule="evenodd"/>
	<path id="Fill 23" d="M191.35 37.98C190.85 37.61 188.2 41.51 185.37 41.51C184.48 41.51 183.1 38.88 183.46 32.81C183.56 31.09 184.18 26.58 184.97 24.62C185.76 22.67 186.19 22.11 187.1 22.14C187.88 22.16 188.27 23.36 188.08 24.7C187.97 25.48 187.79 26.84 187.96 27.11C188.14 27.38 190.45 26.52 190.78 24.95C191.28 22.65 189.72 20.88 187.77 20.89C187.26 20.89 186.44 20.89 185.29 21.6C182.65 23.21 179.62 26.87 178.32 32.71C177.94 34.45 177.75 36.15 177.77 37.71C176.67 38.7 175.2 39.81 173.69 39.81C172.8 39.81 171.42 37.19 171.78 31.11C171.88 29.4 172.5 24.88 173.29 22.93C174.08 20.98 174.51 20.42 175.42 20.45C176.2 20.47 176.59 21.67 176.4 23.01C176.29 23.79 176.1 25.15 176.28 25.42C176.46 25.69 178.77 24.83 179.1 23.25C179.6 20.96 178.03 19.18 176.08 19.2C175.58 19.2 174.76 19.2 173.6 19.91C170.97 21.52 167.94 25.17 166.64 31.02C165.35 36.83 166.28 42.38 169.94 43.01C173.02 43.54 175.83 41.72 177.91 39.59C178.3 42.33 179.51 44.34 181.62 44.7C184.94 45.27 187.94 43.12 190.07 40.78C191.17 39.57 191.85 38.35 191.35 37.98Z" fill="#3C6DB0" fill-opacity="1.000000" fill-rule="evenodd"/>
</svg>
