<svg width="244" height="234" viewBox="0 0 244 234" fill="none" xmlns="http://www.w3.org/2000/svg">
<path fill-rule="evenodd" clip-rule="evenodd" d="M243.453 177.209C243.453 181.457 240.009 184.9 235.762 184.9C231.514 184.9 228.07 181.457 228.07 177.209C228.07 172.961 231.514 169.518 235.762 169.518C240.009 169.518 243.453 172.961 243.453 177.209" fill="#FF5ABC"/>
<path fill-rule="evenodd" clip-rule="evenodd" d="M156.222 213.061C156.222 224.47 146.973 233.719 135.564 233.719C124.155 233.719 114.906 224.47 114.906 213.061C114.906 201.652 124.155 192.403 135.564 192.403C146.973 192.403 156.222 201.652 156.222 213.061" fill="#00B2F0"/>
<mask id="mask0_0_1669" style="mask-type:luminance" maskUnits="userSpaceOnUse" x="0" y="0" width="102" height="147">
<path fill-rule="evenodd" clip-rule="evenodd" d="M0 0H101.154V146.952H0V0Z" fill="white"/>
</mask>
<g mask="url(#mask0_0_1669)">
<path fill-rule="evenodd" clip-rule="evenodd" d="M39.705 50.629L50.577 0L61.449 50.629C62.737 56.629 67.424 61.315 73.424 62.604L101.154 73.476L73.424 84.348C67.424 85.636 62.737 90.323 61.449 96.322L50.577 146.952L39.705 96.322C38.417 90.323 33.73 85.636 27.73 84.348L0 73.476L27.73 62.604C33.73 61.315 38.417 56.629 39.705 50.629" fill="#FFA800"/>
</g>
</svg>
