<svg width="24.000000" height="19.218750" viewBox="0 0 24 19.2188" fill="none" xmlns="http://www.w3.org/2000/svg" xmlns:xlink="http://www.w3.org/1999/xlink">
	<desc>
			Created with Pixso.
	</desc>
	<defs/>
	<path id="Fill 1" d="M0.01 5.55C0.9 6.01 1.74 6.46 2.59 6.9C5.55 8.45 8.51 10 11.47 11.56C11.85 11.76 12.2 11.73 12.57 11.53C16.27 9.59 19.98 7.64 23.69 5.7C23.77 5.66 23.86 5.62 23.97 5.56C23.98 5.66 23.99 5.74 23.99 5.82C23.99 8.97 24 12.13 23.99 15.28C23.99 17.22 22.7 18.77 20.8 19.14C20.53 19.19 20.25 19.21 19.98 19.21C14.66 19.21 9.33 19.22 4 19.21C1.95 19.21 0.38 17.89 0.04 15.89C0 15.69 0 15.48 0 15.27C-0.01 12.12 0 8.97 0 5.82C0 5.74 0 5.67 0.01 5.55Z" fill="#FE9327" fill-opacity="1.000000" fill-rule="evenodd"/>
	<path id="Fill 4" d="M23.98 3.46C23.92 3.5 23.85 3.57 23.76 3.62C21.83 4.63 19.9 5.65 17.96 6.66C16.05 7.66 14.13 8.66 12.21 9.67C12.05 9.76 11.94 9.76 11.78 9.67C7.93 7.65 4.08 5.63 0.23 3.62C0.06 3.54 0.01 3.46 0.04 3.26C0.36 1.35 1.98 0 4 0C8.81 -0.01 13.61 0 18.41 0C19.12 0 19.84 -0.02 20.54 0.04C22.25 0.17 23.75 1.64 23.96 3.34C23.96 3.36 23.97 3.38 23.98 3.46Z" fill="#FE9327" fill-opacity="1.000000" fill-rule="evenodd"/>
</svg>
