<svg width="939.059326" height="955.427612" viewBox="0 0 939.059 955.428" fill="none" xmlns="http://www.w3.org/2000/svg" xmlns:xlink="http://www.w3.org/1999/xlink">
	<desc>
			Created with Pixso.
	</desc>
	<defs/>
	<path id="Shape" d="M645.053 77.3274C638.053 80.4274 631.053 83.4274 623.053 86.9274C623.453 84.0273 623.353 82.2274 624.553 80.9274C627.153 74.8274 629.653 68.6274 632.853 62.8274C638.253 52.9274 644.253 43.3274 649.753 33.4274C651.153 31.0273 652.053 28.2274 652.653 25.5273C653.453 22.0273 650.653 19.7274 647.253 20.9274C646.053 21.3274 644.853 22.1274 644.053 23.1274C641.153 26.5273 638.053 29.8274 635.553 33.5273C631.253 39.8274 627.453 46.5273 623.353 52.9274C622.253 54.7274 620.853 56.6274 619.153 57.7274C611.153 63.0273 602.953 68.1274 594.653 73.1274C592.253 74.5273 589.553 75.4274 586.153 76.9274C586.453 73.4274 586.453 70.7274 586.953 68.2274C588.553 60.2274 591.553 52.7274 594.853 45.2274C598.053 37.7274 601.153 30.2274 604.153 22.6274C604.853 20.9274 605.253 19.1274 605.553 17.3274C605.953 14.2274 604.553 12.2274 601.653 11.2274C598.753 10.2274 596.553 10.9274 594.953 13.8274C592.553 18.1274 590.753 22.8274 588.353 27.2274C586.953 29.7274 585.453 32.1274 583.453 34.0273C578.453 38.8274 573.153 43.4274 567.853 48.0273C559.853 54.8274 551.753 61.5273 542.553 66.6274C541.253 67.3274 539.953 67.8274 538.353 68.5273C537.582 63.8048 538.947 60.0111 540.3 56.251C540.351 56.1097 540.402 55.9686 540.453 55.8274C545.653 41.6274 551.053 27.4274 556.253 13.2274C557.053 11.1274 557.553 8.82739 557.953 6.52734C558.353 4.22742 557.153 2.72742 555.153 1.72742C551.053 -0.372559 547.453 0.827393 545.653 5.42737C541.053 16.8274 536.653 28.3274 532.053 39.7274C531.153 41.9274 530.353 44.3274 528.753 45.8274C520.553 53.4274 512.653 61.3274 503.153 67.3274C499.253 69.8274 494.953 71.5273 490.153 71.9274C483.953 72.4274 479.953 69.0273 479.653 62.8274C479.553 61.0273 479.553 59.1274 479.653 57.3274C480.353 46.5273 483.753 36.4274 488.653 26.9274C491.153 22.1274 494.253 17.4274 497.553 13.1274C499.953 10.0273 503.153 7.62744 507.653 7.82739C509.951 12.8558 508.122 17.1617 506.316 21.4126C505.608 23.0792 504.903 24.7374 504.453 26.4274C505.353 27.2274 505.953 27.8274 506.653 28.2274C507.353 28.6274 508.153 28.9274 508.953 29.2274C513.853 30.9274 516.853 29.8274 519.153 25.0273C520.253 22.8274 521.153 20.4274 521.653 18.0273C523.053 11.9274 521.253 6.92737 516.453 4.02734C508.653 -0.772583 496.453 -2.77258 486.953 6.62744C484.953 8.62744 483.153 10.8274 481.553 13.1274C474.153 24.4274 469.253 36.6274 466.853 49.9274C466.553 51.4274 465.853 53.2274 464.753 54.2274C457.753 60.9274 450.753 67.5273 443.553 73.9274C439.553 77.5273 435.053 80.4274 429.753 81.7274C423.153 83.3274 420.253 83.0273 417.253 75.5273C415.653 71.4274 414.953 66.7274 415.153 62.3274C415.653 53.8274 416.553 45.3274 419.653 37.3274C422.353 30.5273 425.353 23.8274 430.553 18.4274C432.853 16.0273 435.553 14.2274 439.353 13.9274C442.253 21.1274 439.253 26.5273 434.653 31.3274C437.753 36.4274 444.753 38.0273 448.353 34.3274C452.753 29.8274 454.653 24.1274 453.353 17.8274C452.853 15.6274 451.353 13.1274 449.553 11.6274C442.753 5.72742 432.153 4.92737 424.253 9.22742C415.153 14.2274 411.053 22.3274 409.253 32.1274C408.853 34.3274 408.153 36.7274 406.853 38.5273C400.253 47.4274 393.353 56.2274 386.553 65.0273C386.053 65.7274 385.253 66.2274 384.953 66.4274C383.453 59.9274 382.353 53.5273 380.453 47.4274C378.353 40.6274 374.253 34.9274 368.353 30.7274C358.153 23.5273 344.953 29.1274 341.253 37.9274C339.653 41.6274 338.253 45.3274 336.753 49.2274C333.353 50.3274 332.253 52.9274 332.553 56.5273C332.753 58.7274 332.753 60.8274 332.953 63.0273C334.353 79.7274 331.453 95.8274 327.153 111.827C326.353 114.927 324.653 117.827 323.253 121.127C319.953 118.427 318.353 115.327 317.353 111.927C314.753 103.027 312.353 94.0273 309.553 85.1274C307.353 78.0273 305.053 70.8274 302.053 64.0273C299.353 57.7274 294.253 56.6274 288.553 60.4274C286.853 61.5273 285.253 62.9274 284.253 64.5273C281.553 69.2274 278.853 74.0273 276.653 79.0273C274.753 83.2274 273.653 87.7274 271.953 92.9274C270.653 89.5273 269.653 86.7274 268.553 84.0273C267.153 80.6274 265.253 79.8274 261.953 81.5273C260.653 82.2274 259.653 83.3274 258.653 84.1274C259.153 86.5273 259.653 88.5273 260.053 90.4274C262.553 102.627 265.253 114.827 265.753 127.327C266.353 141.627 264.853 155.627 260.653 169.227C259.653 172.527 257.853 175.527 256.253 178.627C255.153 180.727 253.253 181.027 251.053 180.627C246.653 179.727 239.953 172.427 239.453 167.927C239.378 167.477 239.528 167.027 239.692 166.535C239.747 166.371 239.803 166.202 239.853 166.027C244.353 164.427 247.153 161.127 248.653 156.927C250.753 150.627 253.053 144.327 254.353 137.827C256.053 129.427 254.453 121.227 250.653 113.527C248.253 108.627 244.553 105.127 239.153 104.027C230.553 102.227 220.953 107.327 217.353 115.427C215.153 120.327 214.753 125.427 215.253 130.627C216.553 144.227 220.753 157.027 227.053 169.027C228.853 172.527 229.453 175.827 229.053 179.527C227.553 192.727 225.453 205.927 220.853 218.527C218.853 223.827 216.253 228.927 213.353 233.727C211.153 237.327 209.553 237.627 205.753 235.727C203.453 234.627 201.153 233.027 199.253 231.227C195.153 227.527 192.153 222.827 189.953 217.727C184.153 204.627 178.753 191.427 175.253 177.427C173.453 169.827 175.453 165.427 181.953 162.127C183.953 161.127 185.653 161.227 187.053 162.527C191.353 166.627 193.953 171.627 194.853 177.527C191.653 179.727 187.253 179.727 186.353 184.127C188.853 188.727 192.453 190.627 196.853 189.727C203.053 188.527 207.253 184.727 207.753 179.627C208.553 170.927 205.053 163.727 198.853 157.827C196.753 155.727 193.953 154.927 191.053 154.827C185.453 154.627 180.653 156.727 176.153 159.827C167.453 165.827 163.253 174.527 161.053 184.327C157.553 199.427 156.153 214.827 156.053 230.327C155.953 231.727 155.953 233.027 155.853 234.427C155.453 234.627 155.053 234.927 154.653 235.127C153.753 233.927 153.053 232.527 151.953 231.527C145.553 225.427 138.753 219.727 130.553 216.127C119.053 211.027 106.053 214.227 98.1528 224.027C95.8528 226.927 93.9529 230.227 91.6528 233.627C90.8528 232.227 90.3528 231.127 89.6528 230.027C84.6528 222.027 79.7527 213.827 74.3528 206.127C68.6528 197.927 61.5527 190.827 53.5527 184.727C46.0527 179.127 38.0527 177.927 29.6528 181.927C25.8528 183.727 22.0527 186.127 18.8528 188.927C11.2527 195.627 6.45288 204.127 3.75269 213.827C-0.847168 230.527 -0.847168 247.327 1.75269 264.327C4.25269 280.527 9.75269 295.527 17.4529 309.827C21.0527 316.327 25.1528 322.327 31.0527 326.927C33.1528 328.527 35.4529 330.127 37.9529 330.827C42.5527 332.227 46.8528 331.027 50.2527 327.427C53.3528 324.127 52.4529 320.327 50.8528 316.727C49.4529 313.527 47.9529 310.327 46.1528 307.327C40.1528 297.727 32.5527 289.627 23.5527 282.827C20.6528 280.627 17.8528 278.827 13.6528 279.827C12.7527 277.327 11.8528 275.027 11.2527 272.627C7.95288 258.627 6.45288 244.427 8.05273 230.027C9.05273 220.827 10.9529 211.927 15.1528 203.627C18.2527 197.427 22.3528 192.027 28.2527 188.127C32.1528 185.627 36.1528 185.127 39.8528 188.027C43.7527 191.027 47.7527 194.127 51.0527 197.827C67.2527 216.027 79.2527 236.827 88.1528 259.527C89.2527 262.127 90.3528 264.727 91.3528 267.027C99.6528 267.627 102.653 264.527 101.153 257.327C101.153 256.927 101.053 256.627 100.953 256.327C98.9529 245.227 100.753 234.827 107.253 225.427C109.553 222.027 112.753 221.027 116.353 222.227C119.653 223.327 122.953 224.727 125.853 226.627C137.153 233.927 146.453 243.427 154.653 254.027C155.953 255.827 156.553 257.727 156.553 260.027C156.653 266.027 156.753 272.027 157.053 278.027C157.553 288.927 158.653 299.827 161.753 310.427C163.453 316.027 165.453 321.527 169.053 326.227C172.353 330.527 176.553 331.527 181.453 329.427C185.953 327.527 189.253 324.327 191.053 319.727C192.553 316.027 193.353 312.227 192.553 308.427C191.153 301.427 189.653 294.427 187.453 287.627C182.553 272.627 175.053 258.927 165.553 246.327C164.453 244.827 163.153 242.927 163.153 241.127C162.853 229.827 162.553 218.527 163.953 207.227C164.553 202.227 165.453 197.327 166.353 191.627C167.153 192.727 167.453 193.127 167.653 193.527C170.953 202.227 174.153 211.027 177.653 219.627C180.453 226.627 184.253 233.027 190.253 237.927C200.153 246.027 213.253 244.727 221.253 234.727C223.753 231.527 225.853 227.827 227.653 224.127C231.653 215.627 234.253 206.727 235.953 197.527C236.753 193.227 237.453 188.927 238.153 184.527C250.053 188.927 259.653 186.327 266.453 176.427C268.453 173.427 270.053 170.027 271.253 166.627C272.953 161.627 274.053 156.327 275.553 150.627C280.353 164.927 285.053 178.727 289.753 192.527C293.353 203.227 296.853 214.027 300.653 224.627C302.053 228.427 304.353 231.927 306.053 235.327C306.371 235.35 306.652 235.373 306.905 235.393C307.766 235.463 308.289 235.505 308.753 235.427C313.953 234.727 315.353 233.027 314.653 227.827C314.453 226.127 314.153 224.527 313.653 222.927C307.753 205.027 302.053 186.927 295.653 169.127C288.653 149.827 281.353 130.527 276.453 110.527C275.953 108.527 275.453 106.227 275.953 104.227C278.853 93.1274 282.253 82.1274 287.253 71.7274C288.153 70.0273 289.253 68.4274 290.553 66.1274C291.553 68.0273 292.353 69.1274 292.753 70.3274C294.453 75.3274 296.153 80.4274 297.653 85.5273C300.853 96.0273 303.853 106.627 307.053 117.127C307.753 119.327 308.953 121.427 310.253 123.327C313.853 128.427 317.953 129.527 323.753 127.427C329.153 125.527 332.753 121.627 334.753 116.527C336.953 111.027 338.653 105.327 340.453 99.8274C340.653 100.027 340.953 100.327 341.253 100.727C346.753 108.727 353.353 110.827 362.353 107.127C369.453 104.127 374.153 98.6273 377.553 91.9274C379.053 89.0273 380.353 85.8274 382.153 83.1274C387.953 74.6274 393.853 66.1274 399.753 57.7274C401.653 54.9274 403.753 52.3274 406.153 49.0273C406.153 51.3274 406.253 52.8274 406.253 54.3274C406.453 59.8274 406.253 65.3274 406.853 70.7274C407.753 79.4274 414.253 85.5273 422.853 86.6274C429.353 87.4274 435.453 86.1274 441.153 83.0273C447.553 79.4274 453.453 75.1273 458.253 69.4274C460.653 66.7274 463.253 64.2274 465.853 61.4274C466.653 62.8274 467.153 63.7274 467.653 64.5273C468.253 65.5273 468.853 66.6274 469.753 67.3274C478.853 75.2274 488.953 78.5273 500.653 73.7274C506.453 71.3274 511.353 67.7274 515.953 63.5273C519.353 60.4274 522.753 57.3274 526.553 53.8274C525.853 57.9274 525.053 61.3274 524.753 64.7274C524.253 69.8274 526.853 73.4274 531.353 75.4274C535.353 77.2274 539.653 77.8274 544.053 76.7274C549.253 75.4274 553.553 72.6274 557.353 69.1274C562.253 64.5273 566.953 59.8274 571.753 55.2274C573.353 53.6274 575.053 52.2274 576.753 50.7274C576.753 53.5273 575.853 55.8274 575.353 58.2274C574.353 62.9274 573.453 67.6273 572.953 72.4274C572.553 76.5273 574.953 79.3274 578.653 80.9274C583.553 83.0273 588.453 82.8274 593.153 80.4274C597.253 78.3274 601.153 75.8274 605.153 73.3274C608.253 71.4274 611.153 69.4274 614.853 67.0273C613.253 71.6274 611.753 75.2274 610.753 79.0273C608.953 86.0273 611.753 90.6273 618.553 92.9274C623.653 94.6273 628.353 94.1274 633.053 91.7274C638.553 88.9274 643.953 85.9274 649.453 83.1274C650.553 82.6274 651.753 82.2274 653.753 81.3274C652.653 83.5273 651.853 84.8274 651.353 86.1274C649.553 90.6274 647.753 95.0273 646.253 99.6274C645.253 102.827 646.653 105.527 649.453 107.327C651.053 108.327 652.753 109.027 654.453 109.627C659.953 111.527 665.553 111.227 671.153 109.827C675.953 108.627 680.753 107.427 686.153 106.027C684.953 107.927 683.953 109.227 683.153 110.627C679.753 116.627 679.853 122.627 683.653 128.527C686.753 133.427 691.553 135.727 696.953 136.327C707.153 137.327 717.453 137.927 727.753 138.627C729.77 138.702 731.843 138.609 733.931 138.516C734.637 138.484 735.345 138.453 736.053 138.427C735.153 140.027 733.953 140.927 732.753 141.627C727.953 144.527 722.953 147.227 718.153 150.227C716.353 151.327 714.253 152.427 714.253 155.027C714.253 158.427 715.753 161.227 718.453 163.127C720.456 164.49 722.01 163.476 723.577 162.453C723.966 162.2 724.355 161.946 724.753 161.727C733.453 156.727 742.153 151.827 751.053 146.727C752.753 149.527 755.153 150.027 757.953 150.127C760.353 150.227 762.753 150.727 764.553 152.927C763.953 154.027 763.553 154.927 762.853 155.627C758.153 160.827 753.353 165.927 748.653 171.027C745.853 174.127 743.053 177.127 740.253 180.227C738.753 182.027 738.453 184.127 739.153 186.327C740.553 191.127 743.353 194.627 748.653 195.327C749.214 195.404 749.775 195.493 750.335 195.583C751.969 195.843 753.588 196.102 755.153 196.027C761.753 195.827 768.453 195.327 775.053 195.027C780.153 194.827 785.153 194.727 791.053 194.627C788.853 195.827 787.153 196.527 785.653 197.427C782.753 199.027 779.753 200.627 777.153 202.627C772.453 206.227 770.953 212.427 772.953 217.927C775.353 224.627 780.253 228.527 787.053 230.027C789.553 230.627 792.353 230.827 794.953 230.627C800.253 230.327 805.553 229.727 810.853 229.027C815.353 228.527 819.853 228.227 824.453 228.927C819.553 231.727 814.453 234.227 809.453 236.727C806.253 238.327 802.853 239.927 799.853 241.927C796.353 244.227 795.553 247.127 796.853 251.027C798.253 255.427 801.153 258.527 805.653 259.827L834.453 268.227C835.753 268.627 836.953 268.927 838.553 269.327C833.253 271.627 828.353 273.527 823.653 275.927C819.053 278.227 817.653 281.727 818.953 286.727C820.653 293.327 824.153 298.427 831.153 300.627C840.653 303.727 850.053 307.127 859.453 310.427C860.253 310.727 860.953 311.327 862.253 312.027C859.753 312.827 858.053 313.327 856.353 313.927C851.553 315.727 846.553 317.227 841.953 319.427C836.353 322.127 835.653 327.827 840.353 331.927C847.453 338.027 855.753 341.927 864.653 345.227C864.453 341.227 864.453 341.227 861.353 339.527C856.753 336.927 852.153 334.427 846.953 331.527C848.553 330.727 849.453 330.227 850.353 329.927C857.353 327.727 864.253 325.427 871.253 323.327C881.553 320.127 891.953 317.227 902.253 313.927C905.053 313.027 907.553 311.327 909.853 310.227C910.553 306.527 909.053 304.627 906.253 304.127C903.653 303.627 900.853 303.227 898.353 303.627C891.653 304.727 884.953 306.127 878.353 307.627C876.153 308.127 874.253 308.327 872.053 307.427C860.053 302.627 847.853 298.027 835.853 293.227C833.253 292.227 830.853 290.727 827.553 288.927C830.753 287.427 832.853 286.127 835.153 285.227C847.553 280.227 860.053 275.227 872.553 270.227C875.853 268.927 879.053 267.527 882.053 265.827C884.853 264.227 885.653 262.227 884.453 259.527C882.653 255.327 880.553 254.227 876.153 255.427C871.853 256.627 867.653 258.227 863.453 259.827C857.053 262.227 850.853 264.827 844.753 267.227C841.353 264.027 841.253 264.227 835.153 262.427C827.053 260.027 819.053 257.327 810.953 254.727C809.853 254.327 808.853 253.527 807.053 252.527C816.353 248.127 824.953 244.127 833.553 240.127C842.453 236.027 851.453 232.027 860.353 227.927C865.253 225.627 865.653 220.427 860.953 217.527C859.553 216.627 857.353 216.427 855.753 216.727C852.653 217.327 849.753 218.627 846.653 219.427C846.245 219.533 845.835 219.643 845.423 219.754C843.109 220.376 840.745 221.012 838.453 220.927C823.653 220.427 808.853 219.727 794.053 219.027C789.953 218.827 785.853 218.027 781.353 217.527C783.653 213.127 787.153 211.027 790.653 209.327C802.053 203.827 813.553 198.627 824.953 193.327C829.253 191.327 833.753 189.427 837.953 187.127C841.053 185.427 841.453 183.027 839.653 180.027C838.053 177.527 835.953 176.427 832.853 177.227C830.253 177.827 827.653 178.727 825.253 179.727C817.953 182.827 810.653 185.927 803.353 189.227C800.553 190.527 797.753 191.127 794.653 191.027C785.853 190.727 776.953 190.927 768.153 190.627C762.153 190.427 755.953 190.527 749.253 188.427C751.453 186.227 753.253 184.327 755.153 182.627C760.953 177.427 766.253 172.027 770.753 165.727C773.353 162.127 773.753 158.427 772.053 154.427C771.453 153.227 770.853 151.927 770.253 150.627C786.053 148.827 797.053 148.727 802.953 150.527C801.453 151.527 799.953 152.427 798.653 153.227C798.253 161.527 803.353 165.527 810.353 162.527C811.153 162.227 811.953 161.927 812.653 161.527C814.853 160.327 816.053 158.527 816.153 155.927C816.753 145.527 807.753 138.027 797.953 141.227C787.053 144.727 776.053 145.027 764.853 144.627C762.653 144.527 760.553 144.027 757.553 143.627C762.953 140.527 767.753 138.127 772.253 135.427C777.053 132.527 781.853 129.527 786.453 126.227C789.453 124.127 789.653 122.127 788.153 119.327C786.653 116.427 784.953 115.427 781.653 116.327C778.453 117.227 775.353 118.627 772.453 120.127C764.853 124.127 757.253 128.227 749.653 132.427C746.953 133.927 744.153 134.627 741.053 134.427C730.753 133.927 720.453 133.727 710.153 132.927C704.753 132.427 699.353 131.327 693.953 130.227C691.253 129.627 688.553 128.627 687.153 125.927C688.553 121.627 689.653 119.527 693.853 116.027C699.453 111.327 705.353 106.927 711.253 102.627C718.053 97.7274 725.953 94.8274 733.853 92.1274C739.653 90.1274 745.553 90.1274 750.953 93.6274C750.953 96.6274 749.153 97.8274 747.353 99.0273C743.553 101.627 743.153 103.227 745.253 107.327C746.453 109.627 747.953 111.627 750.653 112.027C758.753 109.527 760.153 104.327 759.753 99.0273C758.853 88.8274 750.053 79.5273 740.153 78.5273C735.453 78.1274 730.753 78.3274 726.453 80.4274C722.853 82.1273 719.353 84.1274 715.853 86.0273C710.953 88.7274 706.253 92.2274 701.053 94.1274C691.753 97.5273 682.053 100.227 672.453 102.727C672.19 102.795 671.927 102.863 671.664 102.931C667.614 103.976 663.466 105.048 659.053 103.827C659.153 103.127 659.153 102.427 659.253 101.827C660.353 96.1274 663.053 91.1273 666.153 86.4274C671.253 78.8274 676.753 71.5273 681.853 63.9274C685.353 58.8274 688.653 53.6274 691.553 48.2274C693.753 43.9274 691.153 40.7274 686.253 41.1274C683.253 41.3274 681.053 43.2274 679.353 45.5273C676.653 49.1274 673.853 52.7274 671.553 56.5273C666.953 64.1274 661.253 70.3274 652.653 73.5273C649.953 74.5273 647.653 76.1274 645.053 77.3274ZM371.853 66.3274C371.453 60.4274 370.553 53.5273 367.553 47.0273C365.153 41.9274 361.953 37.6274 356.753 35.0273C352.653 32.9274 350.753 33.3274 348.353 37.1274C344.253 43.9274 341.353 51.1274 342.653 59.3274C343.153 62.8274 343.453 66.3274 344.153 69.7274C345.853 77.1274 347.553 84.6274 349.753 91.9274C350.653 94.8274 352.653 97.5273 354.753 99.8274C357.453 102.827 360.253 102.627 362.753 99.5273C364.453 97.3274 365.953 94.8274 367.153 92.3274C370.553 84.3274 372.053 76.0273 371.853 66.3274ZM237.253 156.727C236.753 157.927 235.553 158.827 234.253 160.527C233.153 158.227 232.253 156.827 231.953 155.427C229.753 147.227 227.353 139.127 225.553 130.927C224.353 125.727 224.853 120.327 226.553 115.227C227.053 113.527 228.053 112.027 228.953 110.227C233.453 110.127 236.353 112.227 238.453 115.727C241.053 119.927 241.753 124.727 242.153 129.527C242.953 139.027 240.753 148.027 237.253 156.727ZM178.453 323.027C182.153 311.327 174.153 282.527 163.853 269.227C163.953 274.127 164.053 279.127 164.253 284.027C164.553 292.727 166.153 301.227 169.053 309.427C170.853 314.627 173.253 319.527 178.453 323.027ZM16.2527 286.127C25.9529 296.627 35.6528 307.127 40.3528 321.027C28.1528 312.327 21.4529 299.727 16.2527 286.127Z" clip-rule="evenodd" fill="#FFFFFF" fill-opacity="1.000000" fill-rule="evenodd"/>
	<path id="Path" d="M111.15 388.12C107.75 394.52 111.05 399.62 114.35 404.62C119.35 412.32 126.05 417.62 135.25 419.72C139.55 420.62 142.75 419.72 145.35 416.32C150.35 409.92 150.55 402.82 147.95 395.52C144.85 386.52 139.95 378.32 134.45 370.62C127.45 360.92 120.05 351.42 112.35 342.32C90.45 316.22 68.25 290.52 46.45 264.52C41.25 258.32 36.85 251.32 32.55 244.42C28.25 237.52 26.15 229.82 25.85 221.62C25.55 210.42 31.75 201.52 41.65 198.92C45.05 198.02 48.15 198.22 50.65 201.12C48.95 204.12 48.95 204.12 42.05 204.52C39.95 206.82 39.25 209.82 38.85 213.02C37.55 224.02 40.85 233.82 46.85 242.82C57.45 258.82 70.05 273.22 82.65 287.62C101.85 309.52 121.15 331.32 139.05 354.32C147.25 364.82 154.25 376.12 159.55 388.52C162.15 394.62 163.05 400.92 161.05 407.42C158.45 415.82 152.65 421.12 144.85 424.62C136.25 428.52 128.05 427.52 120.05 423.02C110.55 417.72 105.55 408.92 101.95 399.32C99.65 393.12 104.45 387.42 111.15 388.12Z" fill="#FFFFFF" fill-opacity="1.000000" fill-rule="nonzero"/>
	<path id="Path" d="M678.55 14.82C683.35 14.02 686.95 11.62 690.65 9.52C693.15 8.12 695.75 7.02 698.65 8.42C699.25 8.72 699.75 9.02 700.05 9.22C699.85 10.12 699.85 10.62 699.65 10.72C692.75 17.02 684.75 21.32 675.25 22.02C673.45 22.12 671.55 21.82 669.85 21.32C666.75 20.52 665.05 18.42 665.15 15.12C665.25 12.62 665.35 10.12 665.85 7.72C666.85 3.02 673.45 0.92 676.95 4.12C677.75 4.92 678.15 6.42 678.25 7.62C678.55 9.92 678.55 12.22 678.55 14.82Z" fill="#FFFFFF" fill-opacity="1.000000" fill-rule="nonzero"/>
	<path id="Path" d="M922.55 275.52C925.95 278.82 929.45 280.22 933.25 280.72C938.15 281.42 939.15 282.62 939.05 288.12C936.95 290.12 934.25 289.92 931.65 289.32C923.65 287.42 917.95 282.72 915.15 274.82C914.45 272.72 914.45 270.22 914.55 267.92C914.65 265.32 916.45 263.62 918.85 262.92C921.35 262.12 922.95 263.82 924.25 265.52C925.95 267.72 925.85 269.52 924.45 271.92C923.95 273.12 923.35 274.22 922.55 275.52Z" fill="#FFFFFF" fill-opacity="1.000000" fill-rule="nonzero"/>
	<path id="Path" d="M249.55 658.22C247.45 657.02 216.55 637.72 197.35 602.72C178.15 567.72 166.35 547.22 182.85 504.92C199.35 462.62 244.25 421.72 274.65 401.22C305.05 380.72 389.55 437.52 399.45 489.72C409.35 541.92 334.05 675.32 334.05 675.32C334.05 675.32 280.65 675.42 249.55 658.22Z" fill="#F9001F" fill-opacity="1.000000" fill-rule="nonzero"/>
	<path id="Path" d="M271.95 500.32C269.95 500.32 250.85 480.52 246.15 440.22C241.45 399.92 243.55 343.12 271.95 314.02C300.35 284.92 328.75 244.02 358.45 229.42C388.15 214.92 482.65 248.32 488.55 296.32C492.85 331.02 377.55 422.22 313.45 470.02C307.65 474.32 318.55 511.82 318.55 511.82L271.95 500.32Z" fill="#DFDEDD" fill-opacity="1.000000" fill-rule="nonzero"/>
	<path id="Path" d="M427.25 282.82C427.25 282.82 422.65 302.22 421.95 327.32C421.25 352.42 427.85 384.12 464.25 403.92C500.65 423.72 562.65 419.82 601.65 419.82C640.65 419.82 669.05 388.12 672.35 375.52C675.65 362.92 672.35 334.52 664.45 327.32C656.55 320.02 646.65 322.02 647.25 306.22C647.85 290.42 647.95 261.92 636.65 248.72C625.45 235.52 560.65 214.42 537.55 220.32C514.45 226.22 427.25 282.82 427.25 282.82Z" fill="#FED5D8" fill-opacity="1.000000" fill-rule="nonzero"/>
	<path id="Beard" d="M383.65 414.02C384.35 411.82 384.35 374.62 414.65 349.92C444.95 325.22 454.95 322.02 454.95 322.02C454.95 322.02 459.55 371.52 481.35 390.72C503.15 409.92 551.35 403.92 551.35 403.92L582.35 396.02L639.15 407.92C639.15 407.92 655.05 395.32 662.25 382.82C669.55 370.22 670.15 364.32 670.15 364.32C670.15 364.32 707.85 414.52 718.35 470.62C695.45 551.22 663.05 598.72 661.05 598.12C659.05 597.42 427.25 612.02 427.25 612.02L389.55 605.42L383.65 414.02Z" fill="#EDEFF0" fill-opacity="1.000000" fill-rule="nonzero"/>
	<path id="Path" d="M447.85 584.32L445.05 584.12C447.75 533.02 464.75 492.22 478.55 467.02C493.45 439.72 508.05 424.22 508.15 424.02L510.25 425.92C510.15 426.12 495.75 441.32 481.05 468.42C467.35 493.42 450.55 533.82 447.85 584.32Z" fill="#DFDEDD" fill-opacity="1.000000" fill-rule="nonzero"/>
	<path id="Path" d="M381.45 412.92L379.55 410.82C397.55 395.02 414.55 384.22 425.65 377.92C437.65 371.12 445.35 368.12 445.65 368.02L446.65 370.62C446.45 370.82 415.55 382.92 381.45 412.92Z" fill="#DFDEDD" fill-opacity="1.000000" fill-rule="nonzero"/>
	<path id="Path" d="M434.65 402.32L432.55 400.42C450.65 381.22 461.25 378.22 461.75 378.12L462.45 380.82C462.35 380.82 452.05 383.82 434.65 402.32Z" fill="#DFDEDD" fill-opacity="1.000000" fill-rule="nonzero"/>
	<path id="Path" d="M485.45 511.12L482.65 510.72C490.55 454.72 523.15 426.92 523.45 426.62L525.25 428.82C524.95 429.02 493.25 456.22 485.45 511.12Z" fill="#DFDEDD" fill-opacity="1.000000" fill-rule="nonzero"/>
	<path id="Path" d="M532.15 566.52C530.05 531.52 534.55 503.82 538.65 486.72C543.05 468.12 547.95 457.92 548.15 457.52L550.75 458.72C550.55 459.12 531.15 500.22 535.05 566.32L532.15 566.52Z" fill="#DFDEDD" fill-opacity="1.000000" fill-rule="nonzero"/>
	<path id="Path" d="M585.85 564.62L583.05 564.12C591.45 514.12 577.95 451.72 577.75 451.02L580.55 450.42C580.65 451.12 594.35 514.12 585.85 564.62Z" fill="#DFDEDD" fill-opacity="1.000000" fill-rule="nonzero"/>
	<path id="Path" d="M636.55 520.92C632.65 479.32 614.35 433.92 614.15 433.42L616.75 432.32C616.95 432.82 635.35 478.62 639.35 520.62L636.55 520.92Z" fill="#DFDEDD" fill-opacity="1.000000" fill-rule="nonzero"/>
	<path id="Path" d="M666.95 577.02C664.55 542.52 658.95 494.02 646.15 459.12C638.55 438.22 631.85 432.12 631.75 432.02L633.65 429.92C634.75 430.92 661.25 455.52 669.75 576.82L666.95 577.02Z" fill="#DFDEDD" fill-opacity="1.000000" fill-rule="nonzero"/>
	<path id="Path" d="M672.85 481.42C668.95 462.62 664.35 451.42 664.35 451.32L666.95 450.22C666.95 450.32 671.65 461.82 675.65 480.82L672.85 481.42Z" fill="#DFDEDD" fill-opacity="1.000000" fill-rule="nonzero"/>
	<path id="Path" d="M367.75 329.22C365.75 330.52 355.15 366.22 361.85 373.52C368.45 380.82 377.75 402.62 377.75 402.62C377.75 402.62 387.65 390.72 398.85 374.22C410.05 357.72 440.35 331.12 440.35 331.12C440.35 331.12 424.45 286.42 422.55 287.22C420.65 288.02 367.75 329.22 367.75 329.22Z" fill="#EDEFF0" fill-opacity="1.000000" fill-rule="nonzero"/>
	<path id="Path" d="M439.15 330.62C439.15 330.62 432.55 305.52 414.75 308.12C396.95 310.72 402.15 333.22 409.45 339.12C416.75 345.02 418.65 349.92 418.65 349.92L439.15 330.62Z" fill="#FED5D8" fill-opacity="1.000000" fill-rule="nonzero"/>
	<path id="Path" d="M419.95 688.62C419.25 686.02 429.85 566.42 429.85 566.42C429.85 566.42 481.35 550.52 515.05 542.02C548.75 533.42 623.35 528.82 674.25 559.82C677.55 517.52 686.15 483.22 723.75 450.82C761.35 418.42 783.15 398.62 785.15 379.52C791.05 388.12 789.15 409.92 789.15 409.92C789.15 409.92 806.95 400.02 808.35 382.82C813.65 398.72 815.65 401.32 815.65 401.32L821.55 394.72L833.45 405.22L716.55 662.22L575.15 711.12L419.95 688.62Z" fill="#000000" fill-opacity="1.000000" fill-rule="nonzero"/>
	<path id="Path" d="M418.65 589.52L399.45 733.52C399.45 733.52 482.05 727.62 524.95 728.22C567.85 728.92 642.55 728.92 642.55 728.92L724.45 668.82L754.85 604.72L846.05 399.32C846.05 399.32 747.45 477.22 728.45 497.72C696.05 532.72 697.45 560.52 697.45 560.52C697.45 560.52 708.65 561.22 705.35 569.72C702.05 578.32 680.95 600.72 665.75 592.22C650.55 583.62 597.75 561.82 536.95 566.42C476.15 571.02 418.65 589.52 418.65 589.52Z" fill="#FE9327" fill-opacity="1.000000" fill-rule="nonzero"/>
	<path id="Path" d="M352.65 263.22C352.65 261.22 348.65 227.52 354.65 196.52C360.65 165.52 377.15 147.62 405.55 133.72C433.95 119.82 478.85 106.02 508.55 111.22C538.25 116.52 568.65 136.32 590.45 153.52C612.25 170.72 573.25 170.72 536.25 181.92C499.25 193.22 352.65 263.22 352.65 263.22Z" fill="#F9001F" fill-opacity="1.000000" fill-rule="nonzero"/>
	<path id="Path" d="M424.45 229.62C426.95 228.52 429.45 227.32 432.05 226.12L435.75 217.12L452.25 216.92C456.65 214.92 460.95 213.02 465.25 211.12L431.95 211.52L424.45 229.62Z" stroke="#FFFFFF" stroke-opacity="1.000000" stroke-width="2.834600"/>
	<path id="Path" d="M465.15 148.22L428.05 166.72L395.05 144.22L400.95 187.62L362.35 210.62L397.95 219.92L405.75 238.02C407.45 237.22 409.15 236.42 410.85 235.62L402.05 215.12L376.85 208.52L406.95 190.52L402.25 156.02L427.45 173.22L456.45 158.72L448.25 191.52L470.55 208.52C472.55 207.62 474.55 206.72 476.45 205.92L454.85 189.42L465.15 148.22Z" stroke="#FFFFFF" stroke-opacity="1.000000" stroke-width="2.834600"/>
	<path id="Path" d="M553.95 128.72C546.45 130.12 536.85 131.92 529.75 133.12L527.45 133.52L527.45 154.22L506.75 129.62L479.45 138.72L494.25 117.92L480.55 111.72L499.65 110.12C490.05 109.52 479.45 110.52 468.55 112.52L485.55 120.22L464.65 149.62L504.75 136.22L532.95 169.72L532.95 138.22C536.25 137.62 542.55 136.52 548.85 135.32C553.45 134.62 557.95 133.82 561.35 133.12C558.95 131.62 556.45 130.22 553.95 128.72Z" stroke="#FFFFFF" stroke-opacity="1.000000" stroke-width="2.834600"/>
	<path id="Path" d="M338.75 264.52C338.75 264.52 330.85 290.92 338.75 320.62C346.65 350.32 346.65 365.52 364.55 355.62C382.35 345.72 405.55 310.12 439.15 287.92C472.75 265.72 505.85 243.32 568.65 239.32C631.45 235.32 641.95 263.12 645.25 273.02C648.55 282.92 645.95 308.72 645.25 315.32C655.85 323.22 665.05 309.42 666.35 300.82C667.65 292.22 672.25 240.02 651.85 202.42C631.45 164.82 606.95 152.22 552.05 156.22C497.15 160.22 374.35 203.72 338.75 264.52Z" fill="#EDEFF0" fill-opacity="1.000000" fill-rule="nonzero"/>
	<path id="Path" d="M551.65 414.02C551.65 414.02 562.05 406.52 579.15 404.52C596.25 402.52 596.95 421.02 593.65 428.92C590.35 436.82 578.75 456.62 569.35 461.32C559.95 465.92 555.35 467.92 547.35 461.32C539.35 454.72 542.05 446.82 545.35 437.52C548.75 428.32 551.65 414.02 551.65 414.02Z" fill="#FEAFB5" fill-opacity="1.000000" fill-rule="nonzero"/>
	<path id="Path" d="M573.25 414.02C575.25 412.72 583.25 400.82 587.15 407.22C591.15 413.62 587.05 424.42 581.75 431.62C576.45 438.92 568.55 454.12 559.95 455.42C551.35 456.72 549.35 456.72 554.05 444.22C558.65 431.62 573.25 414.02 573.25 414.02Z" fill="#000000" fill-opacity="1.000000" fill-rule="nonzero"/>
	<path id="Path" d="M443.75 454.12C443.75 454.12 435.15 433.02 452.95 410.52C470.75 388.02 489.25 389.42 508.45 392.02C527.65 394.62 566.55 396.02 572.55 378.12C595.05 378.82 610.85 380.12 610.85 380.12C610.85 380.12 601.35 390.12 627.35 394.02C649.85 397.32 672.95 401.92 678.25 421.72C683.55 441.52 678.25 458.72 678.25 458.72C678.25 458.72 676.25 433.62 655.75 430.32C635.25 427.02 587.05 446.82 582.45 407.22C561.35 431.62 541.45 432.32 520.45 427.92C500.85 423.82 473.45 418.42 443.75 454.12Z" fill="#FFFFFF" fill-opacity="1.000000" fill-rule="nonzero"/>
	<path id="Path" d="M479.45 302.22C477.45 302.22 470.85 294.92 470.85 294.92C470.85 294.92 464.25 279.82 494.65 257.02C525.05 234.22 555.45 232.22 567.95 243.42C563.35 252.62 554.05 271.82 554.05 271.82C554.05 271.82 540.15 264.52 515.75 274.42C491.35 284.32 479.45 302.22 479.45 302.22Z" fill="#FFFFFF" fill-opacity="1.000000" fill-rule="nonzero"/>
	<path id="Path" d="M591.75 272.42L591.75 242.72C591.75 242.72 607.65 232.12 626.05 247.32C644.45 262.52 651.15 281.42 644.55 308.12C632.35 290.52 623.45 270.32 591.75 272.42Z" fill="#FFFFFF" fill-opacity="1.000000" fill-rule="nonzero"/>
	<path id="Path" d="M490.35 341.42C493.75 336.92 498.75 333.82 503.75 331.52C505.45 330.72 507.25 330.12 509.05 329.52C525.05 324.52 542.75 326.72 557.95 333.32C563.05 335.42 567.65 338.22 572.15 341.32L571.75 341.32C580.65 336.12 589.65 331.32 598.85 326.72C612.25 319.52 627.05 316.92 640.85 325.22C643.95 327.12 646.75 329.52 648.85 332.52L648.25 333.32C641.65 331.02 635.45 329.22 629.25 328.42C626.15 328.02 623.05 327.82 619.95 327.92C613.55 328.12 607.55 330.52 601.55 332.82C591.95 336.52 582.15 340.02 572.15 342.32C568.45 341.92 564.85 341.02 561.25 340.22C556.15 339.32 551.05 338.22 545.85 337.52C533.05 335.52 519.75 335.02 506.95 337.32C505.05 337.72 502.65 338.22 500.75 338.72C497.45 339.62 494.15 340.72 490.95 342.12L490.35 341.42Z" fill="#FEAFB5" fill-opacity="1.000000" fill-rule="nonzero"/>
	<path id="Path" d="M584.15 326.62C584.15 326.62 587.15 316.22 604.85 314.62C622.55 313.02 615.65 327.72 606.95 325.82C598.25 324.02 584.15 326.62 584.15 326.62Z" fill="#FFFFFF" fill-opacity="1.000000" fill-rule="nonzero"/>
	<path id="Path" d="M571.95 270.32C571.95 270.32 585.15 313.42 601.65 331.22C618.15 349.02 634.65 376.12 634.65 376.12C634.65 376.12 640.55 382.72 634.65 385.32C628.75 387.92 616.15 386.62 604.55 386.62C592.95 386.62 586.35 378.72 575.15 376.72C563.95 374.72 559.95 379.32 552.65 374.72C545.35 370.12 546.05 362.12 552.65 353.62C559.25 345.02 569.85 336.42 569.85 336.42L571.95 270.32Z" fill="#FEAFB5" fill-opacity="1.000000" fill-rule="nonzero"/>
	<path id="Path" d="M508.05 329.72C508.05 329.72 511.05 319.32 528.75 317.72C546.45 316.12 539.55 330.82 530.85 328.92C522.25 327.12 508.05 329.72 508.05 329.72Z" fill="#FFFFFF" fill-opacity="1.000000" fill-rule="nonzero"/>
	<path id="Path" d="M601.65 327.32C598.35 323.32 597.05 322.02 601.65 317.42C606.25 312.82 609.55 313.42 613.55 315.42C617.55 317.42 616.55 322.02 615.95 323.92C615.25 325.92 601.65 327.32 601.65 327.32Z" fill="#000000" fill-opacity="1.000000" fill-rule="nonzero"/>
	<path id="Path" d="M525.05 331.22C521.35 330.12 521.05 328.62 525.05 322.62C529.05 316.62 535.65 315.32 538.25 322.62C540.85 329.92 533.55 333.92 525.05 331.22Z" fill="#000000" fill-opacity="1.000000" fill-rule="nonzero"/>
	<path id="Path" d="M503.95 333.72C521.55 333.72 535.85 340.52 535.85 349.02C535.85 357.52 521.55 364.22 503.95 364.22C486.35 364.22 472.05 357.42 472.05 348.92C472.05 340.42 486.35 333.72 503.95 333.72Z" fill="#FEAFB5" fill-opacity="1.000000" fill-rule="evenodd"/>
	<path id="Path" d="M647.35 327.52C658.75 327.52 667.95 331.92 667.95 337.32C667.95 342.72 658.75 347.12 647.35 347.12C635.95 347.12 626.75 342.72 626.75 337.32C626.75 331.92 635.95 327.52 647.35 327.52Z" fill="#FEAFB5" fill-opacity="1.000000" fill-rule="evenodd"/>
	<path id="Path" d="M652.45 738.82C652.45 738.82 642.85 747.42 645.65 759.92C648.45 772.52 659.75 781.72 687.45 786.32C715.15 790.92 744.25 794.22 756.15 786.32C768.05 778.42 788.55 737.42 792.45 712.32C796.45 687.22 791.15 669.02 768.65 657.32C746.15 645.62 737.45 639.62 719.35 648.22C701.35 656.92 658.05 713.62 652.45 738.82Z" fill="#DFDEDD" fill-opacity="1.000000" fill-rule="nonzero"/>
	<path id="Path" d="M539.55 716.32C521.15 706.82 521.05 689.92 511.85 665.42C502.65 640.92 494.05 629.12 501.95 611.92C509.85 594.72 514.55 594.72 537.65 589.42C560.75 584.12 579.25 582.12 606.35 600.62C633.45 619.12 647.35 634.32 668.45 633.02C689.55 631.72 694.85 618.52 706.15 595.32C717.35 572.22 715.35 557.62 735.85 562.92C756.35 568.22 748.45 609.12 745.75 625.72C743.05 642.32 737.15 652.82 740.45 662.72C743.75 672.62 743.75 703.72 726.55 729.42C709.35 755.22 690.85 771.72 669.05 761.12C647.25 750.52 637.35 745.92 618.15 740.62C598.95 735.52 558.65 726.22 539.55 716.32Z" fill="#F9001F" fill-opacity="1.000000" fill-rule="nonzero"/>
	<path id="Path" d="M598.25 737.32L576.75 702.42L612.35 692.42L593.75 655.82L634.05 648.12L621.15 614.52L626.35 612.42L641.85 652.42L602.25 659.92L620.55 696.02L585.55 705.82L603.05 734.32L598.25 737.32Z" fill="#FFFFFF" fill-opacity="1.000000" fill-rule="nonzero"/>
	<path id="Path" d="M619.25 741.52L605.45 712.72L637.65 702.52L622.35 667.42L658.25 658.42L647.45 629.12L649.35 628.42L660.95 659.82L625.15 668.82L640.35 703.72L608.25 713.92L621.05 740.62L619.25 741.52Z" fill="#FFFFFF" fill-opacity="1.000000" fill-rule="nonzero"/>
	<path id="Path" d="M261.85 606.72C267.75 581.62 376.15 622.62 407.85 631.82C439.55 641.02 419.75 668.82 416.45 688.62C413.15 708.42 409.15 718.32 390.65 715.72C372.15 713.12 316.65 701.82 280.35 687.32C254.45 677.02 247.45 668.92 247.35 658.72C247.05 645.62 261.85 606.72 261.85 606.72Z" fill="#EDEFF0" fill-opacity="1.000000" fill-rule="nonzero"/>
	<path id="Path" d="M270.35 603.42C270.35 603.42 256.45 575.72 261.15 545.92C265.85 516.12 265.75 495.02 270.35 485.12C274.95 475.22 284.25 468.62 291.45 469.92C298.65 471.22 304.05 486.42 304.05 486.42C303.65 485.22 304.55 482.42 304.75 481.12C305.35 476.52 305.95 471.92 306.45 467.32C307.85 456.12 309.25 444.92 310.65 433.72C312.05 422.62 320.25 413.02 327.65 405.02C336.05 395.82 346.05 387.32 357.55 382.32C363.55 379.72 370.15 378.02 376.75 378.82C406.45 382.12 436.05 452.12 437.75 482.52C439.45 512.92 411.05 638.42 411.05 638.42C411.05 638.42 410.35 647.62 387.25 644.32C364.15 641.02 269.75 625.82 270.35 603.42Z" fill="#F9001F" fill-opacity="1.000000" fill-rule="nonzero"/>
	<path id="Path" d="M414.15 542.22L393.25 512.92L354.65 530.12L335.45 504.42L301.45 517.72L299.45 512.42L337.35 497.62L356.55 523.12L395.25 505.92L415.95 535.02L431.45 527.62L433.85 532.82L414.15 542.22Z" fill="#FFFFFF" fill-opacity="1.000000" fill-rule="nonzero"/>
	<path id="Path" d="M409.45 563.32L387.95 532.02L351.35 549.82L328.85 523.92L298.35 536.82L297.55 535.02L329.45 521.52L351.85 547.32L388.65 529.42L410.05 560.62L428.85 548.42L429.85 550.12L409.45 563.32Z" fill="#FFFFFF" fill-opacity="1.000000" fill-rule="nonzero"/>
	<path id="Path" d="M752.85 405.92C752.85 412.82 743.75 416.52 736.35 416.52C728.95 416.52 722.95 410.92 722.95 403.92C722.95 397.02 733.15 387.42 740.55 387.42C747.95 387.42 752.85 398.92 752.85 405.92Z" fill="#1F9D75" fill-opacity="1.000000" fill-rule="nonzero"/>
	<path id="Path" d="M677.95 329.12L701.75 309.32L686.75 274.52L714.45 296.12L760.75 264.82L742.65 303.32L786.25 323.82L737.85 326.02L726.35 365.22L714.45 326.52L677.95 329.12Z" fill="#FFC489" fill-opacity="1.000000" fill-rule="nonzero"/>
	<path id="Path" d="M47.45 356.12C47.45 356.12 52.05 330.02 53.95 331.02C55.85 332.02 61.95 356.12 61.95 356.12L91.25 352.12L65.65 366.52L87.05 387.82L56.65 376.12L36.85 405.02L46.05 372.02L16.55 367.52L47.45 356.12Z" fill="#FFC489" fill-opacity="1.000000" fill-rule="nonzero"/>
	<path id="Path" d="M263.65 263.22C263.65 271.52 254.25 276.02 246.95 276.02C239.65 276.02 233.75 269.32 233.75 261.02C233.75 252.72 239.65 246.02 246.95 246.02C254.25 246.02 263.65 254.92 263.65 263.22Z" fill="#7E5CA6" fill-opacity="1.000000" fill-rule="nonzero"/>
	<path id="Shape" d="M203.153 736.027L203.153 749.527L192.053 749.527L191.053 733.428L191.053 725.628L193.253 725.628C193.753 725.428 194.353 725.027 194.953 724.328C195.553 723.728 196.153 722.728 196.653 721.428C197.253 720.128 197.853 718.527 198.353 716.628C198.953 714.728 199.453 712.328 200.053 709.628C200.453 707.728 200.753 705.928 201.053 704.328C201.353 702.728 201.653 701.228 201.953 699.628C202.253 698.027 202.553 696.527 202.853 694.828C203.153 693.128 203.453 691.228 203.853 689.128L233.253 689.128L233.253 725.527L239.153 725.527L239.153 733.328L238.153 749.428L227.053 749.428L227.053 735.928L203.153 736.027ZM209.053 719.228C209.853 716.728 210.553 714.128 211.053 711.228C211.253 710.027 211.453 708.928 211.553 707.928C211.753 707.027 211.853 706.128 212.053 705.228C212.253 704.428 212.453 703.527 212.553 702.628C212.753 701.728 212.953 700.728 213.153 699.527L220.653 699.527L220.653 725.628L206.253 725.628C207.353 723.828 208.253 721.628 209.053 719.228Z" clip-rule="evenodd" fill="#FFFFFF" fill-opacity="1.000000" fill-rule="evenodd"/>
	<path id="Path" d="M245.45 736.02L245.45 689.22L275.65 689.22L275.65 699.62L257.75 699.62L257.75 706.92L273.05 706.92L273.05 717.22L257.75 717.22L257.75 725.62L276.45 725.62L276.45 736.02L245.45 736.02Z" fill="#FFFFFF" fill-opacity="1.000000" fill-rule="nonzero"/>
	<path id="Path" d="M286.45 736.02L286.45 689.22L298.85 689.22L298.85 706.62L312.85 706.62L312.85 689.22L325.25 689.22L325.25 736.02L312.85 736.02L312.85 717.42L298.85 717.42L298.85 736.02L286.45 736.02Z" fill="#FFFFFF" fill-opacity="1.000000" fill-rule="nonzero"/>
	<path id="Shape" d="M336.553 736.027L336.553 689.227L348.953 689.227L348.953 705.527L353.953 705.527C356.553 705.527 359.053 705.828 361.353 706.328C363.653 706.927 365.653 707.727 367.253 708.927C368.853 710.127 370.253 711.627 371.153 713.527C372.153 715.427 372.553 717.727 372.553 720.328Q372.553 724.828 371.053 727.828C370.053 729.828 368.653 731.427 366.953 732.627C365.253 733.828 363.253 734.727 360.953 735.227C358.653 735.727 356.153 736.027 353.653 736.027L336.553 736.027ZM353.153 726.227L348.953 726.227L348.953 715.227L353.153 715.227C358.153 715.227 360.653 716.927 360.653 720.427C360.653 722.527 359.953 724.027 358.653 724.927C357.253 725.828 355.453 726.227 353.153 726.227Z" clip-rule="evenodd" fill="#FFFFFF" fill-opacity="1.000000" fill-rule="evenodd"/>
	<path id="Path" d="M232.85 842.32L232.85 811.12C231.15 811.32 229.45 811.52 227.85 811.72C226.25 811.82 224.15 811.92 221.75 811.92C216.85 811.92 212.55 811.42 208.75 810.32C204.95 809.22 201.75 807.52 199.05 805.02C196.35 802.62 194.35 799.42 192.95 795.52C191.55 791.62 190.85 786.82 190.85 781.22L190.85 761.92L211.65 761.92L211.65 781.22C211.65 786.32 212.55 789.92 214.55 792.02C216.45 794.12 219.65 795.12 224.05 795.12C226.15 795.12 227.95 795.02 229.25 794.92C230.55 794.82 231.85 794.62 232.95 794.32L232.95 761.82L254.25 761.82L254.25 842.42L232.85 842.32Z" fill="#00B2F0" fill-opacity="1.000000" fill-rule="nonzero"/>
	<path id="Path" d="M286.65 842.32L286.65 779.62L265.35 779.62L265.35 761.72L329.35 761.72L329.35 779.62L308.05 779.62L308.05 842.32L286.65 842.32Z" fill="#00B2F0" fill-opacity="1.000000" fill-rule="nonzero"/>
	<path id="Path" d="M342.45 842.32L342.45 761.72L394.55 761.72L394.55 779.62L363.75 779.62L363.75 792.22L390.05 792.22L390.05 810.12L363.75 810.12L363.75 824.52L395.75 824.52L395.75 842.42L342.45 842.42L342.45 842.32Z" fill="#00B2F0" fill-opacity="1.000000" fill-rule="nonzero"/>
	<path id="Path" d="M413.65 842.32L413.65 761.72L434.95 761.72L434.95 791.72L459.05 791.72L459.05 761.72L480.35 761.72L480.35 842.32L459.05 842.32L459.05 810.32L434.95 810.32L434.95 842.32L413.65 842.32Z" fill="#00B2F0" fill-opacity="1.000000" fill-rule="nonzero"/>
	<path id="Path" d="M500.45 842.32L500.45 761.72L521.55 761.72L521.55 785.02C521.55 787.52 521.45 790.12 521.25 792.82C521.05 795.52 520.85 798.22 520.55 800.92C520.35 803.62 520.05 806.22 519.65 808.82C519.35 811.42 519.05 813.72 518.75 815.92L519.25 815.92L526.95 797.82L544.85 761.82L567.45 761.82L567.45 842.42L546.35 842.42L546.35 819.12C546.35 814.12 546.65 808.92 547.35 803.52C548.05 798.02 548.55 793.02 549.05 788.42L548.55 788.42L540.85 806.42L522.95 842.52L500.45 842.52L500.45 842.32Z" fill="#00B2F0" fill-opacity="1.000000" fill-rule="nonzero"/>
	<path id="Shape" d="M626.453 842.328L626.453 815.328L619.653 815.328L603.953 842.328L579.653 842.328L599.753 811.828C595.353 809.727 591.853 806.828 589.153 802.928C586.453 799.027 585.153 794.027 585.153 787.828C585.153 782.828 586.053 778.628 587.753 775.227C589.453 771.928 591.853 769.227 594.753 767.227Q599.103 764.227 604.953 763.027C608.853 762.227 612.953 761.828 617.353 761.828L647.853 761.828L647.853 842.428L626.453 842.328ZM626.453 798.428L618.753 798.428C610.153 798.428 605.853 794.928 605.853 787.828Q605.853 783.651 607.941 781.563Q608.478 781.026 609.153 780.628C611.353 779.328 614.553 778.628 618.753 778.628L626.453 778.628L626.453 798.428Z" clip-rule="evenodd" fill="#00B2F0" fill-opacity="1.000000" fill-rule="evenodd"/>
	<path id="Shape" d="M194.253 852.128L194.253 953.527L233.953 953.527C239.353 953.527 244.453 952.928 249.353 951.828C254.253 950.628 258.453 948.828 262.053 946.428C265.653 943.928 268.553 940.828 270.653 937.027C272.753 933.228 273.853 928.728 273.853 923.527C273.853 916.828 272.153 911.527 268.753 907.728C265.353 903.928 261.253 901.328 256.353 899.828L256.353 899.228C258.353 898.527 260.053 897.428 261.653 895.828C263.253 894.228 264.553 892.428 265.653 890.428C266.753 888.428 267.653 886.228 268.253 884.027C268.853 881.828 269.153 879.628 269.153 877.428C269.153 872.428 268.153 868.328 266.153 865.027C264.153 861.728 261.353 859.228 257.953 857.328C254.453 855.428 250.453 854.128 245.753 853.328Q238.703 852.128 230.753 852.128L194.253 852.128ZM221.053 891.728L230.053 891.728C234.453 891.728 237.653 890.828 239.753 888.928C241.853 887.027 242.853 884.527 242.853 881.428C242.853 878.328 241.853 876.027 239.753 874.728C237.653 873.328 234.453 872.728 230.053 872.728L221.053 872.728L221.053 891.728ZM231.953 932.928L221.053 932.928L221.053 911.428L231.953 911.428C237.253 911.428 241.253 912.128 243.753 913.728C246.253 915.328 247.553 918.027 247.553 921.728C247.553 929.228 242.353 932.928 231.953 932.928Z" clip-rule="evenodd" fill="#00B2F0" fill-opacity="1.000000" fill-rule="evenodd"/>
	<path id="Path" d="M333.85 955.42C327.45 955.42 321.25 954.32 315.35 952.22C309.45 950.12 304.35 946.82 299.95 942.52C295.55 938.22 292.05 932.82 289.45 926.32C286.85 919.82 285.55 912.22 285.55 903.62C285.55 895.12 286.95 887.52 289.65 880.92C292.35 874.32 295.95 868.72 300.45 864.22C304.95 859.72 310.15 856.22 316.05 853.82C321.95 851.42 328.05 850.22 334.55 850.22C341.35 850.22 347.35 851.52 352.65 854.22C357.95 856.92 362.45 860.02 366.05 863.62L352.05 880.82C349.55 878.62 346.95 876.82 344.35 875.42C341.65 874.02 338.65 873.32 335.25 873.32C332.25 873.32 329.45 874.02 326.75 875.32C324.05 876.72 321.75 878.62 319.75 881.12C317.75 883.62 316.15 886.72 314.95 890.32C313.75 893.92 313.15 898.02 313.15 902.62C313.15 912.22 315.15 919.52 319.15 924.62C323.15 929.72 328.45 932.22 334.95 932.22C338.95 932.22 342.45 931.32 345.45 929.62C348.55 927.92 351.15 925.82 353.35 923.42L367.35 940.22C362.95 945.22 357.95 948.92 352.25 951.42C346.55 953.92 340.45 955.42 333.85 955.42Z" fill="#00B2F0" fill-opacity="1.000000" fill-rule="nonzero"/>
	<path id="Path" d="M383.05 955.42C379.95 955.42 377.45 955.32 375.45 955.12C373.55 954.92 371.65 954.52 369.95 953.92L374.65 929.92C375.25 930.12 375.95 930.32 376.65 930.42C377.35 930.52 378.15 930.62 379.05 930.62C380.25 930.62 381.45 930.42 382.55 929.92C383.65 929.42 384.75 928.42 385.75 926.92C386.75 925.32 387.85 923.02 388.85 920.02C389.85 916.92 390.95 912.82 392.15 907.62C394.25 898.42 396.05 889.32 397.65 880.12C399.25 870.92 400.95 861.72 402.75 852.42L465.15 852.42L465.15 953.82L438.35 953.82L438.35 874.92L423.35 874.92C422.25 881.32 421.15 887.42 420.05 893.22C419.05 898.92 417.95 904.72 416.75 910.52C414.95 919.32 413.05 926.72 411.05 932.52C409.05 938.32 406.65 943.02 404.05 946.42C401.35 949.82 398.35 952.22 394.95 953.72C391.55 954.72 387.55 955.42 383.05 955.42Z" fill="#00B2F0" fill-opacity="1.000000" fill-rule="nonzero"/>
	<path id="Path" d="M507.35 955.42C504.15 955.42 501.35 955.22 499.05 954.82C496.75 954.42 494.85 953.92 493.25 953.22L497.95 930.12C498.85 930.42 499.95 930.72 500.95 931.02C502.05 931.32 503.75 931.42 506.05 931.42C507.85 931.42 509.45 931.12 510.95 930.62C512.45 930.12 513.65 929.22 514.45 928.12L515.65 925.92L481.45 852.12L509.85 852.12L518.85 875.72L527.55 901.62L528.15 901.62L536.55 875.72L544.65 852.12L571.45 852.12L540.85 928.72C537.55 937.02 533.25 943.52 527.95 948.32C522.75 953.02 515.85 955.42 507.35 955.42Z" fill="#00B2F0" fill-opacity="1.000000" fill-rule="nonzero"/>
	<path id="Path" d="M570.75 953.52L598.25 901.42L572.35 852.12L602.35 852.12L609.25 868.62C610.35 871.02 611.55 873.62 612.65 876.32C613.75 879.12 615.05 882.12 616.45 885.42L617.05 885.42C618.15 882.12 619.25 879.02 620.35 876.32C621.35 873.52 622.35 871.02 623.35 868.62L629.25 852.12L657.95 852.12L632.05 902.62L659.55 953.52L629.55 953.52L621.45 935.42C620.25 932.72 619.05 930.02 617.85 927.32C616.75 924.62 615.55 921.72 614.25 918.62L613.65 918.62C612.55 921.72 611.45 924.62 610.35 927.32C609.35 930.02 608.25 932.72 607.05 935.42L599.55 953.52L570.75 953.52Z" fill="#00B2F0" fill-opacity="1.000000" fill-rule="nonzero"/>
</svg>
