<svg width="2073.000000" height="45.000000" viewBox="0 0 2073 45" fill="none" xmlns="http://www.w3.org/2000/svg" xmlns:xlink="http://www.w3.org/1999/xlink">
	<desc>
			Created with Pixso.
	</desc>
	<defs/>
	<path id="8" d="M2025.52 4.69L2001.8 28.63C2001.48 28.94 2001.12 29.01 2000.87 29.01C2000.64 29.01 2000.3 28.94 1999.99 28.66L1976.59 5.05C1976.56 5.02 1976.52 4.99 1976.49 4.96L1976.36 4.83L1976.35 4.84C1969.65 -1.69 1958.95 -1.62 1952.34 5.05L1928.73 28.87C1928.51 28.98 1928.3 29.01 1928.14 29.01C1927.9 29.01 1927.53 28.94 1927.22 28.63L1903.63 4.83L1903.62 4.84C1897.04 -1.57 1886.6 -1.61 1879.97 4.71L1879.95 4.69L1856.22 28.63C1855.91 28.94 1855.55 29.01 1855.3 29.01C1855.06 29.01 1854.72 28.94 1854.42 28.66L1831.02 5.05C1830.98 5.02 1830.95 4.99 1830.92 4.96L1830.79 4.83L1830.78 4.84C1824.08 -1.69 1813.38 -1.62 1806.76 5.05L1783.16 28.87C1782.94 28.98 1782.73 29.01 1782.57 29.01C1782.32 29.01 1781.96 28.94 1781.65 28.63L1758.06 4.83L1758.05 4.84C1751.47 -1.57 1741.03 -1.61 1734.39 4.71L1734.38 4.69L1710.65 28.63C1710.34 28.94 1709.97 29.01 1709.73 29.01C1709.49 29.01 1709.15 28.94 1708.85 28.66L1685.44 5.05C1685.41 5.02 1685.38 4.99 1685.35 4.96L1685.22 4.83L1685.21 4.84C1678.51 -1.69 1667.8 -1.62 1661.19 5.05L1637.58 28.87C1637.37 28.98 1637.16 29.01 1637 29.01C1636.75 29.01 1636.39 28.94 1636.07 28.63L1612.49 4.83L1612.48 4.84C1605.89 -1.57 1595.46 -1.61 1588.82 4.71L1588.8 4.69L1565.08 28.63C1564.76 28.94 1564.4 29.01 1564.16 29.01C1563.92 29.01 1563.58 28.94 1563.28 28.66L1539.87 5.05C1539.84 5.02 1539.81 4.99 1539.78 4.96L1539.65 4.83L1539.64 4.84C1532.94 -1.69 1522.23 -1.62 1515.62 5.05L1492.01 28.87C1491.8 28.98 1491.59 29.01 1491.43 29.01C1491.18 29.01 1490.82 28.94 1490.5 28.63L1466.92 4.83L1466.9 4.84C1460.32 -1.57 1449.89 -1.61 1443.25 4.71L1443.23 4.69L1419.51 28.63C1419.19 28.94 1418.83 29.01 1418.58 29.01C1418.35 29.01 1418.01 28.94 1417.7 28.66L1394.3 5.05C1394.27 5.02 1394.24 4.99 1394.21 4.96L1394.07 4.83L1394.07 4.84C1387.36 -1.69 1376.66 -1.62 1370.05 5.05L1346.44 28.87C1346.23 28.98 1346.02 29.01 1345.86 29.01C1345.61 29.01 1345.25 28.94 1344.93 28.63L1321.35 4.83L1321.33 4.84C1314.75 -1.57 1304.31 -1.61 1297.68 4.71L1297.66 4.69L1273.93 28.63C1273.62 28.94 1273.26 29.01 1273.01 29.01C1272.78 29.01 1272.43 28.94 1272.13 28.66L1248.73 5.05C1248.69 5.02 1248.66 4.99 1248.63 4.96L1248.5 4.83L1248.49 4.84C1241.79 -1.69 1231.09 -1.62 1224.48 5.05L1200.87 28.87C1200.66 28.98 1200.44 29.01 1200.29 29.01C1200.04 29.01 1199.68 28.94 1199.36 28.63L1175.77 4.83L1175.76 4.84C1169.18 -1.57 1158.74 -1.61 1152.11 4.71L1152.09 4.69L1128.37 28.63C1128.05 28.94 1127.68 29.01 1127.43 29.01C1127.21 29.01 1126.87 28.94 1126.56 28.66L1103.16 5.05C1103.13 5.02 1103.09 4.99 1103.06 4.96L1102.93 4.83L1102.92 4.84C1096.22 -1.69 1085.52 -1.62 1078.91 5.05L1055.3 28.87C1055.07 28.98 1054.87 29.01 1054.71 29.01C1054.47 29.01 1054.1 28.94 1053.79 28.63L1030.19 4.83L1030.18 4.84C1023.61 -1.57 1013.17 -1.61 1006.53 4.71L1006.52 4.69L982.79 28.63C982.47 28.94 982.11 29.01 981.86 29.01C981.63 29.01 981.29 28.94 980.98 28.66L957.58 5.05C957.55 5.02 957.52 4.99 957.49 4.96L957.35 4.83L957.35 4.84C950.64 -1.69 939.94 -1.62 933.33 5.05L909.72 28.87C909.51 28.98 909.3 29.01 909.14 29.01C908.89 29.01 908.53 28.94 908.21 28.63L884.63 4.83L884.61 4.84C878.03 -1.57 867.6 -1.61 860.96 4.71L860.94 4.69L837.22 28.63C836.9 28.94 836.54 29.01 836.29 29.01C836.06 29.01 835.72 28.94 835.41 28.66L812.01 5.05C811.98 5.02 811.94 4.99 811.91 4.96L811.78 4.83L811.78 4.84C805.07 -1.69 794.37 -1.62 787.76 5.05L764.15 28.87C763.94 28.98 763.73 29.01 763.57 29.01C763.32 29.01 762.96 28.94 762.64 28.63L739.06 4.83L739.04 4.84C732.46 -1.57 722.02 -1.61 715.39 4.71L715.37 4.69L691.65 28.63C691.33 28.94 690.97 29.01 690.72 29.01C690.49 29.01 690.15 28.94 689.84 28.66L666.44 5.05C666.41 5.02 666.37 4.99 666.34 4.96L666.21 4.83L666.2 4.84C659.5 -1.69 648.8 -1.62 642.19 5.05L618.58 28.87C618.36 28.98 618.15 29.01 617.99 29.01C617.75 29.01 617.39 28.94 617.07 28.63L593.48 4.83L593.47 4.84C586.89 -1.57 576.45 -1.61 569.82 4.71L569.8 4.69L546.07 28.63C545.76 28.94 545.4 29.01 545.15 29.01C544.91 29.01 544.57 28.94 544.27 28.66L520.87 5.05C520.83 5.02 520.8 4.99 520.77 4.96L520.64 4.83L520.63 4.84C513.93 -1.69 503.22 -1.62 496.61 5.05L473.01 28.87C472.79 28.98 472.58 29.01 472.42 29.01C472.17 29.01 471.81 28.94 471.5 28.63L447.91 4.83L447.9 4.84C441.32 -1.57 430.88 -1.61 424.24 4.71L424.23 4.69L400.5 28.63C400.19 28.94 399.82 29.01 399.58 29.01C399.34 29.01 399 28.94 398.7 28.66L375.29 5.05C375.26 5.02 375.23 4.99 375.2 4.96L375.07 4.83L375.06 4.84C368.36 -1.69 357.65 -1.62 351.04 5.05L327.43 28.87C327.22 28.98 327.01 29.01 326.85 29.01C326.6 29.01 326.24 28.94 325.93 28.63L302.34 4.83L302.32 4.84C295.74 -1.57 285.31 -1.61 278.67 4.71L278.65 4.69L254.93 28.63C254.61 28.94 254.25 29.01 254.01 29.01C253.77 29.01 253.43 28.94 253.13 28.66L229.72 5.05C229.69 5.02 229.66 4.99 229.63 4.96L229.5 4.83L229.49 4.84C222.79 -1.69 212.08 -1.62 205.47 5.05L181.86 28.87C181.65 28.98 181.44 29.01 181.28 29.01C181.03 29.01 180.67 28.94 180.35 28.63L156.77 4.83L156.75 4.84C150.17 -1.57 139.74 -1.61 133.1 4.71L133.08 4.69L109.36 28.63C109.04 28.94 108.68 29.01 108.43 29.01C108.2 29.01 107.86 28.94 107.55 28.66L84.15 5.05C84.12 5.02 84.09 4.99 84.05 4.96L83.92 4.83L83.92 4.84C77.21 -1.69 66.51 -1.62 59.9 5.05L36.29 28.87C36.08 28.98 35.87 29.01 35.71 29.01C35.46 29.01 35.1 28.94 34.78 28.63L11.2 4.83L0 16.13L23.58 39.93C26.82 43.19 31.13 45 35.71 45C40.29 45 44.59 43.19 47.83 39.93L71.44 16.11C71.91 15.87 72.49 15.94 72.9 16.31L96.31 39.93C96.37 39.99 96.43 40.05 96.49 40.11L96.53 40.15C99.75 43.27 103.96 45 108.43 45C112.85 45 117 43.32 120.2 40.28L120.2 40.29L143.93 16.35C144.44 15.84 145.27 15.84 145.78 16.35L169.36 40.15L169.37 40.14C172.58 43.27 176.8 45 181.28 45C185.86 45 190.17 43.19 193.4 39.93L217.01 16.11C217.48 15.87 218.06 15.94 218.47 16.31L241.88 39.93C241.94 39.99 242 40.05 242.07 40.11L242.11 40.15C245.32 43.27 249.53 45 254.01 45C258.42 45 262.57 43.32 265.77 40.28L265.78 40.29L289.5 16.35C290.01 15.84 290.84 15.84 291.35 16.35L314.93 40.15L314.94 40.14C318.16 43.27 322.37 45 326.85 45C331.43 45 335.74 43.19 338.98 39.93L362.58 16.11C363.05 15.87 363.64 15.94 364.04 16.31L387.45 39.93C387.51 39.99 387.58 40.05 387.64 40.11L387.68 40.15C390.89 43.27 395.1 45 399.58 45C403.99 45 408.15 43.32 411.34 40.28L411.35 40.29L435.07 16.35C435.58 15.84 436.41 15.84 436.92 16.35L460.51 40.15L460.52 40.14C463.73 43.27 467.94 45 472.42 45C477 45 481.31 43.19 484.55 39.93L508.15 16.11C508.62 15.87 509.21 15.94 509.62 16.31L533.02 39.93C533.08 39.99 533.15 40.05 533.21 40.11L533.25 40.15L533.25 40.15C536.46 43.27 540.67 45 545.15 45C549.56 45 553.72 43.32 556.91 40.28L556.92 40.29L580.64 16.35C581.15 15.84 581.98 15.84 582.49 16.35L606.08 40.15L606.09 40.14C609.3 43.27 613.51 45 617.99 45C622.57 45 626.88 43.19 630.12 39.93L653.72 16.11C654.2 15.87 654.78 15.94 655.19 16.31L678.6 39.93C678.66 39.99 678.72 40.05 678.78 40.11L678.82 40.15C682.03 43.27 686.25 45 690.72 45C695.13 45 699.29 43.32 702.48 40.28L702.49 40.29L726.21 16.35C726.72 15.84 727.55 15.84 728.06 16.35L751.65 40.15L751.66 40.14C754.87 43.27 759.09 45 763.57 45C768.15 45 772.45 43.19 775.69 39.93L799.29 16.11C799.77 15.87 800.35 15.94 800.76 16.31L824.17 39.93C824.23 39.99 824.29 40.05 824.35 40.11L824.39 40.15C827.61 43.27 831.82 45 836.29 45C840.7 45 844.86 43.32 848.06 40.28L848.06 40.29L871.79 16.35C872.3 15.84 873.13 15.84 873.64 16.35L897.22 40.15L897.23 40.14C900.44 43.27 904.66 45 909.14 45C913.72 45 918.02 43.19 921.26 39.93L944.87 16.11C945.34 15.87 945.92 15.94 946.33 16.31L969.74 39.93C969.8 39.99 969.86 40.05 969.93 40.11L969.97 40.15C973.18 43.27 977.39 45 981.86 45C986.28 45 990.43 43.32 993.63 40.28L993.64 40.29L1017.36 16.35C1017.87 15.84 1018.7 15.84 1019.21 16.35L1042.8 40.15L1042.81 40.14C1046.02 43.27 1050.23 45 1054.71 45C1059.29 45 1063.6 43.19 1066.84 39.93L1090.43 16.11C1090.92 15.87 1091.5 15.94 1091.91 16.31L1115.31 39.93C1115.38 39.99 1115.43 40.05 1115.5 40.11L1115.54 40.15C1118.75 43.27 1122.96 45 1127.43 45C1131.85 45 1136.01 43.32 1139.19 40.28L1139.21 40.29L1162.93 16.35C1163.43 15.84 1164.27 15.84 1164.78 16.35L1188.37 40.15L1188.38 40.14C1191.59 43.27 1195.81 45 1200.29 45C1204.87 45 1209.17 43.19 1212.41 39.93L1236.02 16.11C1236.49 15.87 1237.06 15.94 1237.48 16.31L1260.89 39.93C1260.94 39.99 1261.01 40.05 1261.06 40.11L1261.11 40.15C1264.32 43.27 1268.54 45 1273.01 45C1277.42 45 1281.57 43.32 1284.77 40.28L1284.78 40.29L1308.51 16.35C1309.02 15.84 1309.85 15.84 1310.36 16.35L1333.94 40.15L1333.95 40.14C1337.16 43.27 1341.38 45 1345.86 45C1350.44 45 1354.74 43.19 1357.98 39.93L1381.59 16.11C1382.06 15.87 1382.64 15.94 1383.05 16.31L1406.46 39.93C1406.52 39.99 1406.58 40.05 1406.64 40.11L1406.69 40.15C1409.9 43.27 1414.11 45 1418.58 45C1423 45 1427.15 43.32 1430.35 40.28L1430.35 40.29L1454.08 16.35C1454.59 15.84 1455.42 15.84 1455.93 16.35L1479.51 40.15L1479.52 40.14C1482.74 43.27 1486.95 45 1491.43 45C1496.01 45 1500.32 43.19 1503.55 39.93L1527.16 16.11C1527.63 15.87 1528.21 15.94 1528.62 16.31L1552.03 39.93C1552.09 39.99 1552.15 40.05 1552.22 40.11L1552.26 40.15C1555.47 43.27 1559.68 45 1564.16 45C1568.57 45 1572.72 43.32 1575.92 40.28L1575.93 40.29L1599.65 16.35C1600.16 15.84 1600.99 15.84 1601.5 16.35L1625.08 40.15L1625.09 40.14C1628.31 43.27 1632.52 45 1637 45C1641.58 45 1645.89 43.19 1649.13 39.93L1672.73 16.11C1673.2 15.87 1673.79 15.94 1674.19 16.31L1697.6 39.93C1697.66 39.99 1697.73 40.05 1697.79 40.11L1697.83 40.15C1701.04 43.27 1705.25 45 1709.73 45C1714.14 45 1718.29 43.32 1721.49 40.28L1721.5 40.29L1745.22 16.35C1745.73 15.84 1746.56 15.84 1747.07 16.35L1770.66 40.15L1770.67 40.14C1773.88 43.27 1778.09 45 1782.57 45C1787.15 45 1791.46 43.19 1794.7 39.93L1818.3 16.11C1818.77 15.87 1819.36 15.94 1819.77 16.31L1843.17 39.93C1843.23 39.99 1843.3 40.05 1843.36 40.11L1843.4 40.15C1846.61 43.27 1850.82 45 1855.3 45C1859.71 45 1863.87 43.32 1867.06 40.28L1867.07 40.29L1890.79 16.35C1891.3 15.84 1892.13 15.84 1892.64 16.35L1916.23 40.15L1916.24 40.14C1919.45 43.27 1923.66 45 1928.14 45C1932.72 45 1937.03 43.19 1940.27 39.93L1963.87 16.11C1964.35 15.87 1964.93 15.94 1965.34 16.31L1988.74 39.93C1988.81 39.99 1988.87 40.05 1988.93 40.11L1988.97 40.15C1992.18 43.27 1996.4 45 2000.87 45C2005.28 45 2009.44 43.32 2012.63 40.28L2012.64 40.29L2036.36 16.35C2036.87 15.84 2037.7 15.84 2038.21 16.35L2061.8 40.15L2073 28.85L2049.42 5.05C2042.85 -1.58 2032.25 -1.68 2025.54 4.71L2025.52 4.69Z" fill="#900019" fill-opacity="1.000000" fill-rule="evenodd"/>
</svg>
