<svg width="220.204102" height="207.354370" viewBox="0 0 220.204 207.354" fill="none" xmlns="http://www.w3.org/2000/svg" xmlns:xlink="http://www.w3.org/1999/xlink">
	<desc>
			Created with Pixso.
	</desc>
	<defs/>
	<path id="Fill 1" d="M65.9 37.35C70.19 48.61 74.49 59.88 78.9 71.45C83.03 62.14 87.02 53.15 90.96 44.29C94.71 45.97 98.18 47.53 101.8 49.15C101.62 49.59 101.39 50.21 101.12 50.81C95.93 62.41 90.72 74 85.61 85.62C85.22 86.5 85.2 87.8 85.53 88.71C88.01 95.48 90.62 102.21 93.19 108.95C93.38 109.44 93.57 109.94 93.85 110.68C94.69 109.67 95.36 108.89 96.01 108.1C100.82 102.16 105.59 96.2 110.46 90.32C111.56 88.99 111.97 87.74 111.78 85.99C110.41 73.51 109.15 61.01 107.86 48.52C107.81 47.97 107.8 47.42 107.76 46.71C111.64 46.32 115.46 45.93 119.39 45.53C120.42 55.44 121.42 65.15 122.49 75.43C130.35 65.76 137.89 56.49 145.57 47.04C148.63 49.52 151.62 51.94 154.75 54.48C147.11 63.9 139.52 73.24 131.7 82.89C141.83 81.85 151.54 80.85 161.53 79.82C161.95 83.71 162.35 87.52 162.77 91.51C157.58 92.05 152.52 92.59 147.46 93.11C139.2 93.97 130.94 94.79 122.68 95.69C121.96 95.77 121.05 96.05 120.62 96.57C114.91 103.52 109.27 110.52 103.62 117.51C103.51 117.65 103.45 117.82 103.29 118.14C103.94 118.28 104.5 118.44 105.08 118.54C113.15 119.84 121.25 121.1 129.31 122.48C130.83 122.74 131.96 122.49 133.2 121.59C143.59 114 154.01 106.47 164.43 98.93C164.68 98.75 164.93 98.59 165.35 98.31C167.63 101.47 169.88 104.57 172.22 107.8C164.14 113.66 156.23 119.39 147.91 125.42C160.12 127.39 171.96 129.29 184 131.23C183.37 135.13 182.76 138.92 182.12 142.9C170.14 140.98 158.33 139.09 146.01 137.12C152.02 145.45 157.76 153.41 163.59 161.49C160.41 163.81 157.34 166.04 154.1 168.39C152.5 166.19 150.95 164.08 149.41 161.96C143.06 153.19 136.73 144.41 130.35 135.65C129.95 135.11 129.31 134.49 128.7 134.38C119.66 132.86 110.61 131.42 101.35 129.92C101.51 130.51 101.59 130.96 101.75 131.38C104.38 138.3 106.98 145.22 109.69 152.1C110.01 152.9 110.82 153.72 111.6 154.07C123.16 159.32 134.75 164.49 146.35 169.66C146.96 169.93 147.67 169.98 148.15 170.09C146.38 174.02 144.83 177.49 143.18 181.17C134.53 177.22 125.6 173.14 116.68 169.06C116.56 169.21 116.45 169.35 116.33 169.49C120.6 180.68 124.86 191.86 129.16 203.15C125.43 204.58 121.88 205.93 118.16 207.35C113.91 196.2 109.64 185 105.36 173.76C101.33 182.85 97.36 191.8 93.49 200.55C89.36 198.71 85.86 197.15 82.24 195.54C82.4 195.16 82.64 194.54 82.91 193.93C88.07 182.4 93.22 170.85 98.42 159.33C98.95 158.16 98.96 157.2 98.5 156.01C95.71 148.84 92.99 141.64 90.18 134.26C89.72 134.74 89.37 135.06 89.08 135.42C83.73 142.02 78.35 148.6 73.07 155.26C72.5 155.97 72.14 157.14 72.23 158.05C73.46 170.67 74.78 183.28 76.07 195.9C76.14 196.57 76.19 197.24 76.26 198.1C72.38 198.5 68.56 198.89 64.6 199.29C63.57 189.39 62.56 179.64 61.5 169.43C53.65 179.09 46.12 188.35 38.43 197.8C35.38 195.33 32.39 192.91 29.25 190.37C36.89 180.95 44.47 171.61 52.33 161.93C42.12 162.98 32.37 163.98 22.44 165C22.03 161.08 21.64 157.31 21.23 153.32C24.98 152.92 28.62 152.52 32.27 152.14C41.88 151.16 51.48 150.17 61.09 149.22C62.35 149.1 63.19 148.63 63.99 147.63C69.53 140.71 75.13 133.85 80.88 126.75C80.18 126.58 79.69 126.43 79.18 126.34C70.92 125 62.65 123.7 54.4 122.3C53.07 122.08 52.09 122.33 51.02 123.11C40.62 130.69 30.2 138.22 19.78 145.76C19.44 146 19.08 146.21 18.62 146.51C16.35 143.37 14.12 140.29 11.79 137.06C19.85 131.21 27.8 125.45 36.12 119.41C23.87 117.44 12 115.53 0 113.6C0.62 109.69 1.23 105.94 1.87 101.93C13.78 103.83 25.59 105.72 37.96 107.7C31.96 99.38 26.24 91.45 20.41 83.37C23.6 81.05 26.71 78.79 29.92 76.45C34.34 82.56 38.66 88.54 42.98 94.51C46.55 99.45 50.11 104.4 53.72 109.3C54.12 109.83 54.81 110.37 55.43 110.47C64.41 111.98 73.41 113.41 82.59 114.89C82.48 114.4 82.45 114.01 82.31 113.65C79.64 106.62 77 99.58 74.23 92.58C73.92 91.8 73.05 91.04 72.25 90.68C60.75 85.46 49.21 80.31 37.68 75.17C37.06 74.89 36.36 74.82 35.88 74.69C37.62 70.83 39.18 67.37 40.79 63.82C49.42 67.71 58.37 71.74 67.31 75.77C67.45 75.62 67.58 75.48 67.72 75.34C63.43 64.09 59.14 52.83 54.85 41.57C58.53 40.17 62.22 38.76 65.9 37.35Z" fill="#FFC687" fill-opacity="1.000000" fill-rule="evenodd"/>
	<path id="Fill 1" d="M161.92 8.71C162.55 14.85 163.18 20.98 163.82 27.29C167.1 23.23 170.25 19.31 173.37 15.45C175 16.78 176.51 18.01 178.08 19.29C177.93 19.48 177.73 19.76 177.52 20.02C173.42 25.07 169.32 30.11 165.25 35.18C164.95 35.56 164.77 36.2 164.81 36.69C165.14 40.37 165.53 44.04 165.91 47.71C165.94 47.98 165.96 48.25 166 48.65C166.55 48.27 166.99 47.97 167.41 47.66C170.57 45.37 173.71 43.05 176.9 40.78C177.62 40.27 177.98 39.71 178.12 38.82C179.1 32.47 180.13 26.12 181.15 19.78C181.2 19.5 181.26 19.23 181.34 18.87C183.31 19.19 185.25 19.5 187.24 19.83C186.43 24.86 185.64 29.79 184.8 35.02C189.96 31.28 194.91 27.69 199.95 24.04C201.14 25.66 202.29 27.26 203.5 28.93C198.48 32.57 193.5 36.19 188.36 39.92C193.5 40.75 198.42 41.53 203.49 42.35C203.18 44.33 202.87 46.26 202.55 48.29C199.92 47.87 197.35 47.47 194.79 47.06C190.6 46.39 186.41 45.7 182.22 45.06C181.85 45 181.36 45.02 181.08 45.22C177.35 47.9 173.63 50.61 169.92 53.32C169.85 53.38 169.8 53.45 169.68 53.59C169.97 53.75 170.23 53.9 170.5 54.02C174.32 55.74 178.14 57.43 181.94 59.18C182.66 59.51 183.25 59.53 183.98 59.25C190.11 56.87 196.25 54.53 202.39 52.18C202.53 52.12 202.68 52.08 202.92 51.99C203.63 53.86 204.33 55.69 205.06 57.59C200.29 59.42 195.63 61.21 190.73 63.09C196.49 65.68 202.08 68.18 207.76 70.73C206.94 72.58 206.14 74.37 205.29 76.25C199.64 73.72 194.06 71.22 188.24 68.62C190.1 73.54 191.88 78.23 193.69 82.99C191.81 83.72 190 84.41 188.09 85.15C187.59 83.85 187.11 82.6 186.63 81.35C184.66 76.17 182.69 71 180.71 65.82C180.58 65.5 180.35 65.11 180.06 64.98C175.8 63.03 171.53 61.12 167.16 59.16C167.16 59.47 167.14 59.7 167.16 59.93C167.54 63.7 167.91 67.46 168.34 71.23C168.39 71.66 168.68 72.17 169.02 72.45C174.03 76.57 179.06 80.66 184.1 84.75C184.36 84.97 184.71 85.08 184.93 85.2C183.54 86.91 182.31 88.42 181.01 90.02C177.26 86.92 173.4 83.73 169.53 80.53C169.46 80.59 169.38 80.64 169.31 80.7C169.93 86.79 170.55 92.89 171.18 99.03C169.15 99.24 167.22 99.45 165.2 99.66C164.58 93.58 163.95 87.48 163.33 81.36C160.14 85.32 156.99 89.22 153.92 93.03C152.13 91.58 150.61 90.34 149.03 89.07C149.16 88.9 149.37 88.63 149.58 88.36C153.65 83.34 157.72 78.31 161.82 73.31C162.23 72.8 162.36 72.32 162.29 71.68C161.87 67.76 161.48 63.85 161.07 59.82C160.78 60 160.57 60.11 160.37 60.25C156.86 62.81 153.33 65.35 149.84 67.94C149.47 68.22 149.14 68.75 149.06 69.21C147.99 75.61 146.97 82.02 145.94 88.43C145.89 88.77 145.82 89.11 145.74 89.54C143.77 89.23 141.84 88.91 139.83 88.59C140.64 83.56 141.43 78.6 142.26 73.42C137.1 77.15 132.16 80.74 127.12 84.39C125.94 82.77 124.79 81.18 123.57 79.5C128.59 75.86 133.57 72.24 138.73 68.5C133.55 67.67 128.6 66.87 123.57 66.06C123.89 64.07 124.2 62.16 124.52 60.13C126.42 60.43 128.28 60.71 130.12 61.01C135 61.79 139.87 62.57 144.73 63.38C145.37 63.48 145.85 63.36 146.38 62.97C150.02 60.28 153.7 57.63 157.47 54.88C157.15 54.71 156.93 54.57 156.69 54.46C152.79 52.7 148.88 50.97 145 49.18C144.37 48.9 143.85 48.89 143.22 49.14C137.09 51.51 130.95 53.85 124.81 56.2C124.61 56.28 124.4 56.33 124.13 56.42C123.43 54.56 122.74 52.75 122.02 50.84C126.77 49.02 131.45 47.22 136.36 45.34C130.57 42.74 124.97 40.23 119.3 37.69C120.13 35.84 120.92 34.07 121.78 32.16C127.4 34.68 132.98 37.18 138.82 39.79C136.96 34.89 135.19 30.21 133.38 25.44C135.26 24.72 137.1 24.01 138.99 23.28C140.36 26.89 141.7 30.41 143.04 33.94C144.15 36.85 145.25 39.76 146.39 42.67C146.51 42.98 146.78 43.34 147.07 43.47C151.31 45.4 155.55 47.3 159.89 49.25C159.9 48.99 159.94 48.79 159.92 48.6C159.53 44.77 159.16 40.94 158.72 37.11C158.67 36.69 158.34 36.2 157.99 35.91C153.01 31.81 148 27.74 142.99 23.67C142.72 23.46 142.39 23.32 142.17 23.2C143.54 21.52 144.76 20.02 146.03 18.47C149.77 21.54 153.65 24.71 157.53 27.89C157.62 27.83 157.7 27.78 157.79 27.73C157.16 21.6 156.54 15.47 155.91 9.34C157.91 9.13 159.92 8.92 161.92 8.71Z" fill="#FFFFFF" fill-opacity="1.000000" fill-rule="evenodd"/>
</svg>
