<svg width="243.452637" height="233.718750" viewBox="0 0 243.453 233.719" fill="none" xmlns="http://www.w3.org/2000/svg" xmlns:xlink="http://www.w3.org/1999/xlink">
	<desc>
			Created with Pixso.
	</desc>
	<defs/>
	<path id="Fill 1" d="M243.45 177.2C243.45 181.45 240 184.9 235.76 184.9C231.51 184.9 228.07 181.45 228.07 177.2C228.07 172.96 231.51 169.51 235.76 169.51C240 169.51 243.45 172.96 243.45 177.2Z" fill="#FF5ABC" fill-opacity="1.000000" fill-rule="evenodd"/>
	<path id="Fill 3" d="M156.22 213.06C156.22 224.47 146.97 233.71 135.56 233.71C124.15 233.71 114.9 224.47 114.9 213.06C114.9 201.65 124.15 192.4 135.56 192.4C146.97 192.4 156.22 201.65 156.22 213.06Z" fill="#00B2F0" fill-opacity="1.000000" fill-rule="evenodd"/>
	<mask id="mask0_1066" mask-type="alpha" maskUnits="userSpaceOnUse" x="0.000000" y="0.000000" width="101.153809" height="146.951904">
		<path id="Clip 6" d="M0 0L101.15 0L101.15 146.95L0 146.95L0 0Z" fill="#000000" fill-opacity="1.000000" fill-rule="evenodd"/>
	</mask>
	<g mask="url(#mask0_1066)">
		<path id="Fill 5" d="M39.7 50.62L50.57 0L61.44 50.62C62.73 56.62 67.42 61.31 73.42 62.6L101.15 73.47L73.42 84.34C67.42 85.63 62.73 90.32 61.44 96.32L50.57 146.95L39.7 96.32C38.41 90.32 33.73 85.63 27.73 84.34L0 73.47L27.73 62.6C33.73 61.31 38.41 56.62 39.7 50.62Z" fill="#FFA800" fill-opacity="1.000000" fill-rule="evenodd"/>
	</g>
</svg>
