<svg width="80.000000" height="80.000000" viewBox="0 0 80 80" fill="none" xmlns="http://www.w3.org/2000/svg" xmlns:xlink="http://www.w3.org/1999/xlink">
	<desc>
			Created with Pixso.
	</desc>
	<defs>
		<filter id="filter_0_1058_dd" x="-10.000000" y="0.000000" width="100.000000" height="100.000000" filterUnits="userSpaceOnUse" color-interpolation-filters="sRGB">
			<feFlood flood-opacity="0" result="BackgroundImageFix"/>
			<feColorMatrix in="SourceAlpha" type="matrix" values="0 0 0 0 0 0 0 0 0 0 0 0 0 0 0 0 0 0 127 0" result="hardAlpha"/>
			<feOffset dx="0" dy="10"/>
			<feGaussianBlur stdDeviation="3.33333"/>
			<feComposite in2="hardAlpha" operator="out" k2="-1" k3="1"/>
			<feColorMatrix type="matrix" values="0 0 0 0 0 0 0 0 0 0 0 0 0 0 0 0 0 0 0.2 0"/>
			<feBlend mode="normal" in2="BackgroundImageFix" result="effect_dropShadow_1"/>
			<feBlend mode="normal" in="SourceGraphic" in2="effect_dropShadow_1" result="shape"/>
		</filter>
		<clipPath id="clip0_1057">
			<rect id="To Top" width="80.000000" height="80.000000" fill="white" fill-opacity="0"/>
		</clipPath>
	</defs>
	<rect id="To Top" width="80.000000" height="80.000000" fill="#FFFFFF" fill-opacity="0"/>
	<g clip-path="url(#clip0_1057)">
		<g filter="url(#filter_0_1058_dd)">
			<circle id="Oval" cx="40.000000" cy="40.000000" r="40.000000" fill="#F49B35" fill-opacity="1.000000"/>
			<circle id="Oval" cx="40.000000" cy="40.000000" r="40.000000" stroke="#979797" stroke-opacity="0" stroke-width="0.000000"/>
		</g>
		<path id="Fill 1" d="M49.83 35.34C49.1 35.34 48.38 35.06 47.83 34.51L40.33 27.01L32.83 34.51C31.73 35.62 29.93 35.62 28.83 34.51C27.72 33.4 27.72 31.61 28.83 30.5L40.33 19L51.83 30.5C52.94 31.61 52.94 33.4 51.83 34.51C51.28 35.06 50.56 35.34 49.83 35.34Z" fill="#FFFFFF" fill-opacity="1.000000" fill-rule="evenodd"/>
		<path id="вверх" d="M39.86 51.94Q40.51 52.19 41.25 52.19Q42.05 52.19 42.68 51.95Q43.31 51.71 43.81 51.39L43.34 50.52Q43 50.74 42.63 50.89Q42.53 50.93 42.44 50.96Q41.97 51.13 41.41 51.13Q40.67 51.13 40.11 50.81Q39.83 50.65 39.59 50.4Q39.52 50.32 39.46 50.24Q38.89 49.53 38.81 48.43L44.06 48.43Q44.1 48.28 44.1 48.08Q44.11 47.88 44.11 47.67Q44.11 46.01 43.3 45.02Q43.06 44.72 42.75 44.51Q42.05 44.03 41.01 44.03Q40.77 44.03 40.53 44.06Q39.91 44.16 39.33 44.52Q39.23 44.58 39.14 44.64Q38.47 45.12 38.02 45.93Q37.52 46.84 37.52 48.12Q37.52 49.39 38.01 50.3Q38.36 50.93 38.87 51.36Q39.1 51.55 39.36 51.7Q39.6 51.84 39.86 51.94ZM46.23 44.22L46.23 55.28L47.54 55.28L47.54 52.65L47.51 51.29Q48.06 51.71 48.59 51.95Q49.07 52.16 49.55 52.18Q49.61 52.19 49.67 52.19Q50.09 52.19 50.47 52.08Q50.92 51.96 51.33 51.69Q52.09 51.19 52.56 50.25Q53.03 49.31 53.03 48Q53.03 46.19 52.25 45.11Q51.96 44.72 51.59 44.47Q50.92 44.03 49.96 44.03Q49.71 44.03 49.48 44.07Q49.05 44.14 48.64 44.35Q48.15 44.59 47.73 44.92Q47.6 45.01 47.48 45.12L47.43 45.12L47.32 44.22L46.23 44.22ZM21.44 44.22L21.44 52L24.56 52Q25.9 52 26.77 51.46Q27.09 51.26 27.29 50.98Q27.63 50.5 27.63 49.77Q27.63 49.05 27.27 48.62Q27.21 48.55 27.14 48.49Q26.97 48.34 26.77 48.22Q26.42 48 26 47.9L26 47.85Q26.55 47.69 26.88 47.33Q26.92 47.29 26.95 47.25Q27.01 47.18 27.05 47.11Q27.3 46.72 27.3 46.19Q27.3 45.51 26.97 45.08Q26.79 44.84 26.5 44.67Q25.71 44.22 24.43 44.22L21.44 44.22ZM29.77 44.22L29.77 52L32.89 52Q34.23 52 35.1 51.46Q35.41 51.26 35.61 50.98Q35.96 50.5 35.96 49.77Q35.96 49.05 35.6 48.62Q35.54 48.55 35.47 48.49Q35.3 48.34 35.1 48.22Q34.75 48 34.33 47.9L34.33 47.85Q34.88 47.69 35.21 47.33Q35.25 47.29 35.28 47.25Q35.34 47.18 35.38 47.11Q35.62 46.72 35.62 46.19Q35.62 45.51 35.3 45.08Q35.12 44.84 34.83 44.67Q34.04 44.22 32.76 44.22L29.77 44.22ZM56.5 47.93L53.95 52L55.33 52L56.38 50.19Q56.57 49.82 56.77 49.48Q56.96 49.13 57.17 48.8L57.23 48.8Q57.45 49.13 57.66 49.48Q57.87 49.83 58.08 50.19L59.22 52L60.64 52L58.11 48.07L60.46 44.22L59.09 44.22L58.14 45.93Q57.97 46.23 57.79 46.57Q57.61 46.91 57.44 47.23L57.38 47.23Q57.17 46.91 56.97 46.57Q56.78 46.23 56.61 45.93L55.57 44.22L54.14 44.22L56.5 47.93ZM42.96 47.48L38.8 47.48Q38.93 46.35 39.56 45.72Q39.57 45.71 39.58 45.7Q40.02 45.27 40.54 45.13Q40.78 45.07 41.04 45.07Q41.66 45.07 42.09 45.35Q42.29 45.48 42.45 45.68Q42.96 46.3 42.96 47.48ZM50.16 50.95Q49.83 51.08 49.45 51.08Q49.06 51.08 48.57 50.9Q48.07 50.71 47.54 50.27L47.54 46.19Q48.12 45.67 48.62 45.41Q49.13 45.13 49.62 45.13Q50.37 45.13 50.83 45.5Q51.05 45.67 51.2 45.92Q51.67 46.71 51.67 48Q51.67 49.44 51.04 50.26Q50.66 50.75 50.16 50.95ZM24.21 47.48L22.74 47.48L22.74 45.16L24.3 45.16Q25.2 45.16 25.6 45.47Q25.78 45.6 25.88 45.77Q26.01 46 26.01 46.32Q26.01 46.61 25.89 46.84Q25.78 47.03 25.6 47.17Q25.18 47.48 24.21 47.48ZM32.53 47.48L31.06 47.48L31.06 45.16L32.63 45.16Q33.53 45.16 33.93 45.47Q34.11 45.6 34.21 45.77Q34.34 46 34.34 46.32Q34.34 46.61 34.22 46.84Q34.11 47.03 33.92 47.17Q33.51 47.48 32.53 47.48ZM24.42 51.05L22.74 51.05L22.74 48.43L24.33 48.43Q25.33 48.43 25.82 48.76Q26.08 48.94 26.2 49.18Q26.32 49.41 26.32 49.69Q26.32 50.07 26.15 50.35Q26.04 50.55 25.85 50.69Q25.37 51.05 24.42 51.05ZM32.74 51.05L31.06 51.05L31.06 48.43L32.66 48.43Q33.65 48.43 34.15 48.76Q34.41 48.94 34.53 49.18Q34.65 49.41 34.65 49.69Q34.65 50.07 34.48 50.35Q34.36 50.55 34.17 50.69Q33.7 51.05 32.74 51.05Z" fill="#FFFFFF" fill-opacity="1.000000" fill-rule="evenodd"/>
	</g>
</svg>
