<svg width="56.000000" height="56.000000" viewBox="0 0 56 56" fill="none" xmlns="http://www.w3.org/2000/svg" xmlns:xlink="http://www.w3.org/1999/xlink">
	<desc>
			Created with Pixso.
	</desc>
	<defs/>
	<path id="Fill 1" d="M0 26.8799C0 14.2002 0 7.87988 3.93994 3.94043C7.87988 0 14.2002 0 26.8799 0L29.1201 0C41.7998 0 48.1201 0 52.0601 3.94043C56 7.87988 56 14.2002 56 26.8799L56 29.1201C56 41.7998 56 48.1201 52.0601 52.0596C48.1201 56 41.7998 56 29.1201 56L26.8799 56C14.2002 56 7.87988 56 3.93994 52.0596C0 48.1201 0 41.7998 0 29.1201L0 26.8799ZM10 18C10.3164 32.3477 17.8901 41 30.3687 41L31.1006 41L31.1006 32.7812C35.6489 33.2344 39.0503 36.624 40.4346 41L47 41C45.687 36.0205 42.3159 31.8311 37.7256 29.4707C41.8306 26.8955 44.686 22.7441 45.6157 18L39.6436 18C38.3779 22.5723 34.6602 26.7109 31.1006 27.1055L31.1006 18L25.0293 18L25.0293 33.9248C21.3511 33.0176 16.5259 28.5439 16.3281 18L10 18Z" clip-rule="evenodd" fill="#FFFFFF" fill-opacity="1.000000" fill-rule="evenodd"/>
</svg>
